<svg width="20" height="20" viewBox="0 0 20 20" fill="none" xmlns="http://www.w3.org/2000/svg">
<path d="M9.45709 14.5C9.34418 14.5 9.23045 14.5 9.11755 14.3879L7.30527 12.7C7.25151 12.6494 7.20866 12.5884 7.17937 12.5206C7.15008 12.4529 7.13497 12.3799 7.13497 12.306C7.13497 12.2322 7.15008 12.1592 7.17937 12.0915C7.20866 12.0237 7.25151 11.9627 7.30527 11.9121C7.35658 11.8587 7.41813 11.8162 7.48625 11.7872C7.55437 11.7582 7.62764 11.7433 7.70168 11.7433C7.77572 11.7433 7.84899 11.7582 7.91711 11.7872C7.98523 11.8162 8.04679 11.8587 8.09809 11.9121L9.79745 13.4871C9.85122 13.5377 9.89407 13.5987 9.92336 13.6665C9.95264 13.7342 9.96775 13.8072 9.96775 13.881C9.96775 13.9549 9.95264 14.0279 9.92336 14.0956C9.89407 14.1634 9.85122 14.2244 9.79745 14.275C9.79745 14.3871 9.57082 14.5 9.45709 14.5ZM9.45709 14.5C9.34418 14.5 9.11755 14.3879 9.00382 14.275C8.95005 14.2244 8.9072 14.1634 8.87792 14.0956C8.84863 14.0279 8.83352 13.9549 8.83352 13.881C8.83352 13.8072 8.84863 13.7342 8.87792 13.6665C8.9072 13.5987 8.95005 13.5377 9.00382 13.4871L12.63 10C12.6813 9.94649 12.7429 9.90392 12.8111 9.87483C12.8793 9.84575 12.9527 9.83075 13.0268 9.83075C13.101 9.83075 13.1743 9.84575 13.2425 9.87483C13.3107 9.90392 13.3723 9.94649 13.4236 10C13.4774 10.0506 13.5203 10.1116 13.5495 10.1794C13.5788 10.2471 13.5939 10.3201 13.5939 10.394C13.5939 10.4678 13.5788 10.5408 13.5495 10.6085C13.5203 10.6763 13.4774 10.7373 13.4236 10.7879L9.79827 14.3879C9.68455 14.5 9.57164 14.5 9.45791 14.5H9.45709ZM15.4617 19H5.26555C4.01945 19 3 17.7629 3 16.3V6.06291C3 4.6 4.01945 3.36291 5.26636 3.36291H7.53109C7.75773 2.01291 9.00382 1 10.3636 1C11.7235 1 12.9695 2.01291 13.1962 3.36291H15.4617C16.7078 3.36291 17.7273 4.6 17.7273 6.06291V16.3C17.7273 17.7629 16.7078 19 15.4609 19H15.4617ZM5.26555 4.48709C4.58645 4.48709 4.13318 5.275 4.13318 6.06291V16.3C4.13318 17.0879 4.69936 17.875 5.26555 17.875H15.4617C16.1408 17.875 16.5941 17.0879 16.5941 16.3V6.06291C16.5941 5.16291 16.0279 4.48791 15.4617 4.48791H12.6292C12.5163 4.48791 12.2896 4.375 12.1759 4.26209C12.063 4.15 12.063 4.03709 12.063 3.925V3.81209C12.063 2.91209 11.2694 2.125 10.3636 2.125C9.45709 2.125 8.66427 2.91209 8.66427 3.81291C8.66427 3.925 8.66427 4.15 8.55136 4.26291C8.43764 4.375 8.211 4.48791 8.09809 4.48791H5.26555V4.48709ZM13.7624 7.18709H6.96491C6.62536 7.18709 6.39873 6.96209 6.39873 6.625V4.375C6.39873 4.03709 6.62536 3.81209 6.96491 3.81209C7.30527 3.81209 7.53109 4.03791 7.53109 4.375V6.06291H13.1962V4.37418C13.1962 4.03627 13.422 3.81127 13.7624 3.81127C14.1019 3.81127 14.3285 4.03709 14.3285 4.37418V6.62418C14.3285 6.96127 14.1019 7.18709 13.7624 7.18709Z" fill="#0F134F"/>
</svg>
