<svg width="24" height="22" viewBox="0 0 24 22" fill="none" xmlns="http://www.w3.org/2000/svg">
<path opacity="0.3" d="M0 0H16C20.4183 0 24 3.58172 24 8V22H20C8.95431 22 0 13.0457 0 2V0Z" fill="#F0F2F7"/>
<path opacity="0.6" d="M14.6192 10.0007L17.8764 6.74244C17.9555 6.66271 17.9999 6.55493 17.9999 6.44259C17.9999 6.33025 17.9555 6.22247 17.8764 6.14274L17.8585 6.12487C17.7788 6.04575 17.671 6.00137 17.5587 6.00137C17.4464 6.00137 17.3386 6.04575 17.2589 6.12487L14.0015 9.38719L10.744 6.1235C10.6643 6.04439 10.5566 6 10.4443 6C10.3319 6 10.2242 6.04439 10.1445 6.1235L10.1266 6.14137C10.0865 6.18036 10.0547 6.22699 10.0329 6.2785C10.0112 6.33001 10 6.38536 10 6.44127C10 6.49719 10.0112 6.55253 10.0329 6.60404C10.0547 6.65556 10.0865 6.70218 10.1266 6.74118L13.3841 10.0007L10.1266 13.2589C10.0475 13.3386 10.0031 13.4464 10.0031 13.5587C10.0031 13.6711 10.0475 13.7788 10.1266 13.8586L10.1445 13.8765C10.2242 13.9556 10.3319 14 10.4443 14C10.5566 14 10.6643 13.9556 10.744 13.8765L14.0015 10.6182L17.259 13.8765C17.3387 13.9556 17.4465 14 17.5588 14C17.6711 14 17.7789 13.9556 17.8586 13.8765L17.8765 13.8586C17.9556 13.7788 18 13.6711 18 13.5587C18 13.4464 17.9556 13.3386 17.8765 13.2589L14.6192 10.0007Z" fill="white" stroke="white" stroke-width="0.5"/>
</svg>
