<svg width="414" height="70" viewBox="0 0 414 70" fill="none" xmlns="http://www.w3.org/2000/svg">
<path d="M251 11.95V26.1H241.1V58.2H245.9V31H260.85V51.25C260.85 52.65 260.35 53.35 259.35 53.35L255.55 53.1L256.85 57.95H260.95C264.05 57.95 265.65 56.05 265.65 52.35V26.1H255.95V11.95H251ZM248.05 34.75V49.3H258.7V34.75H248.05ZM254.55 45.3H252.2V38.75H254.55V45.3ZM261.85 13.45C260.65 16.95 259.2 19.9 257.55 22.35L261.3 25.05C263.1 22.35 264.65 19.2 266 15.5L261.85 13.45ZM245.4 13.8L240.95 15.3C242.3 18.1 243.55 21.4 244.75 25.1L248.95 23.2C247.95 19.85 246.75 16.7 245.4 13.8ZM228 27.5H233.95V30.6H228V27.5ZM233.95 23.4H228V20.2H233.95V23.4ZM228 34.7H233.95V37.85H228V34.7ZM221.7 37.85V42.3H232.25C229.3 45.7 225.45 48.55 220.75 50.85L223.45 55.55C227.65 53.05 231.15 49.95 233.95 46.35V50.6C233.95 52.2 233.5 53.05 232.65 53.05L228.75 52.8L230.05 57.65H234.3C237.25 57.65 238.75 55.6 238.75 51.6V15.9H232.75C233.15 14.9 233.5 13.8 233.8 12.7L228.45 11.95C228.25 13.3 227.9 14.6 227.5 15.9H223.1V37.85H221.7ZM315.55 43.25V35.85H318.1V31.75H315.55V24.55H308.95V21.8H316.85V17.25H310.5C311.15 15.75 311.65 14.1 312.05 12.4L307 11.7C306.65 13.6 306.15 15.45 305.45 17.25H301.85C301.35 15.25 300.8 13.45 300.2 11.8L295.05 12.7C295.75 14.1 296.45 15.6 297.05 17.25H291.55V21.8H297.5V24.55H292.9V28.55H297.5V31.75H291.4V35.85H297.5V39.25H292.55V43.25H296.35C294.75 46.4 292.5 49.1 289.6 51.4C288.45 50 287.15 48.55 285.65 47.1L282.7 50C284.85 52.3 286.5 54.5 287.7 56.55L289.8 54.5L291.15 56.7C293.75 54.25 295.85 51.35 297.5 48.05V58.1H301.9V43.25H304.45V58.1H308.95V48.05C310.45 51.05 312.5 53.85 315.05 56.45L318.45 52.25C314.5 49.6 311.6 46.6 309.75 43.25H315.55ZM304.45 24.55H301.9V21.8H304.45V24.55ZM301.9 28.55H304.45V31.75H301.9V28.55ZM308.95 28.55H311.25V31.75H308.95V28.55ZM301.9 35.85H304.45V39.25H301.9V35.85ZM308.95 35.85H311.25V39.25H308.95V35.85ZM290.15 13.9H273.45V45.9H278.05V18.7H285.65V45.05H290.15V13.9ZM279.85 21.35V37.65C279.7 41.95 279.1 45.4 278 48.1C276.9 50.55 274.75 52.6 271.6 54.3L274.2 58.4C277.55 56.7 279.95 54.3 281.4 51.15C282.95 47.75 283.8 43.25 283.95 37.65V21.35H279.85ZM338.55 17.3V41.25C338.55 43.8 338.1 45.65 337.2 46.8C336.3 47.95 334.85 48.55 332.9 48.55C329.35 48.55 327.6 46.5 327.6 42.4V41.3H321.75V42.45C321.75 45.95 322.7 48.7 324.6 50.7C326.45 52.7 329.2 53.7 332.8 53.7C336.95 53.7 339.95 52.65 341.85 50.55C343.55 48.55 344.4 45.55 344.4 41.45V17.3H338.55ZM365.004 16.6C361.154 16.6 358.004 17.45 355.504 19.2C352.804 21 351.504 23.5 351.504 26.65C351.504 29.8 352.854 32.2 355.604 33.85C356.654 34.45 359.404 35.45 363.804 36.85C367.754 38.05 370.054 38.85 370.754 39.2C372.954 40.3 374.104 41.8 374.104 43.7C374.104 45.2 373.304 46.35 371.804 47.25C370.304 48.1 368.204 48.55 365.604 48.55C362.654 48.55 360.504 48 359.104 47C357.554 45.85 356.604 43.9 356.204 41.2H350.404C350.654 45.75 352.304 49.05 355.304 51.15C357.754 52.85 361.204 53.7 365.604 53.7C370.154 53.7 373.704 52.75 376.204 50.95C378.704 49.1 379.954 46.55 379.954 43.35C379.954 40.05 378.404 37.5 375.304 35.65C373.904 34.85 370.804 33.65 365.954 32.15C362.654 31.1 360.604 30.35 359.854 29.95C358.154 29.05 357.354 27.8 357.354 26.3C357.354 24.6 358.054 23.35 359.554 22.6C360.754 21.95 362.454 21.65 364.704 21.65C367.304 21.65 369.304 22.1 370.604 23.1C371.904 24.05 372.854 25.65 373.354 27.85H379.154C378.804 23.95 377.354 21.05 374.854 19.2C372.504 17.45 369.204 16.6 365.004 16.6ZM383.223 17.3V22.3H394.923V53H400.773V22.3H412.473V17.3H383.223Z" fill="white"/>
<path d="M251 11.95V11.45H250.5V11.95H251ZM251 26.1V26.6H251.5V26.1H251ZM241.1 26.1V25.6H240.6V26.1H241.1ZM241.1 58.2H240.6V58.7H241.1V58.2ZM245.9 58.2V58.7H246.4V58.2H245.9ZM245.9 31V30.5H245.4V31H245.9ZM260.85 31H261.35V30.5H260.85V31ZM259.35 53.35L259.317 53.8489L259.334 53.85H259.35V53.35ZM255.55 53.1L255.583 52.6011L254.886 52.5553L255.067 53.2295L255.55 53.1ZM256.85 57.95L256.367 58.0795L256.466 58.45H256.85V57.95ZM265.65 26.1H266.15V25.6H265.65V26.1ZM255.95 26.1H255.45V26.6H255.95V26.1ZM255.95 11.95H256.45V11.45H255.95V11.95ZM248.05 34.75V34.25H247.55V34.75H248.05ZM248.05 49.3H247.55V49.8H248.05V49.3ZM258.7 49.3V49.8H259.2V49.3H258.7ZM258.7 34.75H259.2V34.25H258.7V34.75ZM254.55 45.3V45.8H255.05V45.3H254.55ZM252.2 45.3H251.7V45.8H252.2V45.3ZM252.2 38.75V38.25H251.7V38.75H252.2ZM254.55 38.75H255.05V38.25H254.55V38.75ZM261.85 13.45L262.071 13.0017L261.561 12.7498L261.377 13.2878L261.85 13.45ZM257.55 22.35L257.135 22.0707L256.865 22.4726L257.258 22.7558L257.55 22.35ZM261.3 25.05L261.008 25.4558L261.429 25.7586L261.716 25.3273L261.3 25.05ZM266 15.5L266.47 15.6714L266.623 15.2502L266.221 15.0517L266 15.5ZM245.4 13.8L245.853 13.589L245.664 13.1832L245.24 13.3262L245.4 13.8ZM240.95 15.3L240.79 14.8262L240.254 15.0071L240.5 15.5171L240.95 15.3ZM244.75 25.1L244.274 25.2543L244.447 25.7859L244.956 25.5556L244.75 25.1ZM248.95 23.2L249.156 23.6556L249.554 23.4755L249.429 23.057L248.95 23.2ZM228 27.5V27H227.5V27.5H228ZM233.95 27.5H234.45V27H233.95V27.5ZM233.95 30.6V31.1H234.45V30.6H233.95ZM228 30.6H227.5V31.1H228V30.6ZM233.95 23.4V23.9H234.45V23.4H233.95ZM228 23.4H227.5V23.9H228V23.4ZM228 20.2V19.7H227.5V20.2H228ZM233.95 20.2H234.45V19.7H233.95V20.2ZM228 34.7V34.2H227.5V34.7H228ZM233.95 34.7H234.45V34.2H233.95V34.7ZM233.95 37.85V38.35H234.45V37.85H233.95ZM228 37.85H227.5V38.35H228V37.85ZM221.7 37.85V37.35H221.2V37.85H221.7ZM221.7 42.3H221.2V42.8H221.7V42.3ZM232.25 42.3L232.628 42.6277L233.346 41.8H232.25V42.3ZM220.75 50.85L220.53 50.4009L220.05 50.6358L220.316 51.0991L220.75 50.85ZM223.45 55.55L223.016 55.7991L223.269 56.2394L223.706 55.9796L223.45 55.55ZM233.95 46.35H234.45V44.8927L233.555 46.043L233.95 46.35ZM232.65 53.05L232.618 53.549L232.634 53.55H232.65V53.05ZM228.75 52.8L228.782 52.301L228.087 52.2565L228.267 52.9295L228.75 52.8ZM230.05 57.65L229.567 57.7794L229.666 58.15H230.05V57.65ZM238.75 15.9H239.25V15.4H238.75V15.9ZM232.75 15.9L232.286 15.7143L232.011 16.4H232.75V15.9ZM233.8 12.7L234.282 12.8316L234.432 12.2837L233.869 12.2048L233.8 12.7ZM228.45 11.95L228.519 11.4548L228.028 11.386L227.955 11.8767L228.45 11.95ZM227.5 15.9V16.4H227.869L227.978 16.047L227.5 15.9ZM223.1 15.9V15.4H222.6V15.9H223.1ZM223.1 37.85V38.35H223.6V37.85H223.1ZM250.5 11.95V26.1H251.5V11.95H250.5ZM251 25.6H241.1V26.6H251V25.6ZM240.6 26.1V58.2H241.6V26.1H240.6ZM241.1 58.7H245.9V57.7H241.1V58.7ZM246.4 58.2V31H245.4V58.2H246.4ZM245.9 31.5H260.85V30.5H245.9V31.5ZM260.35 31V51.25H261.35V31H260.35ZM260.35 51.25C260.35 51.9056 260.23 52.3075 260.068 52.5344C259.928 52.7303 259.719 52.85 259.35 52.85V53.85C259.981 53.85 260.522 53.6197 260.882 53.1156C261.22 52.6425 261.35 51.9944 261.35 51.25H260.35ZM259.383 52.8511L255.583 52.6011L255.517 53.5989L259.317 53.8489L259.383 52.8511ZM255.067 53.2295L256.367 58.0795L257.333 57.8205L256.033 52.9706L255.067 53.2295ZM256.85 58.45H260.95V57.45H256.85V58.45ZM260.95 58.45C262.606 58.45 263.939 57.938 264.845 56.8591C265.738 55.7961 266.15 54.2611 266.15 52.35H265.15C265.15 54.1389 264.762 55.4039 264.08 56.2159C263.411 57.012 262.394 57.45 260.95 57.45V58.45ZM266.15 52.35V26.1H265.15V52.35H266.15ZM265.65 25.6H255.95V26.6H265.65V25.6ZM256.45 26.1V11.95H255.45V26.1H256.45ZM255.95 11.45H251V12.45H255.95V11.45ZM247.55 34.75V49.3H248.55V34.75H247.55ZM248.05 49.8H258.7V48.8H248.05V49.8ZM259.2 49.3V34.75H258.2V49.3H259.2ZM258.7 34.25H248.05V35.25H258.7V34.25ZM254.55 44.8H252.2V45.8H254.55V44.8ZM252.7 45.3V38.75H251.7V45.3H252.7ZM252.2 39.25H254.55V38.25H252.2V39.25ZM254.05 38.75V45.3H255.05V38.75H254.05ZM261.377 13.2878C260.189 16.7528 258.757 19.6623 257.135 22.0707L257.965 22.6293C259.643 20.1377 261.111 17.1472 262.323 13.6122L261.377 13.2878ZM257.258 22.7558L261.008 25.4558L261.592 24.6442L257.842 21.9442L257.258 22.7558ZM261.716 25.3273C263.542 22.5881 265.109 19.401 266.47 15.6714L265.53 15.3286C264.191 18.999 262.658 22.1119 260.884 24.7726L261.716 25.3273ZM266.221 15.0517L262.071 13.0017L261.629 13.8983L265.779 15.9483L266.221 15.0517ZM245.24 13.3262L240.79 14.8262L241.11 15.7738L245.56 14.2738L245.24 13.3262ZM240.5 15.5171C241.836 18.2895 243.078 21.5663 244.274 25.2543L245.226 24.9457C244.022 21.2337 242.764 17.9105 241.4 15.0828L240.5 15.5171ZM244.956 25.5556L249.156 23.6556L248.744 22.7444L244.544 24.6444L244.956 25.5556ZM249.429 23.057C248.422 19.6844 247.214 16.5116 245.853 13.589L244.947 14.011C246.286 16.8884 247.478 20.0156 248.471 23.343L249.429 23.057ZM228 28H233.95V27H228V28ZM233.45 27.5V30.6H234.45V27.5H233.45ZM233.95 30.1H228V31.1H233.95V30.1ZM228.5 30.6V27.5H227.5V30.6H228.5ZM233.95 22.9H228V23.9H233.95V22.9ZM228.5 23.4V20.2H227.5V23.4H228.5ZM228 20.7H233.95V19.7H228V20.7ZM233.45 20.2V23.4H234.45V20.2H233.45ZM228 35.2H233.95V34.2H228V35.2ZM233.45 34.7V37.85H234.45V34.7H233.45ZM233.95 37.35H228V38.35H233.95V37.35ZM228.5 37.85V34.7H227.5V37.85H228.5ZM221.2 37.85V42.3H222.2V37.85H221.2ZM221.7 42.8H232.25V41.8H221.7V42.8ZM231.872 41.9723C228.973 45.3134 225.181 48.1251 220.53 50.4009L220.97 51.2991C225.719 48.9749 229.627 46.0866 232.628 42.6277L231.872 41.9723ZM220.316 51.0991L223.016 55.7991L223.884 55.3009L221.184 50.6009L220.316 51.0991ZM223.706 55.9796C227.958 53.4486 231.505 50.3075 234.345 46.657L233.555 46.043C230.795 49.5925 227.342 52.6514 223.194 55.1204L223.706 55.9796ZM233.45 46.35V50.6H234.45V46.35H233.45ZM233.45 50.6C233.45 51.3677 233.34 51.8841 233.177 52.1908C233.033 52.463 232.865 52.55 232.65 52.55V53.55C233.285 53.55 233.767 53.212 234.06 52.6593C234.335 52.1409 234.45 51.4323 234.45 50.6H233.45ZM232.682 52.551L228.782 52.301L228.718 53.299L232.618 53.549L232.682 52.551ZM228.267 52.9295L229.567 57.7794L230.533 57.5205L229.233 52.6705L228.267 52.9295ZM230.05 58.15H234.3V57.15H230.05V58.15ZM234.3 58.15C235.904 58.15 237.18 57.5842 238.034 56.421C238.868 55.2855 239.25 53.6486 239.25 51.6H238.25C238.25 53.5514 237.882 54.9395 237.228 55.829C236.595 56.6908 235.646 57.15 234.3 57.15V58.15ZM239.25 51.6V15.9H238.25V51.6H239.25ZM238.75 15.4H232.75V16.4H238.75V15.4ZM233.214 16.0857C233.623 15.0631 233.979 13.944 234.282 12.8316L233.318 12.5684C233.021 13.656 232.677 14.7369 232.286 15.7143L233.214 16.0857ZM233.869 12.2048L228.519 11.4548L228.381 12.4452L233.731 13.1952L233.869 12.2048ZM227.955 11.8767C227.761 13.1903 227.419 14.4627 227.022 15.753L227.978 16.047C228.381 14.7373 228.739 13.4097 228.945 12.0233L227.955 11.8767ZM227.5 15.4H223.1V16.4H227.5V15.4ZM222.6 15.9V37.85H223.6V15.9H222.6ZM223.1 37.35H221.7V38.35H223.1V37.35ZM315.55 43.25V43.75H316.05V43.25H315.55ZM315.55 35.85V35.35H315.05V35.85H315.55ZM318.1 35.85V36.35H318.6V35.85H318.1ZM318.1 31.75H318.6V31.25H318.1V31.75ZM315.55 31.75H315.05V32.25H315.55V31.75ZM315.55 24.55H316.05V24.05H315.55V24.55ZM308.95 24.55H308.45V25.05H308.95V24.55ZM308.95 21.8V21.3H308.45V21.8H308.95ZM316.85 21.8V22.3H317.35V21.8H316.85ZM316.85 17.25H317.35V16.75H316.85V17.25ZM310.5 17.25L310.041 17.0512L309.738 17.75H310.5V17.25ZM312.05 12.4L312.537 12.5145L312.662 11.9801L312.119 11.9047L312.05 12.4ZM307 11.7L307.069 11.2047L306.595 11.1391L306.508 11.6094L307 11.7ZM305.45 17.25V17.75H305.792L305.916 17.4312L305.45 17.25ZM301.85 17.25L301.365 17.3713L301.46 17.75H301.85V17.25ZM300.2 11.8L300.67 11.6291L300.527 11.2353L300.114 11.3075L300.2 11.8ZM295.05 12.7L294.964 12.2075L294.303 12.323L294.603 12.9236L295.05 12.7ZM297.05 17.25V17.75H297.764L297.52 17.0791L297.05 17.25ZM291.55 17.25V16.75H291.05V17.25H291.55ZM291.55 21.8H291.05V22.3H291.55V21.8ZM297.5 21.8H298V21.3H297.5V21.8ZM297.5 24.55V25.05H298V24.55H297.5ZM292.9 24.55V24.05H292.4V24.55H292.9ZM292.9 28.55H292.4V29.05H292.9V28.55ZM297.5 28.55H298V28.05H297.5V28.55ZM297.5 31.75V32.25H298V31.75H297.5ZM291.4 31.75V31.25H290.9V31.75H291.4ZM291.4 35.85H290.9V36.35H291.4V35.85ZM297.5 35.85H298V35.35H297.5V35.85ZM297.5 39.25V39.75H298V39.25H297.5ZM292.55 39.25V38.75H292.05V39.25H292.55ZM292.55 43.25H292.05V43.75H292.55V43.25ZM296.35 43.25L296.796 43.4764L297.165 42.75H296.35V43.25ZM289.6 51.4L289.214 51.7174L289.526 52.0972L289.911 51.7917L289.6 51.4ZM285.65 47.1L285.998 46.7405L285.647 46.4017L285.299 46.7434L285.65 47.1ZM282.7 50L282.349 49.6434L282.002 49.9853L282.335 50.3414L282.7 50ZM287.7 56.55L287.268 56.8026L287.592 57.3546L288.049 56.9078L287.7 56.55ZM289.8 54.5L290.226 54.2385L289.899 53.7049L289.451 54.1422L289.8 54.5ZM291.15 56.7L290.724 56.9615L291.045 57.4856L291.493 57.0639L291.15 56.7ZM297.5 48.05H298L297.053 47.8264L297.5 48.05ZM297.5 58.1H297V58.6H297.5V58.1ZM301.9 58.1V58.6H302.4V58.1H301.9ZM301.9 43.25V42.75H301.4V43.25H301.9ZM304.45 43.25H304.95V42.75H304.45V43.25ZM304.45 58.1H303.95V58.6H304.45V58.1ZM308.95 58.1V58.6H309.45V58.1H308.95ZM308.95 48.05L309.397 47.8264L308.45 48.05H308.95ZM315.05 56.45L314.693 56.8001L315.086 57.2005L315.439 56.7646L315.05 56.45ZM318.45 52.25L318.839 52.5646L319.183 52.1395L318.729 51.8348L318.45 52.25ZM309.75 43.25V42.75H308.903L309.312 43.4917L309.75 43.25ZM304.45 24.55V25.05H304.95V24.55H304.45ZM301.9 24.55H301.4V25.05H301.9V24.55ZM301.9 21.8V21.3H301.4V21.8H301.9ZM304.45 21.8H304.95V21.3H304.45V21.8ZM301.9 28.55V28.05H301.4V28.55H301.9ZM304.45 28.55H304.95V28.05H304.45V28.55ZM304.45 31.75V32.25H304.95V31.75H304.45ZM301.9 31.75H301.4V32.25H301.9V31.75ZM308.95 28.55V28.05H308.45V28.55H308.95ZM311.25 28.55H311.75V28.05H311.25V28.55ZM311.25 31.75V32.25H311.75V31.75H311.25ZM308.95 31.75H308.45V32.25H308.95V31.75ZM301.9 35.85V35.35H301.4V35.85H301.9ZM304.45 35.85H304.95V35.35H304.45V35.85ZM304.45 39.25V39.75H304.95V39.25H304.45ZM301.9 39.25H301.4V39.75H301.9V39.25ZM308.95 35.85V35.35H308.45V35.85H308.95ZM311.25 35.85H311.75V35.35H311.25V35.85ZM311.25 39.25V39.75H311.75V39.25H311.25ZM308.95 39.25H308.45V39.75H308.95V39.25ZM290.15 13.9H290.65V13.4H290.15V13.9ZM273.45 13.9V13.4H272.95V13.9H273.45ZM273.45 45.9H272.95V46.4H273.45V45.9ZM278.05 45.9V46.4H278.55V45.9H278.05ZM278.05 18.7V18.2H277.55V18.7H278.05ZM285.65 18.7H286.15V18.2H285.65V18.7ZM285.65 45.05H285.15V45.55H285.65V45.05ZM290.15 45.05V45.55H290.65V45.05H290.15ZM279.85 21.35V20.85H279.35V21.35H279.85ZM279.85 37.65L280.35 37.6674L280.35 37.6587V37.65H279.85ZM278 48.1L278.456 48.3048L278.46 48.2968L278.463 48.2886L278 48.1ZM271.6 54.3L271.363 53.86L270.89 54.1148L271.178 54.5678L271.6 54.3ZM274.2 58.4L273.778 58.6678L274.021 59.0515L274.426 58.8459L274.2 58.4ZM281.4 51.15L281.854 51.3591L281.855 51.3574L281.4 51.15ZM283.95 37.65L284.45 37.6634V37.65H283.95ZM283.95 21.35H284.45V20.85H283.95V21.35ZM316.05 43.25V35.85H315.05V43.25H316.05ZM315.55 36.35H318.1V35.35H315.55V36.35ZM318.6 35.85V31.75H317.6V35.85H318.6ZM318.1 31.25H315.55V32.25H318.1V31.25ZM316.05 31.75V24.55H315.05V31.75H316.05ZM315.55 24.05H308.95V25.05H315.55V24.05ZM309.45 24.55V21.8H308.45V24.55H309.45ZM308.95 22.3H316.85V21.3H308.95V22.3ZM317.35 21.8V17.25H316.35V21.8H317.35ZM316.85 16.75H310.5V17.75H316.85V16.75ZM310.959 17.4488C311.624 15.9134 312.132 14.2332 312.537 12.5145L311.563 12.2855C311.168 13.9668 310.676 15.5866 310.041 17.0512L310.959 17.4488ZM312.119 11.9047L307.069 11.2047L306.931 12.1953L311.981 12.8953L312.119 11.9047ZM306.508 11.6094C306.163 13.4827 305.671 15.3019 304.984 17.0688L305.916 17.4312C306.629 15.5981 307.137 13.7173 307.492 11.7906L306.508 11.6094ZM305.45 16.75H301.85V17.75H305.45V16.75ZM302.335 17.1287C301.831 15.1134 301.276 13.2968 300.67 11.6291L299.73 11.9709C300.324 13.6032 300.869 15.3866 301.365 17.3713L302.335 17.1287ZM300.114 11.3075L294.964 12.2075L295.136 13.1925L300.286 12.2925L300.114 11.3075ZM294.603 12.9236C295.299 14.3155 295.989 15.7964 296.58 17.4209L297.52 17.0791C296.911 15.4036 296.201 13.8845 295.497 12.4764L294.603 12.9236ZM297.05 16.75H291.55V17.75H297.05V16.75ZM291.05 17.25V21.8H292.05V17.25H291.05ZM291.55 22.3H297.5V21.3H291.55V22.3ZM297 21.8V24.55H298V21.8H297ZM297.5 24.05H292.9V25.05H297.5V24.05ZM292.4 24.55V28.55H293.4V24.55H292.4ZM292.9 29.05H297.5V28.05H292.9V29.05ZM297 28.55V31.75H298V28.55H297ZM297.5 31.25H291.4V32.25H297.5V31.25ZM290.9 31.75V35.85H291.9V31.75H290.9ZM291.4 36.35H297.5V35.35H291.4V36.35ZM297 35.85V39.25H298V35.85H297ZM297.5 38.75H292.55V39.75H297.5V38.75ZM292.05 39.25V43.25H293.05V39.25H292.05ZM292.55 43.75H296.35V42.75H292.55V43.75ZM295.904 43.0236C294.339 46.105 292.137 48.7498 289.289 51.0083L289.911 51.7917C292.863 49.4502 295.161 46.695 296.796 43.4764L295.904 43.0236ZM289.986 51.0826C288.826 49.6706 287.514 48.206 285.998 46.7405L285.302 47.4595C286.786 48.894 288.074 50.3294 289.214 51.7174L289.986 51.0826ZM285.299 46.7434L282.349 49.6434L283.051 50.3566L286.001 47.4566L285.299 46.7434ZM282.335 50.3414C284.464 52.6191 286.09 54.7897 287.268 56.8026L288.132 56.2974C286.91 54.2103 285.236 51.9809 283.065 49.6586L282.335 50.3414ZM288.049 56.9078L290.149 54.8578L289.451 54.1422L287.351 56.1922L288.049 56.9078ZM289.374 54.7615L290.724 56.9615L291.576 56.4385L290.226 54.2385L289.374 54.7615ZM291.493 57.0639C294.139 54.5701 296.273 51.6213 297.947 48.2736L297.053 47.8264C295.427 51.0787 293.361 53.9299 290.807 56.3361L291.493 57.0639ZM297 48.05V58.1H298V48.05H297ZM297.5 58.6H301.9V57.6H297.5V58.6ZM302.4 58.1V43.25H301.4V58.1H302.4ZM301.9 43.75H304.45V42.75H301.9V43.75ZM303.95 43.25V58.1H304.95V43.25H303.95ZM304.45 58.6H308.95V57.6H304.45V58.6ZM309.45 58.1V48.05H308.45V58.1H309.45ZM308.503 48.2736C310.029 51.3257 312.111 54.1676 314.693 56.8001L315.407 56.0999C312.889 53.5324 310.871 50.7743 309.397 47.8264L308.503 48.2736ZM315.439 56.7646L318.839 52.5646L318.061 51.9354L314.661 56.1354L315.439 56.7646ZM318.729 51.8348C314.829 49.2186 311.991 46.2737 310.188 43.0083L309.312 43.4917C311.209 46.9263 314.171 49.9814 318.171 52.6652L318.729 51.8348ZM309.75 43.75H315.55V42.75H309.75V43.75ZM304.45 24.05H301.9V25.05H304.45V24.05ZM302.4 24.55V21.8H301.4V24.55H302.4ZM301.9 22.3H304.45V21.3H301.9V22.3ZM303.95 21.8V24.55H304.95V21.8H303.95ZM301.9 29.05H304.45V28.05H301.9V29.05ZM303.95 28.55V31.75H304.95V28.55H303.95ZM304.45 31.25H301.9V32.25H304.45V31.25ZM302.4 31.75V28.55H301.4V31.75H302.4ZM308.95 29.05H311.25V28.05H308.95V29.05ZM310.75 28.55V31.75H311.75V28.55H310.75ZM311.25 31.25H308.95V32.25H311.25V31.25ZM309.45 31.75V28.55H308.45V31.75H309.45ZM301.9 36.35H304.45V35.35H301.9V36.35ZM303.95 35.85V39.25H304.95V35.85H303.95ZM304.45 38.75H301.9V39.75H304.45V38.75ZM302.4 39.25V35.85H301.4V39.25H302.4ZM308.95 36.35H311.25V35.35H308.95V36.35ZM310.75 35.85V39.25H311.75V35.85H310.75ZM311.25 38.75H308.95V39.75H311.25V38.75ZM309.45 39.25V35.85H308.45V39.25H309.45ZM290.15 13.4H273.45V14.4H290.15V13.4ZM272.95 13.9V45.9H273.95V13.9H272.95ZM273.45 46.4H278.05V45.4H273.45V46.4ZM278.55 45.9V18.7H277.55V45.9H278.55ZM278.05 19.2H285.65V18.2H278.05V19.2ZM285.15 18.7V45.05H286.15V18.7H285.15ZM285.65 45.55H290.15V44.55H285.65V45.55ZM290.65 45.05V13.9H289.65V45.05H290.65ZM279.35 21.35V37.65H280.35V21.35H279.35ZM279.35 37.6326C279.201 41.9009 278.606 45.2863 277.537 47.9114L278.463 48.2886C279.594 45.5137 280.199 41.9991 280.35 37.6674L279.35 37.6326ZM277.544 47.8952C276.503 50.2128 274.452 52.1926 271.363 53.86L271.837 54.74C275.048 53.0074 277.297 50.8872 278.456 48.3048L277.544 47.8952ZM271.178 54.5678L273.778 58.6678L274.622 58.1322L272.022 54.0322L271.178 54.5678ZM274.426 58.8459C277.866 57.1003 280.352 54.6218 281.854 51.3591L280.946 50.9409C279.548 53.9782 277.234 56.2997 273.974 57.9541L274.426 58.8459ZM281.855 51.3574C283.443 47.8738 284.299 43.3001 284.45 37.6634L283.45 37.6366C283.301 43.1999 282.457 47.6262 280.945 50.9426L281.855 51.3574ZM284.45 37.65V21.35H283.45V37.65H284.45ZM283.95 20.85H279.85V21.85H283.95V20.85ZM338.55 17.3V16.8H338.05V17.3H338.55ZM337.2 46.8L336.806 46.4918L337.2 46.8ZM327.6 41.3H328.1V40.8H327.6V41.3ZM321.75 41.3V40.8H321.25V41.3H321.75ZM324.6 50.7L324.967 50.3604L324.963 50.3556L324.6 50.7ZM341.85 50.55L342.221 50.8855L342.226 50.8797L342.231 50.8738L341.85 50.55ZM344.4 17.3H344.9V16.8H344.4V17.3ZM338.05 17.3V41.25H339.05V17.3H338.05ZM338.05 41.25C338.05 43.763 337.602 45.4746 336.806 46.4918L337.594 47.1082C338.598 45.8254 339.05 43.837 339.05 41.25H338.05ZM336.806 46.4918C336.029 47.4851 334.748 48.05 332.9 48.05V49.05C334.952 49.05 336.571 48.4148 337.594 47.1082L336.806 46.4918ZM332.9 48.05C331.222 48.05 330.057 47.5691 329.298 46.6865C328.527 45.7894 328.1 44.3907 328.1 42.4H327.1C327.1 44.5093 327.548 46.1856 328.54 47.3385C329.543 48.5059 331.028 49.05 332.9 49.05V48.05ZM328.1 42.4V41.3H327.1V42.4H328.1ZM327.6 40.8H321.75V41.8H327.6V40.8ZM321.25 41.3V42.45H322.25V41.3H321.25ZM321.25 42.45C321.25 46.0423 322.227 48.9283 324.238 51.0444L324.963 50.3556C323.173 48.4717 322.25 45.8577 322.25 42.45H321.25ZM324.233 51.0395C326.206 53.1726 329.109 54.2 332.8 54.2V53.2C329.291 53.2 326.694 52.2275 324.967 50.3605L324.233 51.0395ZM332.8 54.2C337.026 54.2 340.189 53.1306 342.221 50.8855L341.479 50.2145C339.711 52.1694 336.874 53.2 332.8 53.2V54.2ZM342.231 50.8738C344.04 48.7456 344.9 45.6072 344.9 41.45H343.9C343.9 45.4929 343.06 48.3544 341.469 50.2262L342.231 50.8738ZM344.9 41.45V17.3H343.9V41.45H344.9ZM344.4 16.8H338.55V17.8H344.4V16.8ZM355.504 19.2L355.782 19.6161L355.791 19.6096L355.504 19.2ZM355.604 33.85L355.347 34.2788L355.356 34.2841L355.604 33.85ZM363.804 36.85L363.653 37.3265L363.659 37.3284L363.804 36.85ZM371.804 47.25L372.051 47.6851L372.062 47.6787L371.804 47.25ZM359.104 47L358.806 47.4016L358.814 47.4069L359.104 47ZM356.204 41.2L356.699 41.1267L356.636 40.7H356.204V41.2ZM350.404 41.2V40.7H349.876L349.905 41.2274L350.404 41.2ZM355.304 51.15L355.018 51.5596L355.019 51.5608L355.304 51.15ZM376.204 50.95L376.496 51.3558L376.502 51.3519L376.204 50.95ZM375.304 35.65L375.561 35.2206L375.552 35.2159L375.304 35.65ZM365.954 32.15L365.803 32.6265L365.807 32.6277L365.954 32.15ZM359.854 29.95L360.09 29.5088L360.088 29.5081L359.854 29.95ZM359.554 22.6L359.778 23.0472L359.785 23.0435L359.792 23.0396L359.554 22.6ZM370.604 23.1L370.299 23.4964L370.309 23.5037L370.604 23.1ZM373.354 27.85L372.867 27.9608L372.955 28.35H373.354V27.85ZM379.154 27.85V28.35H379.701L379.652 27.8053L379.154 27.85ZM374.854 19.2L374.556 19.601L374.557 19.6019L374.854 19.2ZM365.004 16.1C361.081 16.1 357.823 16.9669 355.218 18.7904L355.791 19.6096C358.186 17.9331 361.228 17.1 365.004 17.1V16.1ZM355.227 18.784C352.387 20.6775 351.004 23.3343 351.004 26.65H352.004C352.004 23.6657 353.222 21.3225 355.782 19.616L355.227 18.784ZM351.004 26.65C351.004 29.9765 352.447 32.5388 355.347 34.2787L355.862 33.4213C353.261 31.8612 352.004 29.6235 352.004 26.65H351.004ZM355.356 34.2841C355.922 34.6074 356.908 35.0199 358.276 35.5196C359.655 36.0231 361.45 36.6255 363.653 37.3265L363.956 36.3735C361.759 35.6745 359.979 35.0769 358.62 34.5804C357.25 34.0801 356.337 33.6926 355.852 33.4159L355.356 34.2841ZM363.659 37.3284C367.625 38.5332 369.877 39.3205 370.531 39.6472L370.978 38.7528C370.231 38.3795 367.884 37.5668 363.95 36.3716L363.659 37.3284ZM370.531 39.6472C372.629 40.6963 373.604 42.0546 373.604 43.7H374.604C374.604 41.5454 373.28 39.9037 370.978 38.7528L370.531 39.6472ZM373.604 43.7C373.604 44.9755 372.944 45.9833 371.547 46.8213L372.062 47.6787C373.665 46.7167 374.604 45.4245 374.604 43.7H373.604ZM371.558 46.815C370.16 47.607 368.156 48.05 365.604 48.05V49.05C368.253 49.05 370.449 48.593 372.051 47.685L371.558 46.815ZM365.604 48.05C362.703 48.05 360.674 47.5066 359.395 46.5931L358.814 47.4069C360.335 48.4934 362.606 49.05 365.604 49.05V48.05ZM359.402 46.5984C358 45.5581 357.089 43.757 356.699 41.1267L355.71 41.2733C356.12 44.043 357.109 46.1419 358.806 47.4016L359.402 46.5984ZM356.204 40.7H350.404V41.7H356.204V40.7ZM349.905 41.2274C350.161 45.8931 351.864 49.3521 355.018 51.5596L355.591 50.7404C352.745 48.7479 351.147 45.6069 350.904 41.1726L349.905 41.2274ZM355.019 51.5608C357.584 53.3408 361.149 54.2 365.604 54.2V53.2C361.26 53.2 357.924 52.3592 355.589 50.7392L355.019 51.5608ZM365.604 54.2C370.216 54.2 373.882 53.238 376.496 51.3558L375.912 50.5442C373.526 52.262 370.092 53.2 365.604 53.2V54.2ZM376.502 51.3519C379.135 49.4036 380.454 46.7016 380.454 43.35H379.454C379.454 46.3984 378.274 48.7964 375.907 50.5481L376.502 51.3519ZM380.454 43.35C380.454 39.8533 378.793 37.1497 375.561 35.2206L375.048 36.0794C378.016 37.8503 379.454 40.2467 379.454 43.35H380.454ZM375.552 35.2159C374.099 34.3851 370.949 33.1714 366.102 31.6723L365.807 32.6277C370.66 34.1286 373.71 35.3149 375.056 36.0841L375.552 35.2159ZM366.106 31.6735C362.792 30.6193 360.791 29.8829 360.09 29.5088L359.619 30.3912C360.418 30.8171 362.516 31.5807 365.803 32.6265L366.106 31.6735ZM360.088 29.5081C358.516 28.6755 357.854 27.577 357.854 26.3H356.854C356.854 28.023 357.793 29.4245 359.62 30.3919L360.088 29.5081ZM357.854 26.3C357.854 25.5189 358.015 24.873 358.323 24.3465C358.63 23.8223 359.102 23.3849 359.778 23.0472L359.331 22.1528C358.506 22.5651 357.878 23.1277 357.46 23.841C357.044 24.552 356.854 25.3811 356.854 26.3H357.854ZM359.792 23.0396C360.884 22.4485 362.485 22.15 364.704 22.15V21.15C362.424 21.15 360.625 21.4515 359.316 22.1604L359.792 23.0396ZM364.704 22.15C367.267 22.15 369.131 22.5976 370.299 23.4963L370.909 22.7037C369.477 21.6024 367.341 21.15 364.704 21.15V22.15ZM370.309 23.5037C371.483 24.3615 372.384 25.8383 372.867 27.9608L373.842 27.7392C373.324 25.4617 372.326 23.7385 370.899 22.6963L370.309 23.5037ZM373.354 28.35H379.154V27.35H373.354V28.35ZM379.652 27.8053C379.293 23.8012 377.794 20.7534 375.152 18.7981L374.557 19.6019C376.914 21.3466 378.316 24.0988 378.656 27.8947L379.652 27.8053ZM375.153 18.799C372.684 16.9607 369.263 16.1 365.004 16.1V17.1C369.146 17.1 372.324 17.9393 374.556 19.601L375.153 18.799ZM383.223 17.3V16.8H382.723V17.3H383.223ZM383.223 22.3H382.723V22.8H383.223V22.3ZM394.923 22.3H395.423V21.8H394.923V22.3ZM394.923 53H394.423V53.5H394.923V53ZM400.773 53V53.5H401.273V53H400.773ZM400.773 22.3V21.8H400.273V22.3H400.773ZM412.473 22.3V22.8H412.973V22.3H412.473ZM412.473 17.3H412.973V16.8H412.473V17.3ZM382.723 17.3V22.3H383.723V17.3H382.723ZM383.223 22.8H394.923V21.8H383.223V22.8ZM394.423 22.3V53H395.423V22.3H394.423ZM394.923 53.5H400.773V52.5H394.923V53.5ZM401.273 53V22.3H400.273V53H401.273ZM400.773 22.8H412.473V21.8H400.773V22.8ZM412.973 22.3V17.3H411.973V22.3H412.973ZM412.473 16.8H383.223V17.8H412.473V16.8Z" fill="white"/>
<path d="M2.8 26.45V31.15H14.55C11.3 33.45 7.05 35.35 1.8 36.8L4.15 41.45C11.65 38.75 17.4 35.3 21.45 31.15H30.2C33.45 35.3 38.7 38.7 45.9 41.3L48.15 36.55C42.95 35.2 38.9 33.4 36 31.15H47.05V26.45H25.05C25.65 25.45 26.15 24.4 26.6 23.3C30.1 23.1 33.55 22.95 36.85 22.75C37.9 23.75 38.85 24.75 39.75 25.75L44.1 22.75C41.5 20.05 37.75 16.85 32.9 13.2L28.9 15.75C30.1 16.7 31.2 17.65 32.3 18.6C27.35 18.9 22.3 19.15 17.2 19.35C19.7 17.55 22.15 15.5 24.55 13.2L19.4 11.45C14.1 16.45 10.05 19.1 7.3 19.4L8.05 23.9C12.6 23.8 17 23.65 21.2 23.5C20.7 24.5 20.15 25.5 19.45 26.45H2.8ZM24.55 31.85C21.6 35.35 16.95 38.15 10.6 40.25L12.9 44.3C20 41.8 25.2 38.5 28.6 34.3L24.55 31.85ZM37.5 39.65C33.4 46.7 23.9 51.75 8.95 54.85L11.95 58.95C27.4 55.7 37.45 49.95 42.05 41.75L37.5 39.65ZM30.9 36.05C25.9 42 18.8 45.7 9.55 47.2L12.45 51.15C21.3 49.55 28.8 45.45 34.95 38.75L30.9 36.05ZM61.75 11.75L59.3 34.65H87.4C87.4 43.3 86.85 48.55 85.75 50.35C84.75 52.05 81.6 52.9 76.4 52.9C75.4 52.9 73.55 52.75 70.95 52.5L72.4 57.25C74.15 57.4 75.85 57.5 77.5 57.5C83.75 57.5 87.85 56.4 89.75 54.3C91.65 52.05 92.65 43.9 92.65 29.8H65.1L65.8 23.15H95.35V18.15H66.3L66.9 12.15L61.75 11.75ZM53.35 41.15V46.15H81.5V41.15H53.35ZM104.65 20.6V25.55H109.9V35.45C107.9 36.15 105.85 36.7 103.85 37.15L105.1 42.3C106.7 41.8 108.3 41.25 109.9 40.65V51.15C109.9 52.45 109.35 53.1 108.3 53.1C107.2 53.1 106.05 53 104.85 52.8L105.95 57.65H110.05C113.35 57.65 115 55.9 115 52.45V38.5C116.3 37.9 117.65 37.25 118.95 36.55V31.45C117.65 32.15 116.3 32.8 115 33.4V25.55H119.15V20.6H115V12H109.9V20.6H104.65ZM136.05 11.6L130.65 12.5C131.25 13.65 131.85 14.9 132.4 16.3H120.65V25.8H125.55V21H143.75V25.8H148.55V16.3H137.55C137.05 14.55 136.55 13 136.05 11.6ZM129 22.35C127.5 25.75 125.1 28.45 121.85 30.45L125.7 33.8C128.85 31.5 131.4 28.3 133.4 24.1L129 22.35ZM139.55 21.95L135.65 24.4C138.55 27.85 140.8 30.95 142.5 33.75L146.55 30.9C144.9 28.4 142.55 25.4 139.55 21.95ZM122.45 34.85V39.65H136.7C130.9 42.15 126.75 44.6 124.25 46.9C122.35 48.7 121.45 50.5 121.45 52.2C121.55 55.65 123.85 57.4 128.4 57.45H141.6C144.2 57.4 146.15 56.9 147.45 55.9C148.45 55.05 149.3 52.5 149.95 48.25L145 46.65C144.65 49.75 144.25 51.5 143.85 52C143.45 52.55 142.6 52.85 141.4 52.85H128.7C127.6 52.8 127 52.4 127 51.7C127 51 127.45 50.25 128.35 49.35C130.85 46.9 136.8 43.5 146.2 39.2V34.85H122.45ZM160.95 19.2C159.85 25.85 157.75 31.85 154.55 37.25L157.35 41.75C157.95 40.85 158.6 39.85 159.2 38.85V56.55H164.1V53.3H171.55C171.25 53.85 170.9 54.45 170.5 55.05L174.5 58.65C178.6 52.4 180.75 44.1 180.95 33.8V23.45H200.55V18.35H191.2C190.55 15.95 189.9 13.75 189.2 11.85L183.9 12.75C184.7 14.45 185.4 16.35 186.05 18.35H175.75V33.8C175.6 41 174.45 47 172.3 51.75V29.05H163.6C164.6 25.95 165.45 22.7 166.05 19.2H173.6V14.2H156.45V19.2H160.95ZM164.1 48.55V33.85H167.6V48.55H164.1Z" fill="white"/>
<path d="M2.8 26.45V25.7H2.05V26.45H2.8ZM2.8 31.15H2.05V31.9H2.8V31.15ZM14.55 31.15L14.9833 31.7622L16.9081 30.4H14.55V31.15ZM1.8 36.8L1.60033 36.0771L0.717532 36.3209L1.13063 37.1383L1.8 36.8ZM4.15 41.45L3.48063 41.7883L3.77985 42.3804L4.40404 42.1557L4.15 41.45ZM21.45 31.15V30.4H21.134L20.9132 30.6262L21.45 31.15ZM30.2 31.15L30.7905 30.6876L30.5653 30.4H30.2V31.15ZM45.9 41.3L45.6453 42.0054L46.2861 42.2368L46.5778 41.6211L45.9 41.3ZM48.15 36.55L48.8278 36.8711L49.2159 36.0518L48.3385 35.8241L48.15 36.55ZM36 31.15V30.4H33.8098L35.5403 31.7426L36 31.15ZM47.05 31.15V31.9H47.8V31.15H47.05ZM47.05 26.45H47.8V25.7H47.05V26.45ZM25.05 26.45L24.4069 26.0641L23.7254 27.2H25.05V26.45ZM26.6 23.3L26.5572 22.5512L26.0849 22.5782L25.9058 23.016L26.6 23.3ZM36.85 22.75L37.3672 22.2069L37.1307 21.9816L36.8046 22.0014L36.85 22.75ZM39.75 25.75L39.1925 26.2517L39.6333 26.7415L40.1758 26.3674L39.75 25.75ZM44.1 22.75L44.5258 23.3674L45.2529 22.866L44.6402 22.2298L44.1 22.75ZM32.9 13.2L33.351 12.6007L32.9354 12.288L32.4968 12.5676L32.9 13.2ZM28.9 15.75L28.4968 15.1176L27.6083 15.684L28.4345 16.338L28.9 15.75ZM32.3 18.6L32.3454 19.3486L34.1852 19.2371L32.7902 18.0324L32.3 18.6ZM17.2 19.35L16.7618 18.7413L14.74 20.197L17.2294 20.0994L17.2 19.35ZM24.55 13.2L25.0689 13.7415L25.9604 12.8871L24.7913 12.4899L24.55 13.2ZM19.4 11.45L19.6413 10.7399L19.2138 10.5946L18.8853 10.9045L19.4 11.45ZM7.3 19.4L7.21867 18.6544L6.42974 18.7405L6.5602 19.5233L7.3 19.4ZM8.05 23.9L7.3102 24.0233L7.417 24.6641L8.06648 24.6498L8.05 23.9ZM21.2 23.5L21.8708 23.8354L22.4358 22.7054L21.1732 22.7505L21.2 23.5ZM19.45 26.45V27.2H19.829L20.0538 26.8949L19.45 26.45ZM24.55 31.85L24.9382 31.2083L24.3897 30.8765L23.9765 31.3666L24.55 31.85ZM10.6 40.25L10.3645 39.5379L9.49619 39.8251L9.94783 40.6204L10.6 40.25ZM12.9 44.3L12.2478 44.6704L12.5575 45.2157L13.1491 45.0074L12.9 44.3ZM28.6 34.3L29.1829 34.7719L29.7241 34.1034L28.9882 33.6583L28.6 34.3ZM37.5 39.65L37.8143 38.969L37.1947 38.6831L36.8517 39.273L37.5 39.65ZM8.95 54.85L8.79772 54.1156L7.65647 54.3523L8.34473 55.2929L8.95 54.85ZM11.95 58.95L11.3447 59.3929L11.6306 59.7836L12.1044 59.6839L11.95 58.95ZM42.05 41.75L42.7041 42.1169L43.1012 41.4091L42.3643 41.069L42.05 41.75ZM30.9 36.05L31.316 35.426L30.7576 35.0537L30.3258 35.5675L30.9 36.05ZM9.55 47.2L9.42995 46.4597L8.22008 46.6559L8.94544 47.6439L9.55 47.2ZM12.45 51.15L11.8454 51.5939L12.1226 51.9714L12.5834 51.888L12.45 51.15ZM34.95 38.75L35.5025 39.2572L36.0949 38.6119L35.366 38.126L34.95 38.75ZM2.05 26.45V31.15H3.55V26.45H2.05ZM2.8 31.9H14.55V30.4H2.8V31.9ZM14.1167 30.5378C10.9566 32.7742 6.79255 34.643 1.60033 36.0771L1.99967 37.5229C7.30746 36.057 11.6434 34.1258 14.9833 31.7622L14.1167 30.5378ZM1.13063 37.1383L3.48063 41.7883L4.81938 41.1117L2.46937 36.4617L1.13063 37.1383ZM4.40404 42.1557C11.9759 39.4298 17.8351 35.928 21.9868 31.6738L20.9132 30.6262C16.9649 34.672 11.3241 38.0702 3.89596 40.7443L4.40404 42.1557ZM21.45 31.9H30.2V30.4H21.45V31.9ZM29.6095 31.6124C32.9769 35.9123 38.3687 39.3777 45.6453 42.0054L46.1547 40.5946C39.0314 38.0223 33.9231 34.6877 30.7905 30.6876L29.6095 31.6124ZM46.5778 41.6211L48.8278 36.8711L47.4722 36.2289L45.2222 40.9789L46.5778 41.6211ZM48.3385 35.8241C43.1952 34.4888 39.251 32.7231 36.4597 30.5574L35.5403 31.7426C38.549 34.0769 42.7048 35.9112 47.9615 37.2759L48.3385 35.8241ZM36 31.9H47.05V30.4H36V31.9ZM47.8 31.15V26.45H46.3V31.15H47.8ZM47.05 25.7H25.05V27.2H47.05V25.7ZM25.6931 26.8359C26.3176 25.795 26.8339 24.709 27.2942 23.584L25.9058 23.016C25.4661 24.091 24.9824 25.105 24.4069 26.0641L25.6931 26.8359ZM26.6428 24.0488C30.1185 23.8502 33.6042 23.6981 36.8954 23.4986L36.8046 22.0014C33.4958 22.2019 30.0815 22.3498 26.5572 22.5512L26.6428 24.0488ZM36.3328 23.2931C37.3654 24.2766 38.3018 25.2621 39.1925 26.2517L40.3075 25.2483C39.3982 24.2379 38.4346 23.2234 37.3672 22.2069L36.3328 23.2931ZM40.1758 26.3674L44.5258 23.3674L43.6742 22.1326L39.3242 25.1326L40.1758 26.3674ZM44.6402 22.2298C42.0012 19.4892 38.2162 16.2622 33.351 12.6007L32.449 13.7993C37.2838 17.4378 40.9988 20.6108 43.5598 23.2702L44.6402 22.2298ZM32.4968 12.5676L28.4968 15.1176L29.3032 16.3824L33.3032 13.8324L32.4968 12.5676ZM28.4345 16.338C29.62 17.2766 30.7082 18.2163 31.8098 19.1676L32.7902 18.0324C31.6918 17.0837 30.58 16.1234 29.3655 15.162L28.4345 16.338ZM32.2546 17.8514C27.3102 18.151 22.2656 18.4008 17.1706 18.6006L17.2294 20.0994C22.3344 19.8992 27.3898 19.649 32.3454 19.3486L32.2546 17.8514ZM17.6382 19.9586C20.1688 18.1366 22.6456 16.0638 25.0689 13.7415L24.0311 12.6585C21.6544 14.9361 19.2312 16.9634 16.7618 18.7413L17.6382 19.9586ZM24.7913 12.4899L19.6413 10.7399L19.1587 12.1601L24.3087 13.9101L24.7913 12.4899ZM18.8853 10.9045C16.2532 13.3876 13.951 15.2683 11.9822 16.5605C9.9993 17.862 8.4184 18.5235 7.21867 18.6544L7.38134 20.1456C8.9316 19.9765 10.7507 19.163 12.8053 17.8145C14.874 16.4567 17.2468 14.5124 19.9147 11.9955L18.8853 10.9045ZM6.5602 19.5233L7.3102 24.0233L8.7898 23.7767L8.0398 19.2767L6.5602 19.5233ZM8.06648 24.6498C12.6219 24.5497 17.0263 24.3995 21.2268 24.2495L21.1732 22.7505C16.9737 22.9005 12.5781 23.0503 8.03352 23.1502L8.06648 24.6498ZM20.5292 23.1646C20.0372 24.1486 19.5093 25.1051 18.8462 26.0051L20.0538 26.8949C20.7907 25.8949 21.3628 24.8514 21.8708 23.8354L20.5292 23.1646ZM19.45 25.7H2.8V27.2H19.45V25.7ZM23.9765 31.3666C21.148 34.7225 16.64 37.4626 10.3645 39.5379L10.8355 40.9621C17.26 38.8374 22.052 35.9775 25.1235 32.3334L23.9765 31.3666ZM9.94783 40.6204L12.2478 44.6704L13.5522 43.9296L11.2522 39.8796L9.94783 40.6204ZM13.1491 45.0074C20.3294 42.4792 25.667 39.1151 29.1829 34.7719L28.0171 33.8281C24.733 37.8849 19.6706 41.1208 12.6509 43.5926L13.1491 45.0074ZM28.9882 33.6583L24.9382 31.2083L24.1618 32.4917L28.2118 34.9417L28.9882 33.6583ZM36.8517 39.273C32.9217 46.0306 23.7056 51.0244 8.79772 54.1156L9.10228 55.5844C24.0944 52.4756 33.8783 47.3694 38.1483 40.027L36.8517 39.273ZM8.34473 55.2929L11.3447 59.3929L12.5553 58.5071L9.55527 54.4071L8.34473 55.2929ZM12.1044 59.6839C27.6283 56.4184 37.9448 50.601 42.7041 42.1169L41.3959 41.3831C36.9552 49.299 27.1717 54.9816 11.7956 58.2161L12.1044 59.6839ZM42.3643 41.069L37.8143 38.969L37.1857 40.331L41.7357 42.431L42.3643 41.069ZM30.3258 35.5675C25.4645 41.3525 18.5415 44.9821 9.42995 46.4597L9.67005 47.9403C19.0585 46.4179 26.3355 42.6475 31.4742 36.5325L30.3258 35.5675ZM8.94544 47.6439L11.8454 51.5939L13.0546 50.7061L10.1546 46.7561L8.94544 47.6439ZM12.5834 51.888C21.5939 50.259 29.2413 46.0783 35.5025 39.2572L34.3975 38.2428C28.3587 44.8217 21.0061 48.841 12.3166 50.412L12.5834 51.888ZM35.366 38.126L31.316 35.426L30.484 36.674L34.534 39.374L35.366 38.126ZM61.75 11.75L61.8081 11.0022L61.0818 10.9458L61.0043 11.6702L61.75 11.75ZM59.3 34.65L58.5543 34.5702L58.4655 35.4H59.3V34.65ZM87.4 34.65H88.15V33.9H87.4V34.65ZM85.75 50.35L85.1099 49.9589L85.1036 49.9697L85.75 50.35ZM70.95 52.5L71.0218 51.7534L69.9052 51.6461L70.2327 52.719L70.95 52.5ZM72.4 57.25L71.6827 57.469L71.8307 57.954L72.336 57.9973L72.4 57.25ZM89.75 54.3L90.3062 54.8032L90.3148 54.7937L90.323 54.7839L89.75 54.3ZM92.65 29.8H93.4V29.05H92.65V29.8ZM65.1 29.8L64.3541 29.7215L64.2669 30.55H65.1V29.8ZM65.8 23.15V22.4H65.1248L65.0541 23.0715L65.8 23.15ZM95.35 23.15V23.9H96.1V23.15H95.35ZM95.35 18.15H96.1V17.4H95.35V18.15ZM66.3 18.15L65.5537 18.0754L65.4713 18.9H66.3V18.15ZM66.9 12.15L67.6463 12.2246L67.7226 11.4616L66.9581 11.4023L66.9 12.15ZM53.35 41.15V40.4H52.6V41.15H53.35ZM53.35 46.15H52.6V46.9H53.35V46.15ZM81.5 46.15V46.9H82.25V46.15H81.5ZM81.5 41.15H82.25V40.4H81.5V41.15ZM61.0043 11.6702L58.5543 34.5702L60.0457 34.7298L62.4957 11.8298L61.0043 11.6702ZM59.3 35.4H87.4V33.9H59.3V35.4ZM86.65 34.65C86.65 38.9632 86.5127 42.4088 86.2416 44.9904C86.106 46.2813 85.9383 47.3433 85.7416 48.1828C85.5425 49.0329 85.324 49.6087 85.11 49.9589L86.39 50.7411C86.726 50.1912 86.9887 49.4359 87.2021 48.525C87.4179 47.6036 87.594 46.4749 87.7334 45.1471C88.0123 42.4912 88.15 38.9868 88.15 34.65H86.65ZM85.1036 49.9697C84.7508 50.5695 83.9435 51.1334 82.4532 51.5388C80.9816 51.939 78.9686 52.15 76.4 52.15V53.65C79.0314 53.65 81.1934 53.436 82.8468 52.9862C84.4815 52.5416 85.7492 51.8305 86.3965 50.7303L85.1036 49.9697ZM76.4 52.15C75.4435 52.15 73.6328 52.0045 71.0218 51.7534L70.8782 53.2466C73.4672 53.4955 75.3565 53.65 76.4 53.65V52.15ZM70.2327 52.719L71.6827 57.469L73.1173 57.031L71.6673 52.281L70.2327 52.719ZM72.336 57.9973C74.0977 58.1483 75.8208 58.25 77.5 58.25V56.75C75.8792 56.75 74.2023 56.6517 72.4641 56.5027L72.336 57.9973ZM77.5 58.25C80.6631 58.25 83.3199 57.9723 85.447 57.4128C87.5679 56.855 89.2222 56.0013 90.3062 54.8032L89.1938 53.7968C88.3778 54.6987 87.0321 55.445 85.0655 55.9622C83.1051 56.4777 80.5869 56.75 77.5 56.75V58.25ZM90.323 54.7839C90.9037 54.0962 91.3576 53.0388 91.7274 51.706C92.1022 50.3552 92.411 48.644 92.6572 46.5827C93.1498 42.4588 93.4 36.8627 93.4 29.8H91.9C91.9 36.8373 91.6502 42.3662 91.1678 46.4048C90.9265 48.4247 90.6291 50.0542 90.282 51.3049C89.9299 52.5737 89.5463 53.3788 89.177 53.8161L90.323 54.7839ZM92.65 29.05H65.1V30.55H92.65V29.05ZM65.8459 29.8785L66.5459 23.2285L65.0541 23.0715L64.3541 29.7215L65.8459 29.8785ZM65.8 23.9H95.35V22.4H65.8V23.9ZM96.1 23.15V18.15H94.6V23.15H96.1ZM95.35 17.4H66.3V18.9H95.35V17.4ZM67.0463 18.2246L67.6463 12.2246L66.1537 12.0754L65.5537 18.0754L67.0463 18.2246ZM66.9581 11.4023L61.8081 11.0022L61.6919 12.4977L66.8419 12.8977L66.9581 11.4023ZM52.6 41.15V46.15H54.1V41.15H52.6ZM53.35 46.9H81.5V45.4H53.35V46.9ZM82.25 46.15V41.15H80.75V46.15H82.25ZM81.5 40.4H53.35V41.9H81.5V40.4ZM104.65 20.6V19.85H103.9V20.6H104.65ZM104.65 25.55H103.9V26.3H104.65V25.55ZM109.9 25.55H110.65V24.8H109.9V25.55ZM109.9 35.45L110.148 36.1579L110.65 35.9821V35.45H109.9ZM103.85 37.15L103.685 36.4183L102.941 36.5857L103.121 37.3269L103.85 37.15ZM105.1 42.3L104.371 42.4769L104.56 43.2545L105.324 43.0159L105.1 42.3ZM109.9 40.65H110.65V39.5677L109.637 39.9478L109.9 40.65ZM104.85 52.8L104.973 52.0602L103.872 51.8766L104.119 52.9659L104.85 52.8ZM105.95 57.65L105.219 57.8159L105.351 58.4H105.95V57.65ZM115 38.5L114.686 37.819L114.25 38.0201V38.5H115ZM118.95 36.55L119.306 37.2104L119.7 36.998V36.55H118.95ZM118.95 31.45H119.7V30.1943L118.594 30.7896L118.95 31.45ZM115 33.4H114.25V34.5722L115.314 34.081L115 33.4ZM115 25.55V24.8H114.25V25.55H115ZM119.15 25.55V26.3H119.9V25.55H119.15ZM119.15 20.6H119.9V19.85H119.15V20.6ZM115 20.6H114.25V21.35H115V20.6ZM115 12H115.75V11.25H115V12ZM109.9 12V11.25H109.15V12H109.9ZM109.9 20.6V21.35H110.65V20.6H109.9ZM136.05 11.6L136.756 11.3477L136.545 10.7571L135.927 10.8602L136.05 11.6ZM130.65 12.5L130.527 11.7602L129.507 11.9302L129.985 12.8469L130.65 12.5ZM132.4 16.3V17.05H133.5L133.098 16.0258L132.4 16.3ZM120.65 16.3V15.55H119.9V16.3H120.65ZM120.65 25.8H119.9V26.55H120.65V25.8ZM125.55 25.8V26.55H126.3V25.8H125.55ZM125.55 21V20.25H124.8V21H125.55ZM143.75 21H144.5V20.25H143.75V21ZM143.75 25.8H143V26.55H143.75V25.8ZM148.55 25.8V26.55H149.3V25.8H148.55ZM148.55 16.3H149.3V15.55H148.55V16.3ZM137.55 16.3L136.829 16.506L136.984 17.05H137.55V16.3ZM129 22.35L129.277 21.6531L128.606 21.386L128.314 22.0473L129 22.35ZM121.85 30.45L121.457 29.8113L120.588 30.346L121.358 31.0158L121.85 30.45ZM125.7 33.8L125.208 34.3658L125.659 34.7585L126.142 34.4057L125.7 33.8ZM133.4 24.1L134.077 24.4224L134.422 23.6992L133.677 23.4031L133.4 24.1ZM139.55 21.95L140.116 21.4579L139.695 20.9734L139.151 21.3149L139.55 21.95ZM135.65 24.4L135.251 23.7649L134.522 24.2232L135.076 24.8826L135.65 24.4ZM142.5 33.75L141.859 34.1392L142.275 34.8252L142.932 34.3634L142.5 33.75ZM146.55 30.9L146.982 31.5134L147.577 31.0944L147.176 30.4869L146.55 30.9ZM122.45 34.85V34.1H121.7V34.85H122.45ZM122.45 39.65H121.7V40.4H122.45V39.65ZM136.7 39.65L136.997 40.3387L136.7 38.9V39.65ZM124.25 46.9L123.742 46.348L123.734 46.3555L124.25 46.9ZM121.45 52.2H120.7V52.2109L120.7 52.2217L121.45 52.2ZM128.4 57.45L128.392 58.2H128.4V57.45ZM141.6 57.45V58.2H141.607L141.614 58.1999L141.6 57.45ZM147.45 55.9L147.907 56.4945L147.922 56.4833L147.936 56.4715L147.45 55.9ZM149.95 48.25L150.691 48.3634L150.788 47.7326L150.181 47.5364L149.95 48.25ZM145 46.65L145.231 45.9364L144.358 45.6542L144.255 46.5659L145 46.65ZM143.85 52L143.264 51.5315L143.254 51.5449L143.243 51.5589L143.85 52ZM128.7 52.85L128.666 53.5992L128.683 53.6H128.7V52.85ZM128.35 49.35L127.825 48.8143L127.82 48.8197L128.35 49.35ZM146.2 39.2L146.512 39.882L146.95 39.6817V39.2H146.2ZM146.2 34.85H146.95V34.1H146.2V34.85ZM103.9 20.6V25.55H105.4V20.6H103.9ZM104.65 26.3H109.9V24.8H104.65V26.3ZM109.15 25.55V35.45H110.65V25.55H109.15ZM109.652 34.7421C107.687 35.4301 105.666 35.9727 103.685 36.4183L104.015 37.8817C106.034 37.4273 108.113 36.8699 110.148 36.1579L109.652 34.7421ZM103.121 37.3269L104.371 42.4769L105.829 42.1231L104.579 36.9731L103.121 37.3269ZM105.324 43.0159C106.937 42.5116 108.551 41.9571 110.163 41.3522L109.637 39.9478C108.049 40.5429 106.463 41.0884 104.876 41.5841L105.324 43.0159ZM109.15 40.65V51.15H110.65V40.65H109.15ZM109.15 51.15C109.15 51.7116 109.029 51.998 108.916 52.1346C108.825 52.2449 108.663 52.35 108.3 52.35V53.85C108.987 53.85 109.625 53.6301 110.072 53.0904C110.496 52.577 110.65 51.8884 110.65 51.15H109.15ZM108.3 52.35C107.245 52.35 106.137 52.2541 104.973 52.0602L104.727 53.5398C105.963 53.7459 107.155 53.85 108.3 53.85V52.35ZM104.119 52.9659L105.219 57.8159L106.681 57.4841L105.581 52.6341L104.119 52.9659ZM105.95 58.4H110.05V56.9H105.95V58.4ZM110.05 58.4C111.827 58.4 113.294 57.9267 114.306 56.8602C115.312 55.8009 115.75 54.2825 115.75 52.45H114.25C114.25 54.0675 113.863 55.1491 113.219 55.8273C112.581 56.4983 111.573 56.9 110.05 56.9V58.4ZM115.75 52.45V38.5H114.25V52.45H115.75ZM115.314 39.181C116.621 38.5778 117.986 37.9206 119.306 37.2104L118.594 35.8896C117.314 36.5794 115.979 37.2222 114.686 37.819L115.314 39.181ZM119.7 36.55V31.45H118.2V36.55H119.7ZM118.594 30.7896C117.314 31.4794 115.979 32.1222 114.686 32.719L115.314 34.081C116.621 33.4778 117.986 32.8206 119.306 32.1104L118.594 30.7896ZM115.75 33.4V25.55H114.25V33.4H115.75ZM115 26.3H119.15V24.8H115V26.3ZM119.9 25.55V20.6H118.4V25.55H119.9ZM119.15 19.85H115V21.35H119.15V19.85ZM115.75 20.6V12H114.25V20.6H115.75ZM115 11.25H109.9V12.75H115V11.25ZM109.15 12V20.6H110.65V12H109.15ZM109.9 19.85H104.65V21.35H109.9V19.85ZM135.927 10.8602L130.527 11.7602L130.773 13.2398L136.173 12.3398L135.927 10.8602ZM129.985 12.8469C130.577 13.9809 131.164 15.2059 131.702 16.5742L133.098 16.0258C132.536 14.5941 131.923 13.3191 131.315 12.1531L129.985 12.8469ZM132.4 15.55H120.65V17.05H132.4V15.55ZM119.9 16.3V25.8H121.4V16.3H119.9ZM120.65 26.55H125.55V25.05H120.65V26.55ZM126.3 25.8V21H124.8V25.8H126.3ZM125.55 21.75H143.75V20.25H125.55V21.75ZM143 21V25.8H144.5V21H143ZM143.75 26.55H148.55V25.05H143.75V26.55ZM149.3 25.8V16.3H147.8V25.8H149.3ZM148.55 15.55H137.55V17.05H148.55V15.55ZM138.271 16.094C137.767 14.3293 137.262 12.7639 136.756 11.3477L135.344 11.8522C135.838 13.2361 136.333 14.7707 136.829 16.506L138.271 16.094ZM128.314 22.0473C126.878 25.3018 124.583 27.8872 121.457 29.8113L122.243 31.0887C125.617 29.0128 128.122 26.1982 129.686 22.6527L128.314 22.0473ZM121.358 31.0158L125.208 34.3658L126.192 33.2342L122.342 29.8842L121.358 31.0158ZM126.142 34.4057C129.41 32.0201 132.033 28.7147 134.077 24.4224L132.723 23.7775C130.767 27.8853 128.29 30.9799 125.258 33.1943L126.142 34.4057ZM133.677 23.4031L129.277 21.6531L128.723 23.0469L133.123 24.7969L133.677 23.4031ZM139.151 21.3149L135.251 23.7649L136.049 25.0351L139.949 22.5851L139.151 21.3149ZM135.076 24.8826C137.957 28.3104 140.183 31.3792 141.859 34.1392L143.141 33.3608C141.417 30.5208 139.143 27.3896 136.224 23.9174L135.076 24.8826ZM142.932 34.3634L146.982 31.5134L146.118 30.2866L142.068 33.1366L142.932 34.3634ZM147.176 30.4869C145.501 27.9485 143.127 24.9208 140.116 21.4579L138.984 22.4421C141.973 25.8792 144.299 28.8515 145.924 31.3131L147.176 30.4869ZM121.7 34.85V39.65H123.2V34.85H121.7ZM122.45 40.4H136.7V38.9H122.45V40.4ZM136.403 38.9613C130.575 41.4734 126.334 43.9633 123.742 46.3481L124.758 47.4519C127.166 45.2367 131.225 42.8266 136.997 40.3387L136.403 38.9613ZM123.734 46.3555C121.748 48.2369 120.7 50.2203 120.7 52.2H122.2C122.2 50.7797 122.952 49.1631 124.766 47.4445L123.734 46.3555ZM120.7 52.2217C120.755 54.1246 121.43 55.6587 122.804 56.6981C124.142 57.711 126.041 58.1741 128.392 58.2L128.408 56.7C126.209 56.6759 124.683 56.239 123.709 55.5019C122.77 54.7913 122.245 53.7253 122.2 52.1783L120.7 52.2217ZM128.4 58.2H141.6V56.7H128.4V58.2ZM141.614 58.1999C144.28 58.1486 146.421 57.6376 147.907 56.4945L146.993 55.3055C145.879 56.1624 144.12 56.6514 141.586 56.7001L141.614 58.1999ZM147.936 56.4715C148.603 55.904 149.118 54.8809 149.544 53.584C149.981 52.2541 150.363 50.5092 150.691 48.3634L149.209 48.1366C148.887 50.2408 148.519 51.8959 148.119 53.116C147.707 54.3691 147.297 55.046 146.964 55.3285L147.936 56.4715ZM150.181 47.5364L145.231 45.9364L144.769 47.3636L149.719 48.9636L150.181 47.5364ZM144.255 46.5659C144.081 48.1036 143.897 49.2879 143.711 50.14C143.618 50.5665 143.527 50.8969 143.442 51.1408C143.351 51.3989 143.284 51.5063 143.264 51.5315L144.436 52.4685C144.616 52.2437 144.749 51.9449 144.857 51.6373C144.97 51.3156 145.076 50.921 145.176 50.46C145.378 49.5371 145.569 48.2964 145.745 46.7341L144.255 46.5659ZM143.243 51.5589C143.062 51.8084 142.532 52.1 141.4 52.1V53.6C142.668 53.6 143.838 53.2916 144.457 52.4411L143.243 51.5589ZM141.4 52.1H128.7V53.6H141.4V52.1ZM128.734 52.1008C128.25 52.0788 127.982 51.9815 127.857 51.8968C127.772 51.8399 127.75 51.796 127.75 51.7H126.25C126.25 52.304 126.528 52.8101 127.018 53.1407C127.468 53.4435 128.05 53.5712 128.666 53.5992L128.734 52.1008ZM127.75 51.7C127.75 51.3196 128.003 50.7579 128.88 49.8803L127.82 48.8197C126.897 49.7421 126.25 50.6804 126.25 51.7H127.75ZM128.875 49.8857C130.054 48.7304 132.098 47.3063 135.059 45.6205C138.008 43.9416 141.823 42.0268 146.512 39.882L145.888 38.518C141.177 40.6732 137.317 42.6084 134.316 44.317C131.327 46.0187 129.146 47.5196 127.825 48.8143L128.875 49.8857ZM146.95 39.2V34.85H145.45V39.2H146.95ZM146.2 34.1H122.45V35.6H146.2V34.1ZM160.95 19.2L161.69 19.3224L161.834 18.45H160.95V19.2ZM154.55 37.25L153.905 36.8676L153.673 37.2595L153.913 37.6462L154.55 37.25ZM157.35 41.75L156.713 42.1462L157.328 43.1347L157.974 42.166L157.35 41.75ZM159.2 38.85H159.95V36.1423L158.557 38.4641L159.2 38.85ZM159.2 56.55H158.45V57.3H159.2V56.55ZM164.1 56.55V57.3H164.85V56.55H164.1ZM164.1 53.3V52.55H163.35V53.3H164.1ZM171.55 53.3L172.208 53.6591L172.813 52.55H171.55V53.3ZM170.5 55.05L169.876 54.634L169.516 55.1736L169.998 55.6075L170.5 55.05ZM174.5 58.65L173.998 59.2075L174.648 59.792L175.127 59.0614L174.5 58.65ZM180.95 33.8L181.7 33.8146L181.7 33.8073V33.8H180.95ZM180.95 23.45V22.7H180.2V23.45H180.95ZM200.55 23.45V24.2H201.3V23.45H200.55ZM200.55 18.35H201.3V17.6H200.55V18.35ZM191.2 18.35L190.476 18.5461L190.626 19.1H191.2V18.35ZM189.2 11.85L189.904 11.5907L189.688 11.0063L189.074 11.1106L189.2 11.85ZM183.9 12.75L183.774 12.0106L182.801 12.1759L183.221 13.0693L183.9 12.75ZM186.05 18.35V19.1H187.082L186.763 18.1182L186.05 18.35ZM175.75 18.35V17.6H175V18.35H175.75ZM175.75 33.8L176.5 33.8156L176.5 33.8078V33.8H175.75ZM172.3 51.75H171.55L172.983 52.0593L172.3 51.75ZM172.3 29.05H173.05V28.3H172.3V29.05ZM163.6 29.05L162.886 28.8197L162.57 29.8H163.6V29.05ZM166.05 19.2V18.45H165.418L165.311 19.0733L166.05 19.2ZM173.6 19.2V19.95H174.35V19.2H173.6ZM173.6 14.2H174.35V13.45H173.6V14.2ZM156.45 14.2V13.45H155.7V14.2H156.45ZM156.45 19.2H155.7V19.95H156.45V19.2ZM164.1 48.55H163.35V49.3H164.1V48.55ZM164.1 33.85V33.1H163.35V33.85H164.1ZM167.6 33.85H168.35V33.1H167.6V33.85ZM167.6 48.55V49.3H168.35V48.55H167.6ZM160.21 19.0776C159.124 25.6458 157.052 31.556 153.905 36.8676L155.195 37.6324C158.448 32.144 160.576 26.0542 161.69 19.3224L160.21 19.0776ZM153.913 37.6462L156.713 42.1462L157.987 41.3538L155.187 36.8538L153.913 37.6462ZM157.974 42.166C158.577 41.2616 159.234 40.2505 159.843 39.2359L158.557 38.4641C157.966 39.4495 157.323 40.4384 156.726 41.334L157.974 42.166ZM158.45 38.85V56.55H159.95V38.85H158.45ZM159.2 57.3H164.1V55.8H159.2V57.3ZM164.85 56.55V53.3H163.35V56.55H164.85ZM164.1 54.05H171.55V52.55H164.1V54.05ZM170.892 52.9409C170.599 53.4774 170.26 54.0574 169.876 54.634L171.124 55.466C171.54 54.8426 171.901 54.2226 172.208 53.6591L170.892 52.9409ZM169.998 55.6075L173.998 59.2075L175.002 58.0925L171.002 54.4925L169.998 55.6075ZM175.127 59.0614C179.329 52.6564 181.498 44.2039 181.7 33.8146L180.2 33.7854C180.002 43.9961 177.871 52.1436 173.873 58.2386L175.127 59.0614ZM181.7 33.8V23.45H180.2V33.8H181.7ZM180.95 24.2H200.55V22.7H180.95V24.2ZM201.3 23.45V18.35H199.8V23.45H201.3ZM200.55 17.6H191.2V19.1H200.55V17.6ZM191.924 18.1539C191.272 15.7471 190.615 13.5219 189.904 11.5907L188.496 12.1093C189.185 13.978 189.828 16.1529 190.476 18.5461L191.924 18.1539ZM189.074 11.1106L183.774 12.0106L184.026 13.4894L189.326 12.5894L189.074 11.1106ZM183.221 13.0693C184.003 14.7297 184.692 16.597 185.337 18.5818L186.763 18.1182C186.108 16.103 185.397 14.1703 184.579 12.4306L183.221 13.0693ZM186.05 17.6H175.75V19.1H186.05V17.6ZM175 18.35V33.8H176.5V18.35H175ZM175 33.7844C174.852 40.9196 173.712 46.8115 171.617 51.4407L172.983 52.0593C175.188 47.1885 176.348 41.0804 176.5 33.8156L175 33.7844ZM173.05 51.75V29.05H171.55V51.75H173.05ZM172.3 28.3H163.6V29.8H172.3V28.3ZM164.314 29.2803C165.323 26.1522 166.182 22.8673 166.789 19.3267L165.311 19.0733C164.718 22.5327 163.877 25.7478 162.886 28.8197L164.314 29.2803ZM166.05 19.95H173.6V18.45H166.05V19.95ZM174.35 19.2V14.2H172.85V19.2H174.35ZM173.6 13.45H156.45V14.95H173.6V13.45ZM155.7 14.2V19.2H157.2V14.2H155.7ZM156.45 19.95H160.95V18.45H156.45V19.95ZM164.85 48.55V33.85H163.35V48.55H164.85ZM164.1 34.6H167.6V33.1H164.1V34.6ZM166.85 33.85V48.55H168.35V33.85H166.85ZM167.6 47.8H164.1V49.3H167.6V47.8Z" fill="white"/>
<path d="M260.348 31.5H266.14V56.5H260.348V31.5Z" fill="url(#paint0_linear)"/>
<path d="M285.154 19.1992H290.653V32.5H285.154V19.1992Z" fill="url(#paint1_linear)"/>
<path d="M303.949 29.0469H309.449V54.0469H303.949V29.0469Z" fill="url(#paint2_linear)"/>
<path d="M394.422 22.8047H401.27V48H394.422V22.8047Z" fill="url(#paint3_linear)"/>
<path d="M247.547 39.25H252.703V49.812H247.547V39.25Z" fill="url(#paint4_linear)"/>
<path d="M166.844 34.6016L173.047 34.6016V48L166.844 48V34.6016Z" fill="url(#paint5_linear)"/>
<path d="M109.152 26.293L115.746 26.293V39.3985L109.152 39.3985V26.293Z" fill="url(#paint6_linear)"/>
<path d="M86.6363 35.4141H93.3479C93.3479 35.4141 93.1185 40.5938 93.0002 42C92.882 43.4063 92.4162 48.3984 92.4162 48.3984H85.6631C85.6631 48.3984 86.3509 44.0938 86.5003 42C86.6497 39.9063 86.6363 35.4141 86.6363 35.4141Z" fill="url(#paint7_linear)"/>
<path d="M66.5 23.9024L67.1028 17.3047L80.5 17.4024L80.5 23.9023L66.5 23.9024Z" fill="url(#paint8_linear)"/>
<path d="M12 31.8985H21.7477C21.7477 31.8985 17.3312 35.8802 14 38C10.6688 40.1199 5.5 42 5.5 42L2.5 36C2.5 36 5 35.5 7 34.5C9 33.5 12 31.8985 12 31.8985Z" fill="url(#paint9_linear)"/>
<path d="M133 40.5L147 39.5C147 39.5 138.331 43.3802 135 45.5C131.669 47.6199 128 50.5 128 50.5L123 47C123 47 126.5 44 128.5 43C130.5 42 133 40.5 133 40.5Z" fill="url(#paint10_linear)"/>
<defs>
<linearGradient id="paint0_linear" x1="263.393" y1="30.4456" x2="263.393" y2="55.4111" gradientUnits="userSpaceOnUse">
<stop stop-color="#0813D8"/>
<stop offset="1" stop-color="white" stop-opacity="0"/>
</linearGradient>
<linearGradient id="paint1_linear" x1="288.045" y1="18.6383" x2="288.045" y2="31.9207" gradientUnits="userSpaceOnUse">
<stop stop-color="#0813D8"/>
<stop offset="1" stop-color="white" stop-opacity="0"/>
</linearGradient>
<linearGradient id="paint2_linear" x1="306.841" y1="27.9925" x2="306.841" y2="52.958" gradientUnits="userSpaceOnUse">
<stop stop-color="#0813D8"/>
<stop offset="1" stop-color="white" stop-opacity="0"/>
</linearGradient>
<linearGradient id="paint3_linear" x1="398.022" y1="21.7421" x2="398.022" y2="46.9026" gradientUnits="userSpaceOnUse">
<stop stop-color="#0813D8"/>
<stop offset="1" stop-color="white" stop-opacity="0"/>
</linearGradient>
<linearGradient id="paint4_linear" x1="250.258" y1="38.8046" x2="250.258" y2="49.352" gradientUnits="userSpaceOnUse">
<stop stop-color="#0813D8"/>
<stop offset="1" stop-color="white" stop-opacity="0"/>
</linearGradient>
<linearGradient id="paint5_linear" x1="170.105" y1="34.0365" x2="170.105" y2="47.4164" gradientUnits="userSpaceOnUse">
<stop stop-color="#0813D8"/>
<stop offset="1" stop-color="white" stop-opacity="0"/>
</linearGradient>
<linearGradient id="paint6_linear" x1="112.619" y1="25.7402" x2="112.619" y2="38.8277" gradientUnits="userSpaceOnUse">
<stop stop-color="#0813D8"/>
<stop offset="1" stop-color="white" stop-opacity="0"/>
</linearGradient>
<linearGradient id="paint7_linear" x1="89.7039" y1="34.8665" x2="89.7039" y2="47.8329" gradientUnits="userSpaceOnUse">
<stop stop-color="#0813D8"/>
<stop offset="1" stop-color="white" stop-opacity="0"/>
</linearGradient>
<linearGradient id="paint8_linear" x1="65.9563" y1="20.3796" x2="79.9346" y2="20.5653" gradientUnits="userSpaceOnUse">
<stop stop-color="#0813D8"/>
<stop offset="1" stop-color="white" stop-opacity="0"/>
</linearGradient>
<linearGradient id="paint9_linear" x1="15.5" y1="32" x2="12.5" y2="40.5" gradientUnits="userSpaceOnUse">
<stop stop-color="#0813D8"/>
<stop offset="1" stop-color="white" stop-opacity="0"/>
</linearGradient>
<linearGradient id="paint10_linear" x1="136" y1="40" x2="136.5" y2="46.6016" gradientUnits="userSpaceOnUse">
<stop stop-color="#1822E0"/>
<stop offset="1" stop-color="white" stop-opacity="0"/>
</linearGradient>
</defs>
</svg>
