<svg width="20" height="20" viewBox="0 0 20 20" fill="none" xmlns="http://www.w3.org/2000/svg">
<path d="M7.79998 7.5H8.89998C9.19998 7.5 9.39998 7.3 9.39998 7C9.39998 6.7 9.19998 6.5 8.89998 6.5H7.79998C6.09998 6.5 4.69998 8 4.69998 10C4.69998 11.9 6.09998 13.5 7.79998 13.5H8.89998C9.19998 13.5 9.39998 13.3 9.39998 13C9.39998 12.7 9.19998 12.5 8.89998 12.5H7.79998C6.59998 12.5 5.69998 11.4 5.69998 10C5.69998 8.6 6.69998 7.5 7.79998 7.5ZM14.8 6.5C14.5 6.5 14.3 6.7 14.3 7V11.3L11.4 6.9C11.3 6.7 11.1 6.6 10.9 6.6H10.8C10.5 6.5 10.3 6.8 10.3 7V13C10.3 13.3 10.5 13.5 10.8 13.5C11.1 13.5 11.3 13.3 11.3 13V8.4L14.3 13.1C14.4 13.3 14.5 13.5 14.8 13.5C14.9 13.5 15 13.5 15.1 13.4C15.2 13.3 15.3 13.2 15.3 13V7C15.3 6.8 15.1 6.5 14.8 6.5Z" fill="#0F134F"/>
<path d="M14 3C15.7 3 17 4.3 17 6V14C17 15.7 15.7 17 14 17H6C4.3 17 3 15.7 3 14V6C3 4.3 4.3 3 6 3H14ZM14 2H6C3.8 2 2 3.8 2 6V14C2 16.2 3.8 18 6 18H14C16.2 18 18 16.2 18 14V6C18 3.8 16.2 2 14 2Z" fill="#0F134F"/>
</svg>
