<svg width="20" height="20" viewBox="0 0 20 20" fill="none" xmlns="http://www.w3.org/2000/svg">
<g clip-path="url(#clip0)">
<path d="M13.2 3.2C14.1548 3.2 15.0705 3.57928 15.7456 4.25442C16.4207 4.92955 16.8 5.84522 16.8 6.8V13.2C16.8 14.1548 16.4207 15.0705 15.7456 15.7456C15.0705 16.4207 14.1548 16.8 13.2 16.8H6.8C5.84522 16.8 4.92955 16.4207 4.25442 15.7456C3.57928 15.0705 3.2 14.1548 3.2 13.2V6.8C3.2 5.84522 3.57928 4.92955 4.25442 4.25442C4.92955 3.57928 5.84522 3.2 6.8 3.2H13.2ZM13.2 2H6.8C5.52696 2 4.30606 2.50571 3.40589 3.40589C2.50571 4.30606 2 5.52696 2 6.8L2 13.2C2 14.473 2.50571 15.6939 3.40589 16.5941C4.30606 17.4943 5.52696 18 6.8 18H13.2C14.473 18 15.6939 17.4943 16.5941 16.5941C17.4943 15.6939 18 14.473 18 13.2V6.8C18 5.52696 17.4943 4.30606 16.5941 3.40589C15.6939 2.50571 14.473 2 13.2 2V2Z" fill="#0F134F"/>
<path d="M15.248 10.364V13.428H14.152V10.46C14.152 9.65999 13.776 9.26 13.028 9.26C12.7632 9.25846 12.5085 9.36203 12.32 9.54799C12.0751 9.78979 11.932 10.1161 11.92 10.46V13.448H10.82V8.464H11.916V9.04C12.0936 8.81988 12.3158 8.63992 12.568 8.512C12.8172 8.39067 13.0908 8.32775 13.368 8.328C14.624 8.328 15.248 9.008 15.248 10.364Z" fill="#0F134F"/>
<path d="M7.56 6.822C6.534 6.822 5.751 7.155 5.211 7.839C4.734 8.433 4.5 9.216 4.5 10.17C4.5 11.142 4.725 11.916 5.184 12.492C5.706 13.158 6.507 13.5 7.578 13.5C8.271 13.5 8.865 13.302 9.36 12.906C9.891 12.483 10.224 11.898 10.368 11.142H9.342C9.216 11.628 9 11.997 8.694 12.24C8.406 12.456 8.028 12.573 7.569 12.573C6.867 12.573 6.345 12.348 6.012 11.916C5.706 11.511 5.553 10.926 5.553 10.17C5.553 9.432 5.706 8.856 6.021 8.442C6.363 7.974 6.867 7.749 7.542 7.749C7.992 7.749 8.361 7.839 8.649 8.037C8.946 8.235 9.144 8.541 9.252 8.964H10.278C10.179 8.316 9.9 7.794 9.432 7.416C8.946 7.02 8.316 6.822 7.56 6.822Z" fill="#0F134F" stroke="#0F134F" stroke-width="0.2"/>
</g>
<defs>
<clipPath id="clip0">
<rect width="16" height="16" fill="white" transform="translate(2 2)"/>
</clipPath>
</defs>
</svg>
