<svg width="20" height="20" viewBox="0 0 20 20" fill="none" xmlns="http://www.w3.org/2000/svg">
<g clip-path="url(#clip0)">
<path d="M13.1023 2.09766H13.2C14.4471 2.09766 15.6432 2.59308 16.5251 3.47494C17.4069 4.3568 17.9023 5.55286 17.9023 6.8V13.2C17.9023 14.4471 17.4069 15.6432 16.5251 16.5251C15.6432 17.4069 14.4471 17.9023 13.2 17.9023H6.8C5.55286 17.9023 4.3568 17.4069 3.47494 16.5251C2.59308 15.6432 2.09766 14.4471 2.09766 13.2V6.8C2.09766 5.55286 2.59308 4.3568 3.47494 3.47494C4.3568 2.59308 5.55286 2.09766 6.8 2.09766H13.1023ZM15.8146 4.18536C15.1212 3.49192 14.1807 3.10234 13.2 3.10234H6.8C5.81932 3.10234 4.87881 3.49192 4.18536 4.18536C3.49192 4.87881 3.10234 5.81932 3.10234 6.8V13.2C3.10234 14.1807 3.49192 15.1212 4.18536 15.8146C4.87881 16.5081 5.81932 16.8977 6.8 16.8977H13.2C14.1807 16.8977 15.1212 16.5081 15.8146 15.8146C16.5081 15.1212 16.8977 14.1807 16.8977 13.2V6.8C16.8977 5.81932 16.5081 4.87881 15.8146 4.18536Z" fill="#3D56D6" stroke="#3D56D6" stroke-width="0.195312"/>
<path d="M13.0283 9.16234C12.7377 9.16073 12.4583 9.27441 12.2514 9.47846L12.2514 9.47851C11.9888 9.73782 11.8353 10.0878 11.8224 10.4566L11.8223 10.4566V10.46V13.3503H10.9176V8.56165H11.8183V9.04V9.3166L11.992 9.10131C12.1607 8.89215 12.3718 8.72111 12.6115 8.59945C12.8471 8.48485 13.1058 8.42542 13.3679 8.42565H13.368C13.9789 8.42565 14.4186 8.59065 14.7072 8.90369C14.9972 9.21824 15.1503 9.69913 15.1503 10.364V13.3303H14.2496V10.46C14.2496 10.0464 14.1526 9.71809 13.9417 9.4932C13.7298 9.26719 13.4189 9.16239 13.0283 9.16234ZM13.0283 9.16234C13.0284 9.16234 13.0285 9.16234 13.0286 9.16234L13.028 9.26V9.16234C13.0281 9.16234 13.0282 9.16234 13.0283 9.16234Z" fill="#3D56D6" stroke="#3D56D6" stroke-width="0.195312"/>
<path d="M7.56 6.822C6.534 6.822 5.751 7.155 5.211 7.839C4.734 8.433 4.5 9.216 4.5 10.17C4.5 11.142 4.725 11.916 5.184 12.492C5.706 13.158 6.507 13.5 7.578 13.5C8.271 13.5 8.865 13.302 9.36 12.906C9.891 12.483 10.224 11.898 10.368 11.142H9.342C9.216 11.628 9 11.997 8.694 12.24C8.406 12.456 8.028 12.573 7.569 12.573C6.867 12.573 6.345 12.348 6.012 11.916C5.706 11.511 5.553 10.926 5.553 10.17C5.553 9.432 5.706 8.856 6.021 8.442C6.363 7.974 6.867 7.749 7.542 7.749C7.992 7.749 8.361 7.839 8.649 8.037C8.946 8.235 9.144 8.541 9.252 8.964H10.278C10.179 8.316 9.9 7.794 9.432 7.416C8.946 7.02 8.316 6.822 7.56 6.822Z" fill="#3D56D6" stroke="#3D56D6" stroke-width="0.2"/>
</g>
<defs>
<clipPath id="clip0">
<rect width="16" height="16" fill="white" transform="translate(2 2)"/>
</clipPath>
</defs>
</svg>
