<svg width="12" height="12" viewBox="0 0 12 12" fill="none" xmlns="http://www.w3.org/2000/svg">
<path opacity="0.3" d="M6.92308 6L11.8194 1.13621C12.0602 0.89701 12.0602 0.498339 11.8194 0.219269L11.7793 0.179402C11.5385 -0.0598007 11.1371 -0.0598007 10.8963 0.179402L6 5.08306L1.10368 0.219269C0.862876 -0.0199334 0.461539 -0.0199334 0.220736 0.219269L0.180602 0.259137C-0.0602007 0.498339 -0.0602007 0.89701 0.180602 1.17608L5.07692 6L0.180602 10.8638C-0.0602007 11.103 -0.0602007 11.5017 0.180602 11.7807L0.220736 11.8206C0.461539 12.0598 0.862876 12.0598 1.10368 11.8206L6 6.91694L10.8963 11.7807C11.1371 12.0199 11.5385 12.0199 11.7793 11.7807L11.8194 11.7409C12.0602 11.5017 12.0602 11.103 11.8194 10.8239L6.92308 6Z" fill="black"/>
</svg>
