<svg width="20" height="20" viewBox="0 0 20 20" fill="none" xmlns="http://www.w3.org/2000/svg">
<g clip-path="url(#clip0)">
<path d="M13.2 3.2C14.1548 3.2 15.0705 3.57928 15.7456 4.25442C16.4207 4.92955 16.8 5.84522 16.8 6.8V13.2C16.8 14.1548 16.4207 15.0705 15.7456 15.7456C15.0705 16.4207 14.1548 16.8 13.2 16.8H6.8C5.84522 16.8 4.92955 16.4207 4.25442 15.7456C3.57928 15.0705 3.2 14.1548 3.2 13.2V6.8C3.2 5.84522 3.57928 4.92955 4.25442 4.25442C4.92955 3.57928 5.84522 3.2 6.8 3.2H13.2ZM13.2 2H6.8C5.52696 2 4.30606 2.50571 3.40589 3.40589C2.50571 4.30606 2 5.52696 2 6.8L2 13.2C2 14.473 2.50571 15.6939 3.40589 16.5941C4.30606 17.4943 5.52696 18 6.8 18H13.2C14.473 18 15.6939 17.4943 16.5941 16.5941C17.4943 15.6939 18 14.473 18 13.2V6.8C18 5.52696 17.4943 4.30606 16.5941 3.40589C15.6939 2.50571 14.473 2 13.2 2V2Z" fill="#3D56D6"/>
<path d="M4.75201 6.572H9.69601V7.532H5.87601V9.432H9.47601V10.4H5.87601V12.476H9.87601V13.436H4.75201V6.572ZM15.248 10.364V13.428H14.152V10.46C14.152 9.66 13.776 9.26 13.028 9.26C12.7632 9.25846 12.5086 9.36203 12.32 9.548C12.0752 9.78979 11.932 10.1161 11.92 10.46V13.448H10.82V8.464H11.916V9.04C12.0936 8.81988 12.3158 8.63992 12.568 8.512C12.8172 8.39067 13.0908 8.32775 13.368 8.328C14.624 8.328 15.248 9.008 15.248 10.364V10.364Z" fill="#3D56D6"/>
</g>
<defs>
<clipPath id="clip0">
<rect width="16" height="16" fill="white" transform="translate(2 2)"/>
</clipPath>
</defs>
</svg>
