<svg width="20" height="20" viewBox="0 0 20 20" fill="none" xmlns="http://www.w3.org/2000/svg">
<path fill-rule="evenodd" clip-rule="evenodd" d="M2 10.5C2 15.194 5.80604 19 10.5 19C15.194 19 19 15.194 19 10.5C19 5.80604 15.194 2 10.5 2C5.80604 2 2 5.80604 2 10.5ZM17.8673 10.5C17.8673 14.5698 14.5678 17.8673 10.5 17.8673C6.43215 17.8673 3.1327 14.5678 3.1327 10.5C3.1327 6.43215 6.43215 3.1327 10.5 3.1327C14.5678 3.1327 17.8673 6.43025 17.8673 10.5ZM12.606 6.9862C12.1222 6.54982 11.4942 6.34491 10.7201 6.34491C9.82645 6.34491 9.12445 6.59914 8.61217 7.12092C8.10559 7.62939 7.85134 8.31812 7.85134 9.20037H9.12064C9.12064 8.66913 9.22879 8.25741 9.44699 7.96712C9.68795 7.61612 10.0864 7.44725 10.6309 7.44725C11.0673 7.44725 11.4183 7.56868 11.6593 7.80965C11.8888 8.05059 12.0103 8.37694 12.0103 8.80005C12.0103 9.11499 11.8907 9.4034 11.6725 9.6823L11.4676 9.91187C10.7182 10.5759 10.259 11.073 10.1016 11.4108C9.93271 11.7238 9.8606 12.1109 9.8606 12.5586V12.7635H11.1546V12.5586C11.1546 12.2683 11.2153 12.0008 11.3481 11.7599C11.4582 11.5436 11.627 11.3254 11.8566 11.1319C12.4239 10.6367 12.7635 10.3217 12.8716 10.1889C13.1733 9.80183 13.3308 9.30663 13.3308 8.71467C13.3308 7.98989 13.0898 7.40931 12.606 6.9862ZM11.1451 13.6572C10.9743 13.4883 10.758 13.4162 10.5038 13.4162C10.2609 13.4162 10.0427 13.4883 9.87767 13.6553C9.70882 13.8128 9.62344 14.0177 9.62344 14.2719C9.62344 14.5129 9.70882 14.7197 9.87767 14.8885C10.0465 15.0574 10.2647 15.1428 10.5057 15.1428C10.7467 15.1428 10.9648 15.0593 11.1337 14.9018C11.3026 14.733 11.3993 14.5281 11.3993 14.2738C11.3993 14.0196 11.314 13.8147 11.1451 13.6572Z" fill="#3D56D6"/>
</svg>
