<?xml version="1.0" encoding="UTF-8"?>
<svg width="24px" height="24px" viewBox="0 0 24 24" version="1.1" xmlns="http://www.w3.org/2000/svg" xmlns:xlink="http://www.w3.org/1999/xlink">
    <!-- Generator: Sketch 53.1 (72631) - https://sketchapp.com -->
    <title>English_n</title>
    <desc>Created with Sketch.</desc>
    <g id="Page-1" stroke="none" stroke-width="1" fill="none" fill-rule="evenodd">
        <g id="Artboard" transform="translate(-248.000000, -1962.000000)">
            <g id="图标" transform="translate(0.000000, 1464.000000)">
                <g id="编组-17" transform="translate(81.000000, 381.000000)">
                    <g id="English_n" transform="translate(167.000000, 117.000000)">
                        <rect id="Rectangle" fill="#4850E5" x="0" y="0" width="24" height="24" rx="5"></rect>
                        <g id="语言切换" transform="translate(5.000000, 5.000000)" fill="#FFFFFF" fill-rule="nonzero">
                            <path d="M7.00007827,0 C3.13396621,0 0,3.13396621 0,7.00007827 C0,10.8661903 3.13396621,14 7.00007827,14 C10.8661903,14 14,10.8660338 14,7.00007827 C14,3.13412276 10.8660338,0 7.00007827,0 Z M13.0607494,7.00007827 C13.0616736,7.58064938 12.9789526,8.15832566 12.8151353,8.71530643 L10.4330393,8.71530643 C10.5057185,8.14646165 10.5419015,7.57354699 10.5413662,7.00007827 C10.5418165,6.4240233 10.5052146,5.84853577 10.4317869,5.27717956 L12.8129438,5.27717956 C12.9781927,5.83652521 13.0616588,6.41683397 13.0607494,7.00007827 L13.0607494,7.00007827 Z M7.77777778,12.6971029 C7.51431799,12.9162613 7.25273668,13.0272495 7.00007827,13.0272494 C6.74741986,13.0272494 6.48568201,12.9161048 6.22237876,12.6971029 C5.90397281,12.4320777 5.59621169,12.0183378 5.33322152,11.5004976 C5.06287389,10.9682556 4.84543738,10.3480371 4.68639093,9.65455705 L9.31423523,9.65455705 C9.15518879,10.3480371 8.93853499,10.9684121 8.66740465,11.5004976 C8.40363177,12.0183378 8.09618373,12.4320777 7.77777778,12.6971029 L7.77777778,12.6971029 Z M4.51450807,8.71530643 C4.3586963,7.5745386 4.35901229,6.41786209 4.51544732,5.27717956 L9.48455268,5.27717956 C9.56361877,5.84806086 9.60290109,6.42374826 9.60211555,7.00007827 C9.60288312,7.57382767 9.56391536,8.14694147 9.48549193,8.71530643 L4.51450807,8.71530643 Z M1.18486465,8.71530643 C0.856585403,7.5926579 0.85740037,6.39937864 1.18721277,5.27717956 L3.56789999,5.27717956 C3.42252729,6.41859194 3.4222117,7.5738148 3.56696074,8.71530643 L1.18486465,8.71530643 Z M6.22237876,1.30305368 C6.48568201,1.0838952 6.74726332,0.972750543 7.00007827,0.972750557 C7.25289322,0.97275057 7.51431799,1.08389522 7.77777778,1.30305368 C8.09618373,1.56792234 8.40394486,1.98166224 8.66677848,2.49965896 C8.93618686,3.02955285 9.15299721,3.6474232 9.31188712,4.33792896 L4.68826943,4.33792896 C4.84715932,3.64742321 5.06396967,3.02955286 5.33322152,2.49965896 C5.59652477,1.98166224 5.90397281,1.56792234 6.22237876,1.30305368 Z M11.2855657,2.71443427 C11.7598603,3.18746633 12.1521366,3.73612409 12.4463229,4.33792896 L10.2735232,4.33792896 C10.0131942,3.10124898 9.57706887,2.04318317 9.02619838,1.28536446 C9.13817793,1.32596096 9.24906168,1.36921867 9.35884964,1.4151376 C10.0791399,1.71943199 10.7334889,2.16069754 11.2855657,2.71443427 L11.2855657,2.71443427 Z M2.71443427,2.71443427 C3.26653905,2.1607314 3.92088098,1.71947059 4.64115036,1.4151376 C4.75104269,1.36869687 4.86192644,1.32564788 4.97380162,1.28599063 C4.42293113,2.04318316 3.98680576,3.10077935 3.72647681,4.33855512 L1.55367706,4.33855512 C1.84785914,3.73656114 2.240132,3.18769656 2.71443427,2.71443427 L2.71443427,2.71443427 Z M2.71443427,11.2855657 C2.23807821,10.8105595 1.84443515,10.2593005 1.54976351,9.65455705 L3.7256941,9.65455705 C3.98586651,10.894994 4.42261805,11.9557211 4.97458433,12.7140094 C4.86260478,12.6744565 4.75172103,12.6314075 4.64193306,12.5848624 C3.92138476,12.2806179 3.26677011,11.8393524 2.71443427,11.2855657 L2.71443427,11.2855657 Z M11.2855657,11.2855657 C10.7334889,11.8393025 10.0791399,12.280568 9.35884964,12.5848624 C9.24895731,12.6314075 9.13807356,12.6744565 9.02619838,12.7140094 C9.57816467,11.9552514 10.0150727,10.894994 10.2750886,9.65455705 L12.4500799,9.65455705 C12.1554557,10.2592891 11.761866,10.8105475 11.2855657,11.2855657 L11.2855657,11.2855657 Z" id="Shape"></path>
                        </g>
                    </g>
                </g>
            </g>
        </g>
    </g>
</svg>