<svg width="40" height="40" viewBox="0 0 40 40" fill="none" xmlns="http://www.w3.org/2000/svg">
<rect width="40" height="40" rx="8" fill="white"/>
<g clip-path="url(#clip0)">
<path d="M25.5411 29.9708H21.6792C21.2743 29.9708 20.9629 29.6593 20.9629 29.2545V23.0879H18.7516V29.2545C18.7516 29.6593 18.4402 29.9708 18.0353 29.9708H14.2357C13.0522 29.9708 12.0867 29.0053 12.0867 27.8218V21.5307H11.6818C10.7475 21.5307 10 20.7832 10 19.8489C10 19.4128 10.1557 19.0079 10.4672 18.6965L17.7238 11.0038C18.9073 9.75805 20.8694 9.69575 22.1463 10.8792C22.1775 10.9416 22.2086 10.9727 22.2709 11.0038L29.5276 18.6965C30.1816 19.3505 30.1505 20.4095 29.4964 21.0635C29.185 21.3749 28.749 21.5307 28.3129 21.5307H27.69V27.8218C27.69 29.0053 26.7246 29.9708 25.5411 29.9708L25.5411 29.9708ZM22.4266 28.5381H25.5411C25.946 28.5381 26.2885 28.1955 26.2885 27.7907V20.8143C26.2885 20.4094 26.6 20.098 27.0049 20.098H28.3441C28.4375 20.098 28.531 20.0357 28.5621 19.9423C28.5933 19.8488 28.5933 19.7554 28.4998 19.662L21.212 12.0004C20.558 11.3153 19.4991 11.2841 18.8139 11.9381C18.7827 11.9381 18.7516 11.9693 18.7516 12.0005L11.4949 19.662C11.4015 19.7554 11.4015 19.9111 11.4949 20.0046C11.5573 20.0668 11.6195 20.0668 11.6818 20.0668H12.8342C13.239 20.0668 13.5505 20.3783 13.5505 20.7832V27.7907C13.5505 28.1955 13.8931 28.5381 14.298 28.5381H17.3812V23.0879C17.3812 22.2781 18.0353 21.6552 18.8139 21.6552H21.0251C21.8349 21.6552 22.4578 22.3092 22.4578 23.0879L22.4266 28.5381H22.4266Z" fill="#0F134F"/>
</g>
<defs>
<clipPath id="clip0">
<rect width="20" height="20" fill="white" transform="translate(10 10)"/>
</clipPath>
</defs>
</svg>
