<svg width="32" height="32" viewBox="0 0 32 32" fill="none" xmlns="http://www.w3.org/2000/svg">
<circle opacity="0.16" cx="16" cy="16" r="16" fill="#3D56D6"/>
<path d="M13.2761 19.7387L25.1179 14.0696L25.1825 16.4458L13.2761 22.1665V19.7387Z" fill="#23B49A"/>
<path d="M15.7814 18.5377L19.5651 20.3715L17.0778 21.5724L13.2761 19.7516L15.7814 18.5377Z" fill="#2CCDB0"/>
<path d="M19.5651 22.7862L19.5651 20.3713L17.0778 21.5723L17.0598 24.0001L19.5651 22.7862Z" fill="#46EFD1"/>
<path d="M10.8483 18.5763L22.6772 12.8813L25.1178 14.0694L13.276 19.7514L10.8483 18.5763Z" fill="#2CCDB0"/>
<path d="M10.8484 18.5634L17.0728 21.5465V23.9742L10.8484 20.9912V18.5634Z" fill="#177867"/>
<path d="M7 12.7006L13.2244 15.6836V18.1114L7 15.1283V12.7006Z" fill="#131766"/>
<path d="M18.2865 13.9533L20.0944 14.7798L20.1202 10.0405L18.2865 9.18817V13.9533Z" fill="#1B1F6D"/>
<path d="M13.2244 15.6837L25.0662 10.0146L25.1307 12.3908L13.2244 18.1115V15.6837Z" fill="#262C96"/>
<path d="M10.7966 14.5213L22.6255 8.82642L25.0662 10.0145L13.2244 15.6965L10.7966 14.5213Z" fill="#4950D4"/>
<path d="M9.53108 11.5125L13.2889 13.3204L10.8016 14.5214L7 12.7006L9.53108 11.5125Z" fill="#4950D4"/>
<path d="M20.8176 8L22.6255 8.82647L20.1202 10.0404L18.2865 9.18806L20.8176 8Z" fill="#4950D4"/>
</svg>
