<svg width="40" height="40" viewBox="0 0 40 40" fill="none" xmlns="http://www.w3.org/2000/svg">
<rect y="-1.52588e-05" width="40" height="40" rx="8" fill="#3D56D6"/>
<path fill-rule="evenodd" clip-rule="evenodd" d="M20.0331 14.8C21.0825 14.8 21.9331 13.9494 21.9331 12.9C21.9331 11.8506 21.0825 11 20.0331 11C18.9837 11 18.1331 11.8506 18.1331 12.9C18.1331 13.9494 18.9837 14.8 20.0331 14.8ZM20.0331 28C21.0825 28 21.9331 27.15 21.9331 26.1C21.9331 25.0506 21.0825 24.2 20.0331 24.2C18.9837 24.2 18.1331 25.0506 18.1331 26.1C18.1331 27.15 18.9837 28 20.0331 28ZM20.0833 19.1333C15.6284 19.1333 12 15.546 12 11.1H14.6667C14.6667 14.0546 17.0824 16.4667 20.0833 16.4667C23.0842 16.4667 25.5 14.0546 25.5 11.1H28.1667C28.1667 15.546 24.5383 19.1333 20.0833 19.1333ZM27.9331 23H12.1331V20.4H27.9331V23Z" fill="white"/>
</svg>
