<svg width="81" height="15" viewBox="0 0 81 15" fill="none" xmlns="http://www.w3.org/2000/svg">
<path d="M7.06957 10.9148V1.86851H3.17463V0.0257416H9.03798V11.1871C9.03798 12.2201 8.70991 13.0508 8.05377 13.679C7.60704 14.0978 7.10447 14.37 6.54605 14.4957C5.98764 14.6213 5.30358 14.6841 4.49388 14.6841H0.724583V12.8414H4.76611C6.30175 12.8414 7.06957 12.1992 7.06957 10.9148Z" fill="black"/>
<path d="M19.986 14.6841H16.3632C14.8136 14.6841 13.7038 14.4538 13.0337 13.9931C12.4334 13.5882 12.0495 13.1066 11.882 12.5482C11.7284 11.9758 11.6516 11.2289 11.6516 10.3076V4.63266H13.4944V10.2866C13.4944 10.5379 13.5014 10.7543 13.5153 10.9358C13.5293 11.1033 13.5782 11.3267 13.6619 11.6059C13.7457 11.8711 13.8643 12.0945 14.0179 12.276C14.1715 12.4435 14.3948 12.5971 14.688 12.7367C14.9812 12.8623 15.3372 12.9251 15.756 12.9251H18.1432V4.63266H19.986V14.6841Z" fill="black"/>
<path d="M29.5859 4.63266V6.39167H25.8794C25.4746 6.39167 25.1256 6.46845 24.8324 6.62202C24.5392 6.77558 24.3926 6.99197 24.3926 7.27117C24.3926 7.4387 24.4275 7.59226 24.4973 7.73186C24.5671 7.85751 24.6439 7.96221 24.7277 8.04597C24.8254 8.12973 24.965 8.22048 25.1465 8.3182C25.3419 8.40196 25.4885 8.46478 25.5862 8.50667C25.6979 8.53459 26.1447 8.67419 26.9264 8.92548C27.7082 9.17676 28.2876 9.38617 28.6645 9.55369C29.0414 9.72122 29.3276 9.95156 29.5231 10.2447C29.7325 10.5239 29.8651 10.8031 29.9209 11.0824C29.9768 11.3476 30.0047 11.6128 30.0047 11.8781C30.0047 13.7488 28.7204 14.6841 26.1516 14.6841H22.5289V12.9251H26.1516C27.4639 12.9251 28.1201 12.5761 28.1201 11.8781C28.1201 11.543 27.9246 11.2638 27.5337 11.0405C27.1568 10.8171 26.6891 10.6286 26.1307 10.4751C25.5862 10.3215 25.0348 10.147 24.4764 9.95156C23.9319 9.74216 23.4643 9.41409 23.0734 8.96736C22.6965 8.50667 22.508 7.94127 22.508 7.27117C22.508 6.41959 22.8361 5.77043 23.4922 5.3237C24.1483 4.86301 24.9441 4.63266 25.8794 4.63266H29.5859Z" fill="black"/>
<path d="M32.9181 6.39167V2.64331H34.8027V4.63266H37.6297V6.39167H34.8027V10.7054C34.8027 11.194 34.8795 11.5989 35.0331 11.92C35.2006 12.2411 35.4379 12.4714 35.745 12.611C36.0522 12.7367 36.3383 12.8204 36.6036 12.8623C36.8828 12.9042 37.2248 12.9251 37.6297 12.9251V14.6841C36.0242 14.6841 34.8376 14.377 34.0698 13.7627C33.302 13.1485 32.9181 12.1294 32.9181 10.7054V6.39167Z" fill="black"/>
<path d="M47.9403 12.8414V14.6841H44.883C44.3106 14.6841 43.8569 14.6771 43.5218 14.6632C43.2007 14.6353 42.7959 14.5515 42.3073 14.4119C41.8187 14.2583 41.4068 14.035 41.0718 13.7418C40.5552 13.2672 40.2202 12.7018 40.0666 12.0456C39.9131 11.3755 39.8363 10.5937 39.8363 9.70028V0.0257416H41.8047V9.6584C41.8047 10.4681 41.8954 11.1033 42.0769 11.564C42.4399 12.4156 43.2007 12.8414 44.3594 12.8414H47.9403Z" fill="black"/>
<path d="M54.6501 4.42326C57.0234 4.52098 58.21 5.50519 58.21 7.37588C58.21 9.70726 56.6813 10.8729 53.624 10.8729H52.7654V9.26053H53.7706C54.7059 9.26053 55.3551 9.12092 55.7181 8.84171C56.081 8.54855 56.2625 8.06691 56.2625 7.39682C56.2625 6.96405 56.102 6.64296 55.7809 6.43355C55.4598 6.21019 55.048 6.0985 54.5454 6.0985C53.5542 6.0985 52.7724 6.44751 52.2 7.14553C51.6416 7.84355 51.3624 8.68117 51.3624 9.6584C51.3624 10.6915 51.6626 11.5291 52.2629 12.1713C52.8771 12.8134 53.6729 13.1345 54.6501 13.1345C55.5296 13.1345 56.2486 12.9181 56.807 12.4854L58.0634 13.7209C57.1001 14.5026 55.9624 14.8935 54.6501 14.8935C53.0586 14.8935 51.7882 14.4259 50.8389 13.4905C49.8896 12.5552 49.415 11.3476 49.415 9.8678C49.415 8.22048 49.8826 6.88726 50.818 5.86816C51.7533 4.84905 53.0307 4.36742 54.6501 4.42326Z" fill="black"/>
<path d="M60.4063 4.63266H64.029C65.5786 4.63266 66.6884 4.86301 67.3585 5.3237C67.9588 5.72855 68.3358 6.21717 68.4893 6.78954C68.6569 7.34795 68.7406 8.08785 68.7406 9.00924V14.6841H66.8979V9.03018C66.8979 8.77889 66.8909 8.56949 66.8769 8.40196C66.863 8.22048 66.8141 7.99711 66.7303 7.73186C66.6466 7.45266 66.5279 7.22929 66.3743 7.06177C66.2208 6.88028 65.9974 6.72672 65.7043 6.60108C65.4111 6.46147 65.0551 6.39167 64.6363 6.39167H62.2491V14.6841H60.4063V4.63266Z" fill="black"/>
<path d="M79.1154 0.0257416H81V14.6841H76.079C74.5573 14.6841 73.3218 14.2025 72.3725 13.2392C71.4232 12.262 70.9485 11.0335 70.9485 9.55369C70.9485 8.10182 71.4372 6.88726 72.4144 5.91004C73.4056 4.91885 74.5782 4.42326 75.9324 4.42326C76.7979 4.42326 77.6076 4.63266 78.3615 5.05147V6.93612C77.6635 6.43355 76.8538 6.18226 75.9324 6.18226C75.0948 6.18226 74.3828 6.49637 73.7965 7.12459C73.2241 7.73884 72.9379 8.54855 72.9379 9.55369C72.9379 10.5728 73.2101 11.3895 73.7546 12.0037C74.313 12.618 75.0878 12.9251 76.079 12.9251H79.1154V0.0257416Z" fill="black"/>
</svg>
