<svg width="20" height="20" viewBox="0 0 20 20" fill="none" xmlns="http://www.w3.org/2000/svg">
<path d="M10.0176 18.1133C5.57584 18.1133 1.96094 14.4984 1.96094 10.0566C1.96094 5.6149 5.57584 2 10.0176 2C11.7762 2 13.4479 2.55725 14.8501 3.61024C15.1233 3.8165 15.1794 4.20368 14.9731 4.47869C14.7669 4.75189 14.3797 4.80797 14.1047 4.60172C12.9178 3.71156 11.5048 3.24115 10.0158 3.24115C6.25612 3.24115 3.19847 6.2988 3.19847 10.0584C3.19847 13.8181 6.25612 16.8757 10.0158 16.8757C13.7754 16.8757 16.8331 13.8181 16.8331 10.0584C16.8331 9.18096 16.6684 8.32518 16.3446 7.51825C16.2161 7.19982 16.3717 6.83977 16.6883 6.71132C17.0068 6.58286 17.3668 6.73845 17.4953 7.05508C17.8788 8.01037 18.0742 9.01993 18.0742 10.0566C18.0742 14.5002 14.4611 18.1133 10.0176 18.1133Z" fill="#3D56D6" stroke="#F0F2F7" stroke-width="0.1"/>
<path fill-rule="evenodd" clip-rule="evenodd" d="M9.55622 17.9848C9.40424 17.9848 9.25588 17.9161 9.15818 17.7858C9.02375 17.6071 9.02924 17.3668 9.15593 17.195C9.12203 17.1594 9.0884 17.1235 9.05506 17.0874C8.23185 16.2027 7.58232 15.1895 7.12277 14.075C6.95543 13.6701 6.81571 13.2571 6.70369 12.8374C5.84747 13.1016 5.0298 13.4778 4.26233 13.961C4.03074 14.1076 3.72497 14.037 3.57842 13.8054C3.43187 13.5738 3.50244 13.2681 3.73402 13.1215C4.60117 12.5761 5.52592 12.1555 6.49556 11.8646C6.41201 11.3498 6.36835 10.8267 6.36469 10.2973V10.234C6.36469 9.96481 6.37534 9.69671 6.39653 9.43012L2.9488 9.42883C2.6756 9.42883 2.45306 9.20629 2.45306 8.93309C2.45306 8.65989 2.6756 8.43735 2.9488 8.43735L6.52505 8.43869C6.61451 7.94306 6.74107 7.45489 6.90385 6.97729C7.42491 5.4557 8.31869 4.06076 9.49109 2.94626C9.57975 2.86122 9.67202 2.778 9.76429 2.69658C9.92185 2.55714 10.145 2.53591 10.3218 2.62792C10.5139 2.50211 10.7736 2.52239 10.9439 2.69114C11.0452 2.79065 11.1321 2.88293 11.2135 2.97158C12.3352 4.17836 13.1512 5.65833 13.5692 7.25048C13.6718 7.64151 13.751 8.03929 13.8061 8.44142L17.4555 8.44278C17.7287 8.44278 17.9512 8.66532 17.9512 8.93852C17.9512 9.21353 17.7287 9.43426 17.4555 9.43426L13.8928 9.43292C13.8978 9.56222 13.9003 9.69175 13.9003 9.82144C13.9003 9.98428 13.8966 10.1525 13.8876 10.3208C13.8583 10.917 13.7777 11.5032 13.6464 12.0763C14.5182 12.3956 15.3477 12.8231 16.1238 13.3531C16.35 13.5069 16.4079 13.8163 16.2541 14.0424C16.1564 14.1818 16.0008 14.2577 15.8434 14.2577C15.7475 14.2577 15.6498 14.2306 15.5648 14.1709C14.8778 13.7015 14.1452 13.3209 13.3762 13.0328C13.2404 13.4347 13.0785 13.8289 12.8907 14.2143C12.3642 15.2999 11.6513 16.2733 10.7739 17.1091C10.7258 17.1551 10.6772 17.2006 10.6282 17.2456C10.7418 17.4242 10.7316 17.6634 10.5857 17.8329C10.4916 17.9487 10.3523 18.0084 10.2112 18.0084C10.0972 18.0084 9.98321 17.9686 9.88913 17.8889L9.87001 17.8726L9.85294 17.8853C9.76247 17.9523 9.65935 17.9848 9.55622 17.9848ZM12.4308 12.7301C12.3096 13.0873 12.1655 13.4376 11.9987 13.7801C11.5247 14.7589 10.8824 15.6364 10.09 16.3909C10.032 16.4457 9.97316 16.4999 9.91363 16.5536C9.86876 16.5071 9.82439 16.4601 9.78057 16.4126C9.03878 15.6147 8.45258 14.701 8.03825 13.6969C7.88925 13.3353 7.76437 12.9664 7.6639 12.5914C7.76532 12.5706 7.8672 12.5513 7.9695 12.5335C8.55389 12.4304 9.15276 12.3797 9.75343 12.3797H9.75705C10.5567 12.3797 11.3528 12.472 12.1236 12.6529C12.2265 12.6771 12.3289 12.7028 12.4308 12.7301ZM12.6966 11.7757C12.5816 11.7449 12.466 11.7158 12.3497 11.6886C11.5048 11.4896 10.6327 11.3883 9.75705 11.3883H9.75343C9.09667 11.3883 8.43991 11.4443 7.79943 11.5565C7.68593 11.5764 7.57292 11.5979 7.46044 11.6211C7.3938 11.1849 7.35891 10.7424 7.35616 10.2955V10.2358C7.35616 9.96587 7.36801 9.69727 7.39158 9.43049L12.8989 9.43255C12.9043 9.5614 12.907 9.69047 12.907 9.81963C12.907 9.96618 12.9033 10.1182 12.8961 10.2719C12.8713 10.7819 12.8046 11.284 12.6966 11.7757ZM12.8033 8.44104L7.5347 8.43907C7.61242 8.05319 7.71529 7.67272 7.84285 7.29934C8.31326 5.92792 9.12019 4.67229 10.175 3.66634C10.2322 3.61176 10.2912 3.55717 10.3508 3.50326C10.3972 3.55094 10.4408 3.59688 10.4826 3.64282C11.4957 4.7338 12.2321 6.06904 12.6084 7.50197C12.6902 7.81043 12.7552 8.12408 12.8033 8.44104ZM15.2331 6.19081C15.0991 6.05678 15.0238 5.87501 15.0238 5.68547C15.0238 5.49593 15.0991 5.31415 15.2331 5.18013C15.3672 5.0461 15.5489 4.97081 15.7385 4.97081C15.928 4.97081 16.1098 5.0461 16.2438 5.18013C16.3778 5.31415 16.4531 5.49593 16.4531 5.68547C16.4531 5.87501 16.3778 6.05678 16.2438 6.19081C16.1098 6.32483 15.928 6.40013 15.7385 6.40013C15.5489 6.40013 15.3672 6.32483 15.2331 6.19081Z" fill="#3D56D6"/>
</svg>
