<svg width="18" height="18" viewBox="0 0 18 18" fill="none" xmlns="http://www.w3.org/2000/svg">
<path d="M10.2812 1C9.95418 1 9.6208 1.11991 9.34842 1.38764L5.41687 5.25355H3.00493C2.44992 5.25355 2 5.70082 2 6.25264V11.7474C2 12.2991 2.44992 12.7465 3.00493 12.7465H5.41687L9.34842 16.6124C9.62071 16.8801 9.95427 17 10.2812 17C10.9702 17 11.6306 16.4677 11.6306 15.6653V2.33473C11.6307 1.53227 10.9702 1 10.2812 1ZM15.4019 9.45455H13.1805C13.0219 9.45455 12.8698 9.3875 12.7576 9.26816C12.6455 9.14882 12.5824 8.98696 12.5824 8.81818C12.5824 8.64941 12.6455 8.48755 12.7576 8.3682C12.8698 8.24886 13.0219 8.18182 13.1805 8.18182H15.4019C15.5605 8.18182 15.7127 8.24886 15.8248 8.3682C15.937 8.48755 16 8.64941 16 8.81818C16 8.98696 15.937 9.14882 15.8248 9.26816C15.7127 9.3875 15.5605 9.45455 15.4019 9.45455ZM15.5795 4.59655L13.6556 5.77836C13.5876 5.82081 13.5123 5.84851 13.4342 5.85988C13.356 5.87125 13.2766 5.86606 13.2003 5.84461C13.1241 5.82316 13.0525 5.78587 12.9899 5.73489C12.9272 5.68391 12.8747 5.62025 12.8352 5.54757C12.7958 5.47489 12.7703 5.39463 12.7601 5.31141C12.7499 5.22818 12.7553 5.14364 12.776 5.06265C12.7967 4.98166 12.8322 4.90582 12.8805 4.83949C12.9288 4.77316 12.989 4.71766 13.0576 4.67618L14.9814 3.49436C15.0494 3.45192 15.1247 3.42422 15.2028 3.41285C15.281 3.40148 15.3605 3.40667 15.4367 3.42812C15.513 3.44957 15.5845 3.48686 15.6472 3.53784C15.7098 3.58881 15.7624 3.65248 15.8018 3.72515C15.8412 3.79783 15.8668 3.8781 15.877 3.96132C15.8871 4.04454 15.8817 4.12909 15.861 4.21008C15.8404 4.29107 15.8049 4.36691 15.7565 4.43324C15.7082 4.49956 15.648 4.55507 15.5795 4.59655ZM14.9814 14.0511L13.0576 12.8693C12.989 12.8278 12.9288 12.7723 12.8805 12.706C12.8322 12.6396 12.7967 12.5638 12.776 12.4828C12.7553 12.4018 12.7499 12.3173 12.7601 12.234C12.7703 12.1508 12.7958 12.0706 12.8352 11.9979C12.8747 11.9252 12.9272 11.8615 12.9899 11.8106C13.0525 11.7596 13.1241 11.7223 13.2003 11.7008C13.2766 11.6794 13.356 11.6742 13.4342 11.6856C13.5123 11.6969 13.5876 11.7246 13.6556 11.7671L15.5795 12.9489C15.648 12.9904 15.7082 13.0459 15.7565 13.1122C15.8049 13.1785 15.8404 13.2544 15.861 13.3354C15.8817 13.4164 15.8871 13.5009 15.877 13.5841C15.8668 13.6674 15.8412 13.7476 15.8018 13.8203C15.7624 13.893 15.7098 13.9566 15.6472 14.0076C15.5845 14.0586 15.513 14.0959 15.4367 14.1173C15.3605 14.1388 15.281 14.144 15.2028 14.1326C15.1247 14.1212 15.0494 14.0935 14.9814 14.0511Z" fill="#3D56D6"/>
</svg>
