<svg width="224" height="50" viewBox="0 0 224 50" fill="none" xmlns="http://www.w3.org/2000/svg">
<path d="M19.6121 36.6829L56.6177 18.967L56.8195 26.3923L19.6121 44.2696V36.6829Z" fill="#23B49A"/>
<path d="M27.441 32.9298L39.265 38.6603L31.4922 42.4133L19.6121 36.7232L27.441 32.9298Z" fill="#2CCDB0"/>
<path d="M39.2657 46.2067L39.2657 38.6602L31.4928 42.4133L31.4368 50L39.2657 46.2067Z" fill="#46EFD1"/>
<path d="M12.0259 33.0508L48.9912 15.2542L56.6183 18.9669L19.6126 36.7232L12.0259 33.0508Z" fill="#2CCDB0"/>
<path d="M12.0256 33.0105L31.4768 42.3326V49.9193L12.0256 40.5973V33.0105Z" fill="#177867"/>
<path d="M0 14.6893L19.4512 24.0113V31.5981L0 22.276V14.6893Z" fill="#131766"/>
<path d="M35.2703 18.6037L40.92 21.1865L41.0007 6.37613L35.2703 3.71269V18.6037Z" fill="#1B1F6D"/>
<path d="M19.4517 24.0113L56.4573 6.29538L56.6591 13.7207L19.4517 31.598V24.0113Z" fill="#262C96"/>
<path d="M11.8643 20.3794L48.8296 2.58275L56.4567 6.29542L19.451 24.0517L11.8643 20.3794Z" fill="#4950D4"/>
<path d="M7.9096 10.9766L19.6529 16.6263L11.8801 20.3794L0 14.6893L7.9096 10.9766Z" fill="#4950D4"/>
<path d="M43.1799 0L48.8296 2.58273L41.0007 6.37611L35.2703 3.71267L43.1799 0Z" fill="#4950D4"/>
<path d="M81.0735 30.6699V13.2365H73.5675V9.68524H84.8669V31.1945C84.8669 33.1854 84.2347 34.7861 82.9702 35.9968C82.1093 36.8039 81.1408 37.3285 80.0647 37.5706C78.9885 37.8128 77.6703 37.9338 76.1099 37.9338H68.8459V34.3826H76.6345C79.5939 34.3826 81.0735 33.145 81.0735 30.6699Z" fill="black"/>
<path d="M105.965 37.9338H98.9837C95.9974 37.9338 93.8586 37.4899 92.5672 36.6021C91.4103 35.8219 90.6705 34.8937 90.3477 33.8176C90.0517 32.7146 89.9038 31.2752 89.9038 29.4996V18.5634H93.455V29.4593C93.455 29.9435 93.4685 30.3605 93.4954 30.7103C93.5223 31.0331 93.6164 31.4636 93.7778 32.0016C93.9393 32.5128 94.1679 32.9432 94.4639 33.293C94.7598 33.6158 95.1903 33.9118 95.7552 34.1808C96.3202 34.4229 97.0063 34.544 97.8134 34.544H102.414V18.5634H105.965V37.9338Z" fill="black"/>
<path d="M124.465 18.5634V21.9532H117.323C116.542 21.9532 115.87 22.1012 115.305 22.3971C114.74 22.693 114.457 23.11 114.457 23.6481C114.457 23.971 114.525 24.2669 114.659 24.5359C114.794 24.7781 114.942 24.9798 115.103 25.1413C115.291 25.3027 115.56 25.4775 115.91 25.6659C116.287 25.8273 116.569 25.9484 116.758 26.0291C116.973 26.0829 117.834 26.3519 119.34 26.8362C120.847 27.3204 121.963 27.724 122.69 28.0468C123.416 28.3697 123.968 28.8136 124.344 29.3785C124.748 29.9166 125.003 30.4547 125.111 30.9927C125.219 31.5039 125.272 32.0151 125.272 32.5262C125.272 36.1313 122.797 37.9338 117.847 37.9338H110.866V34.544H117.847C120.376 34.544 121.641 33.8714 121.641 32.5262C121.641 31.8806 121.264 31.3425 120.511 30.912C119.784 30.4816 118.883 30.1184 117.807 29.8224C116.758 29.5265 115.695 29.1902 114.619 28.8136C113.57 28.41 112.668 27.7778 111.915 26.9169C111.189 26.0291 110.825 24.9395 110.825 23.6481C110.825 22.007 111.458 20.756 112.722 19.8951C113.987 19.0073 115.52 18.5634 117.323 18.5634H124.465Z" fill="black"/>
<path d="M130.887 21.9532V14.7296H134.519V18.5634H139.967V21.9532H134.519V30.2664C134.519 31.208 134.667 31.9882 134.963 32.607C135.286 33.2257 135.743 33.6696 136.335 33.9387C136.927 34.1808 137.478 34.3422 137.989 34.4229C138.527 34.5036 139.187 34.544 139.967 34.544V37.9338C136.873 37.9338 134.586 37.342 133.106 36.1582C131.627 34.9745 130.887 33.0105 130.887 30.2664V21.9532Z" fill="black"/>
<path d="M159.837 34.3826V37.9338H153.945C152.842 37.9338 151.967 37.9204 151.322 37.8935C150.703 37.8397 149.923 37.6782 148.981 37.4092C148.04 37.1133 147.246 36.6828 146.6 36.1178C145.605 35.2031 144.959 34.1135 144.663 32.8491C144.367 31.5577 144.219 30.0511 144.219 28.3293V9.68524H148.013V28.2486C148.013 29.809 148.187 31.0331 148.537 31.9209C149.237 33.562 150.703 34.3826 152.936 34.3826H159.837Z" fill="black"/>
<path d="M172.767 18.1598C177.341 18.3481 179.628 20.2448 179.628 23.8499C179.628 28.3428 176.682 30.5892 170.79 30.5892H169.135V27.4819H171.072C172.875 27.4819 174.126 27.2128 174.825 26.6747C175.525 26.1098 175.875 25.1816 175.875 23.8902C175.875 23.0562 175.565 22.4375 174.947 22.0339C174.328 21.6035 173.534 21.3882 172.566 21.3882C170.655 21.3882 169.149 22.0608 168.046 23.406C166.97 24.7512 166.432 26.3654 166.432 28.2486C166.432 30.2395 167.01 31.8537 168.167 33.0912C169.351 34.3288 170.884 34.9475 172.767 34.9475C174.462 34.9475 175.848 34.5305 176.924 33.6965L179.345 36.0775C177.489 37.5841 175.296 38.3374 172.767 38.3374C169.7 38.3374 167.252 37.4361 165.423 35.6336C163.593 33.8311 162.679 31.5039 162.679 28.6522C162.679 25.4775 163.58 22.9083 165.382 20.9443C167.185 18.9804 169.647 18.0522 172.767 18.1598Z" fill="black"/>
<path d="M183.86 18.5634H190.842C193.828 18.5634 195.967 19.0073 197.258 19.8951C198.415 20.6753 199.141 21.6169 199.437 22.7199C199.76 23.7961 199.922 25.222 199.922 26.9976V37.9338H196.37V27.0379C196.37 26.5537 196.357 26.1501 196.33 25.8273C196.303 25.4775 196.209 25.0471 196.048 24.5359C195.886 23.9979 195.657 23.5674 195.361 23.2446C195.066 22.8948 194.635 22.5989 194.07 22.3568C193.505 22.0877 192.819 21.9532 192.012 21.9532H187.412V37.9338H183.86V18.5634Z" fill="black"/>
<path d="M219.915 9.68524H223.547V37.9338H214.064C211.131 37.9338 208.75 37.0057 206.921 35.1493C205.091 33.2661 204.177 30.8986 204.177 28.0468C204.177 25.2489 205.118 22.9083 207.001 21.025C208.912 19.1149 211.171 18.1598 213.781 18.1598C215.449 18.1598 217.009 18.5634 218.462 19.3705V23.0024C217.117 22.0339 215.557 21.5496 213.781 21.5496C212.167 21.5496 210.795 22.155 209.665 23.3656C208.562 24.5494 208.01 26.1098 208.01 28.0468C208.01 30.0108 208.535 31.5846 209.584 32.7684C210.66 33.9521 212.153 34.544 214.064 34.544H219.915V9.68524Z" fill="black"/>
</svg>
