<svg width="40" height="40" viewBox="0 0 40 40" fill="none" xmlns="http://www.w3.org/2000/svg">
<rect width="40" height="40" rx="8" fill="white"/>
<path fill-rule="evenodd" clip-rule="evenodd" d="M27.6817 20.5642C27.6817 25.1345 24.2247 28.6155 19.6551 28.6155C15.0855 28.6155 11.7055 25.133 11.7055 20.5626C11.7055 15.9923 15.0824 12.6434 19.6551 12.6434V10.9091C14.3299 10.906 10 15.2397 10 20.5626C10 25.8887 14.3299 30.2193 19.6551 30.2193C24.9773 30.2193 29.3102 25.8887 29.3102 20.5626L27.6817 20.5642Z" fill="#0F134F"/>
<path fill-rule="evenodd" clip-rule="evenodd" d="M21.0347 10.6061C21.0347 10.2721 21.3068 10 21.6408 10C26.2502 10 30.0001 13.75 30.0001 18.3593C30.0001 18.6934 29.728 18.9655 29.394 18.9655H21.6408C21.3068 18.9655 21.0347 18.6934 21.0347 18.3593V10.6061ZM22.2494 11.2393V17.7533H28.7633C28.4697 14.2943 25.7057 11.5303 22.2494 11.2393Z" fill="#0F134F"/>
<path d="M22.2494 17.7533H22.1494V17.8533H22.2494V17.7533ZM22.2494 11.2393L22.2577 11.1397L22.1494 11.1306V11.2393H22.2494ZM28.7633 17.7533V17.8533H28.8722L28.863 17.7448L28.7633 17.7533ZM21.6408 9.9C21.2515 9.9 20.9347 10.2169 20.9347 10.6061H21.1347C21.1347 10.3273 21.362 10.1 21.6408 10.1V9.9ZM30.1001 18.3593C30.1001 13.6947 26.3054 9.9 21.6408 9.9V10.1C26.1949 10.1 29.9001 13.8052 29.9001 18.3593H30.1001ZM29.394 19.0655C29.7833 19.0655 30.1001 18.7486 30.1001 18.3593H29.9001C29.9001 18.6381 29.6728 18.8655 29.394 18.8655V19.0655ZM21.6408 19.0655H29.394V18.8655H21.6408V19.0655ZM20.9347 18.3593C20.9347 18.7486 21.2515 19.0655 21.6408 19.0655V18.8655C21.362 18.8655 21.1347 18.6381 21.1347 18.3593H20.9347ZM20.9347 10.6061V18.3593H21.1347V10.6061H20.9347ZM22.3494 17.7533V11.2393H22.1494V17.7533H22.3494ZM28.7633 17.6533H22.2494V17.8533H28.7633V17.6533ZM22.241 11.339C25.6487 11.6258 28.3742 14.3512 28.6637 17.7618L28.863 17.7448C28.5652 14.2373 25.7627 11.4347 22.2577 11.1397L22.241 11.339Z" fill="#0F134F"/>
<path fill-rule="evenodd" clip-rule="evenodd" d="M16 24C15.521 23.0458 15.0907 21.8807 15.0907 20.563C15.0907 19.0619 15.7628 17.7445 16.3713 16.7571C17.0921 15.5873 16.3619 14.5299 15.4681 16.0976C14.7891 17.2886 14.1816 18.9141 14.1816 20.563C14.1816 22.0759 14.5103 23.4665 15.0907 24.6071C15.9764 26.3476 16.7131 25.4205 16 24Z" fill="#0F134F" stroke="#0F134F" stroke-width="0.5"/>
</svg>
