<svg width="15" height="13" viewBox="0 0 15 13" fill="none" xmlns="http://www.w3.org/2000/svg">
<path d="M13.9154 0.00313202C14.5148 0.00735202 14.8187 0.300002 14.8286 0.859222C14.8392 1.44782 14.5317 1.76219 13.9111 1.76407C12.0563 1.76896 10.2015 1.76896 8.34674 1.76407C7.74815 1.76235 7.44362 1.46641 7.43346 0.907822C7.42284 0.318912 7.73127 0.00735202 8.35127 0.00313202C9.2869 -0.00296798 10.2225 0.00172201 11.1579 0.00172201C12.0765 0.00172201 12.9965 -0.00296798 13.9154 0.00313202ZM4.46799 0.125002C4.70065 0.264532 4.91471 0.657192 4.9358 0.956412C4.99674 1.82594 4.95752 2.70391 4.95752 3.57844C4.95752 4.41735 4.94815 5.25657 4.9619 6.09407C4.96846 6.50797 4.86815 6.89532 4.5019 7.00172C4.22237 7.08282 3.81846 7.07157 3.59674 6.90344C2.49362 6.06782 1.42346 5.17844 0.360334 4.28235C-0.129353 3.87047 -0.117478 3.24532 0.380959 2.82813C1.44659 1.935 2.51659 1.04688 3.61815 0.207662C3.82846 0.046882 4.25596 -0.00186801 4.46799 0.125002ZM13.9281 5.36875C14.5267 5.3736 14.8231 5.6686 14.8287 6.23844C14.834 6.80829 14.5317 7.12641 13.9475 7.12813C12.0764 7.13511 10.2053 7.13542 8.33408 7.12907C7.73752 7.12719 7.43815 6.82594 7.43341 6.25938C7.42893 5.6725 7.73612 5.37219 8.36409 5.36875C9.29955 5.36297 10.235 5.36719 11.1706 5.3675C12.0897 5.36703 13.009 5.36172 13.9281 5.36875ZM0.967209 10.7284C3.11987 10.7369 5.27237 10.7322 7.42518 10.7322C9.59405 10.7322 11.7631 10.7284 13.932 10.7345C14.5836 10.7364 14.944 11.1811 14.8148 11.822C14.7083 12.3508 14.3558 12.502 13.892 12.5C11.8708 12.4914 9.84955 12.4966 7.82846 12.4966C5.52799 12.4966 3.22752 12.5 0.927049 12.4938C0.275178 12.492 -0.0852907 12.0469 0.0439283 11.4063C0.150491 10.8767 0.502839 10.7263 0.967209 10.7284Z" fill="#84869E"/>
</svg>
