<svg width="15" height="13" viewBox="0 0 15 13" fill="none" xmlns="http://www.w3.org/2000/svg">
<path d="M0.925432 0.00313202C0.326033 0.00735202 0.0221319 0.300002 0.0122318 0.859222C0.00163174 1.44782 0.309133 1.76219 0.929732 1.76407C2.78453 1.76896 4.63933 1.76896 6.49414 1.76407C7.09273 1.76235 7.39726 1.46641 7.40742 0.907822C7.41804 0.318912 7.10961 0.00735202 6.48961 0.00313202C5.55398 -0.00296798 4.61833 0.00172201 3.68293 0.00172201C2.76433 0.00172201 1.84433 -0.00296798 0.925432 0.00313202ZM10.3729 0.125002C10.1402 0.264532 9.92617 0.657192 9.90508 0.956412C9.84414 1.82594 9.88336 2.70391 9.88336 3.57844C9.88336 4.41735 9.89273 5.25657 9.87898 6.09407C9.87242 6.50797 9.97273 6.89532 10.339 7.00172C10.6185 7.08282 11.0224 7.07157 11.2441 6.90344C12.3473 6.06782 13.4174 5.17844 14.4805 4.28235C14.9702 3.87047 14.9584 3.24532 14.4599 2.82813C13.3943 1.935 12.3243 1.04688 11.2227 0.207662C11.0124 0.046882 10.5849 -0.00186801 10.3729 0.125002ZM0.912732 5.36875C0.314132 5.3736 0.0177326 5.6686 0.0121613 6.23844C0.00683212 6.80829 0.309133 7.12641 0.893332 7.12813C2.76443 7.13511 4.63553 7.13542 6.5068 7.12907C7.10336 7.12719 7.40273 6.82594 7.40747 6.25938C7.41195 5.6725 7.10476 5.37219 6.47679 5.36875C5.54133 5.36297 4.60583 5.36719 3.67023 5.3675C2.75113 5.36703 1.83183 5.36172 0.912732 5.36875ZM13.8737 10.7284C11.721 10.7369 9.56851 10.7322 7.4157 10.7322C5.24683 10.7322 3.07773 10.7284 0.908833 10.7345C0.257233 10.7364 -0.103168 11.1811 0.0260324 11.822C0.132532 12.3508 0.485032 12.502 0.948833 12.5C2.97003 12.4914 4.99133 12.4966 7.01242 12.4966C9.31289 12.4966 11.6134 12.5 13.9138 12.4938C14.5657 12.492 14.9262 12.0469 14.797 11.4063C14.6904 10.8767 14.338 10.7263 13.8737 10.7284Z" fill="#84869E"/>
</svg>
