<svg width="30" height="30" viewBox="0 0 30 30" fill="none" xmlns="http://www.w3.org/2000/svg">
<path d="M19.9048 21.8802L22.3634 10.2791C22.5809 9.25636 21.9952 8.85614 21.325 9.10705L6.86363 14.6816C5.87567 15.0661 5.89272 15.6191 6.69658 15.87L10.3961 17.025L18.987 11.6175C19.3886 11.3495 19.7575 11.5009 19.4561 11.7689L12.5064 18.0457L12.2384 21.8639C12.3833 21.8645 12.5264 21.8315 12.6565 21.7677C12.7866 21.7038 12.9002 21.6107 12.9884 21.4957L14.7959 19.755L18.5459 22.517C19.2325 22.9016 19.7179 22.7011 19.902 21.8809L19.9048 21.8802ZM29.9998 15C29.9998 17.9667 29.12 20.8668 27.4718 23.3336C25.8236 25.8003 23.4809 27.7229 20.74 28.8582C17.9991 29.9935 14.9831 30.2906 12.0734 29.7118C9.16369 29.133 6.49095 27.7044 4.39316 25.6066C2.29537 23.5088 0.866762 20.8361 0.287983 17.9264C-0.290795 15.0166 0.00625508 12.0006 1.14157 9.25975C2.27688 6.51886 4.19947 4.17618 6.66621 2.52796C9.13295 0.879735 12.033 0 14.9998 0C18.978 0 22.7933 1.58035 25.6064 4.3934C28.4194 7.20644 29.9998 11.0218 29.9998 15Z" fill="#A1A1A1"/>
</svg>
