<svg width="30" height="30" viewBox="0 0 30 30" fill="none" xmlns="http://www.w3.org/2000/svg">
<path d="M15 0C6.69231 0 0 6.69231 0 15C0 23.3077 6.69231 30 15 30C23.3077 30 30 23.3077 30 15C30 6.69231 23.3077 0 15 0ZM22.2692 10.7308C22.1538 10.8462 22.1538 10.9615 22.0385 10.9615C21.8077 11.1923 21.5769 11.3077 21.3462 11.4231C21.2308 11.4231 21.2308 11.5385 21.2308 11.6538C21.3462 12.9231 21.1154 14.1923 20.6538 15.4615C19.8462 17.6538 18.1154 19.3846 16.0385 20.4231C14.3077 21.4615 12.2308 21.8077 10.3846 21.3462C9.46154 21.2308 8.65385 20.8846 7.96154 20.4231L7.84615 20.3077C7.84615 20.1923 7.96154 20.0769 8.07692 20.0769C8.65385 20.0769 9.23077 19.9615 9.80769 19.7308C10.3846 19.5 10.9615 19.1538 11.4231 18.8077L11.5385 18.6923C11.5385 18.5769 11.5385 18.4615 11.4231 18.4615C10.9615 18.3462 10.6154 18.1154 10.2692 17.8846C9.80769 17.6538 9.46154 17.1923 9.23077 16.7308V16.6154C9.23077 16.5 9.34615 16.3846 9.46154 16.3846H9.80769C9.92308 16.3846 9.92308 16.3846 9.92308 16.2692C10.0385 16.1538 9.92308 16.0385 9.80769 15.9231C9.34615 15.6923 9 15.3462 8.65385 15C8.19231 14.5385 7.96154 13.9615 7.96154 13.3846V13.2692C7.96154 13.1538 8.19231 13.1538 8.19231 13.1538C8.30769 13.1538 8.42308 13.2692 8.53846 13.2692H8.76923C8.88462 13.2692 8.88462 13.2692 9 13.1538C9.11539 13.0385 9.11539 12.9231 9 12.8077C8.53846 12.3462 8.19231 11.7692 8.07692 11.0769C7.96154 10.5 8.07692 9.80769 8.30769 9.23077V9.11538C8.07692 9.23077 8.19231 9.23077 8.30769 9.34615C9.11539 10.1538 9.92308 10.8462 10.9615 11.4231C12.1154 12 13.3846 12.3462 14.6538 12.3462C14.7692 12.3462 14.8846 12.2308 14.8846 12.1154C14.8846 11.4231 15.1154 9.11539 17.1923 8.53846C18.2308 8.19231 19.5 8.42308 20.3077 9.34615C20.3077 9.34615 20.4231 9.46154 20.5385 9.46154C20.7692 9.46154 21 9.34615 21.3462 9.34615C21.5769 9.23077 21.8077 9.23077 22.0385 9.11538H22.2692C22.3846 9.11538 22.3846 9.34615 22.3846 9.46154C22.2692 9.69231 22.0385 9.92308 21.8077 10.1538L21.6923 10.2692C21.5769 10.2692 21.5769 10.3846 21.5769 10.5C21.5769 10.6154 21.6923 10.7308 21.8077 10.7308C21.9231 10.7308 22.0385 10.7308 22.2692 10.6154H22.5C22.3846 10.5 22.3846 10.7308 22.2692 10.7308Z" fill="#A1A1A1"/>
</svg>
