<svg width="170" height="38" viewBox="0 0 170 38" fill="none" xmlns="http://www.w3.org/2000/svg">
<path d="M14.9147 27.8789L43.0563 14.4149L43.2097 20.0581L14.9147 33.6449V27.8789Z" fill="#DCDDF5"/>
<path d="M20.8683 25.0266L29.8601 29.3817L23.9492 32.234L14.9147 27.9096L20.8683 25.0266Z" fill="white"/>
<path d="M29.8601 35.117L29.8601 29.3818L23.9492 32.2341L23.9065 38L29.8601 35.117Z" fill="white"/>
<path d="M9.14523 25.1186L37.2561 11.5932L43.0563 14.4148L14.9147 27.9096L9.14523 25.1186Z" fill="white"/>
<path d="M9.14523 25.088L23.9372 32.1727V37.9386L9.14523 30.8539V25.088Z" fill="#BFC0DF"/>
<path d="M0 11.1638L14.792 18.2486V24.0145L0 16.9298V11.1638Z" fill="#C5C6EB"/>
<path d="M26.822 14.1388L31.1184 16.1017L31.1798 4.84587L26.822 2.82166V14.1388Z" fill="#C5C6EB"/>
<path d="M14.792 18.2486L42.9335 4.78448L43.087 10.4277L14.792 24.0145V18.2486Z" fill="#DCDDF5"/>
<path d="M9.02249 15.4883L37.1334 1.96289L42.9335 4.78452L14.792 18.2793L9.02249 15.4883Z" fill="white"/>
<path d="M6.01499 8.34222L14.9454 12.636L9.03443 15.4883L0 11.1639L6.01499 8.34222Z" fill="white"/>
<path d="M32.837 0L37.1334 1.96287L31.1798 4.84584L26.822 2.82163L32.837 0Z" fill="white"/>
<path d="M61.6537 23.3091V10.0597H55.9456V7.36078H64.5384V23.7078C64.5384 25.2209 64.0576 26.4375 63.096 27.3576C62.4413 27.971 61.7048 28.3697 60.8864 28.5537C60.0681 28.7377 59.0656 28.8297 57.879 28.8297H52.355V26.1308H58.2779C60.5284 26.1308 61.6537 25.1902 61.6537 23.3091Z" fill="white"/>
<path d="M80.5829 28.8297H75.2737C73.0027 28.8297 71.3762 28.4923 70.3942 27.8176C69.5145 27.2247 68.9518 26.5192 68.7063 25.7014C68.4813 24.8631 68.3687 23.7692 68.3687 22.4197V14.1082H71.0694V22.389C71.0694 22.7571 71.0796 23.074 71.1 23.3398C71.1205 23.5852 71.1921 23.9123 71.3149 24.3212C71.4376 24.7097 71.6115 25.0369 71.8366 25.3027C72.0616 25.548 72.389 25.7729 72.8186 25.9774C73.2483 26.1614 73.77 26.2534 74.3837 26.2534H77.8822V14.1082H80.5829V28.8297Z" fill="white"/>
<path d="M94.6517 14.1082V16.6844H89.2198C88.6265 16.6844 88.115 16.7969 87.6854 17.0218C87.2557 17.2467 87.0409 17.5636 87.0409 17.9726C87.0409 18.2179 87.0921 18.4428 87.1944 18.6473C87.2967 18.8313 87.4092 18.9847 87.5319 19.1074C87.6752 19.23 87.8797 19.3629 88.1457 19.5061C88.4321 19.6287 88.647 19.7207 88.7902 19.7821C88.9538 19.823 89.6085 20.0274 90.7543 20.3955C91.9 20.7635 92.749 21.0702 93.3014 21.3156C93.8538 21.5609 94.2732 21.8983 94.5597 22.3277C94.8665 22.7366 95.0609 23.1456 95.1427 23.5545C95.2246 23.943 95.2655 24.3315 95.2655 24.7199C95.2655 27.4598 93.3833 28.8297 89.6188 28.8297H84.3096V26.2534H89.6188C91.5419 26.2534 92.5035 25.7423 92.5035 24.7199C92.5035 24.2292 92.2171 23.8203 91.6442 23.4931C91.0918 23.166 90.4064 22.89 89.5881 22.6651C88.7902 22.4401 87.982 22.1846 87.1637 21.8983C86.3658 21.5916 85.6804 21.1111 85.1075 20.4568C84.5551 19.7821 84.2789 18.954 84.2789 17.9726C84.2789 16.7253 84.7597 15.7746 85.7213 15.1203C86.6829 14.4455 87.8491 14.1082 89.2198 14.1082H94.6517Z" fill="white"/>
<path d="M99.5351 16.6844V11.1945H102.297V14.1082H106.44V16.6844H102.297V23.0024C102.297 23.7181 102.41 24.311 102.635 24.7813C102.88 25.2516 103.228 25.5889 103.678 25.7934C104.128 25.9774 104.548 26.1001 104.936 26.1614C105.345 26.2228 105.847 26.2534 106.44 26.2534V28.8297C104.087 28.8297 102.348 28.3799 101.223 27.4802C100.098 26.5806 99.5351 25.088 99.5351 23.0024V16.6844Z" fill="white"/>
<path d="M121.55 26.1308V28.8297H117.07C116.231 28.8297 115.566 28.8195 115.075 28.799C114.605 28.7581 114.011 28.6355 113.295 28.431C112.579 28.2061 111.976 27.8789 111.484 27.4496C110.728 26.7544 110.236 25.9263 110.011 24.9653C109.786 23.9839 109.674 22.8389 109.674 21.5303V7.36078H112.559V21.4689C112.559 22.6548 112.692 23.5852 112.958 24.2599C113.489 25.5071 114.605 26.1308 116.303 26.1308H121.55Z" fill="white"/>
<path d="M131.384 13.8015C134.862 13.9446 136.601 15.3861 136.601 18.1259C136.601 21.5405 134.361 23.2478 129.88 23.2478H128.622V20.8862H130.095C131.466 20.8862 132.417 20.6817 132.949 20.2728C133.481 19.8434 133.747 19.138 133.747 18.1566C133.747 17.5227 133.511 17.0525 133.041 16.7458C132.57 16.4186 131.967 16.2551 131.23 16.2551C129.778 16.2551 128.632 16.7662 127.793 17.7885C126.975 18.8109 126.566 20.0377 126.566 21.4689C126.566 22.982 127.005 24.2088 127.885 25.1493C128.785 26.0899 129.952 26.5601 131.384 26.5601C132.673 26.5601 133.726 26.2432 134.545 25.6094L136.386 27.4189C134.974 28.5639 133.307 29.1364 131.384 29.1364C129.051 29.1364 127.19 28.4514 125.798 27.0815C124.407 25.7116 123.712 23.943 123.712 21.7756C123.712 19.3629 124.397 17.4103 125.768 15.9177C127.138 14.4251 129.01 13.7197 131.384 13.8015Z" fill="white"/>
<path d="M139.82 14.1082H145.129C147.4 14.1082 149.026 14.4455 150.008 15.1203C150.888 15.7132 151.44 16.4288 151.665 17.2672C151.911 18.085 152.034 19.1687 152.034 20.5182V28.8297H149.333V20.5488C149.333 20.1808 149.323 19.8741 149.302 19.6287C149.282 19.3629 149.21 19.0358 149.088 18.6473C148.965 18.2384 148.791 17.9112 148.566 17.6659C148.341 17.4001 148.013 17.1751 147.584 16.9911C147.154 16.7867 146.632 16.6844 146.019 16.6844H142.52V28.8297H139.82V14.1082Z" fill="white"/>
<path d="M167.238 7.36078H170V28.8297H162.788C160.558 28.8297 158.747 28.1243 157.356 26.7135C155.965 25.2822 155.269 23.4829 155.269 21.3156C155.269 19.1891 155.985 17.4103 157.418 15.979C158.87 14.5273 160.589 13.8015 162.573 13.8015C163.842 13.8015 165.028 14.1082 166.133 14.7216V17.4818C165.11 16.7458 163.924 16.3777 162.573 16.3777C161.346 16.3777 160.302 16.8378 159.443 17.7579C158.604 18.6575 158.185 19.8434 158.185 21.3156C158.185 22.8082 158.584 24.0043 159.382 24.904C160.2 25.8036 161.336 26.2534 162.788 26.2534H167.238V7.36078Z" fill="white"/>
</svg>
