<svg width="12" height="12" viewBox="0 0 12 12" fill="none" xmlns="http://www.w3.org/2000/svg">
<path d="M9.39539 0H2.60435C1.16824 0 0 1.13115 0 2.52191V9.47809C0 10.8689 1.16824 12 2.60423 12H9.39539C10.8318 12 12 10.8689 12 9.47809V2.52191C12 1.13115 10.8318 0 9.39539 0ZM2.60435 10.9957C1.74032 10.9957 1.03734 10.3151 1.03734 9.47821V2.52203C1.03734 1.68506 1.74032 1.00452 2.60435 1.00452H9.39552C10.2599 1.00452 10.9628 1.68518 10.9628 2.52203V9.47809C10.9628 10.3151 10.2598 10.9956 9.39552 10.9956L2.60435 10.9957Z" fill="#6726EB"/>
<path d="M2.40002 7.20001H9.60002V6.21349H2.40002V7.20001ZM2.40002 4.58653H6.43411V3.60001H2.40002V4.58653Z" fill="#6726EB"/>
</svg>
