<svg width="50" height="50" viewBox="0 0 50 50" fill="none" xmlns="http://www.w3.org/2000/svg">
<path d="M22.5783 44.777C9.19303 35.4548 5.84648 28.5441 5.84648 21.7939V11.6689C14.7711 11.6689 22.5783 4.59831 22.5783 4.59831C22.5783 4.59831 30.3852 11.6689 39.31 11.6689V19.8669C39.31 20.9286 39.2269 21.9944 39.0354 23.073C40.1541 23.3402 41.2176 23.7492 42.2066 24.2799C42.5085 22.8408 42.6562 21.3739 42.6562 19.8669V11.6689C42.6562 9.82012 41.1581 8.32064 39.31 8.32064C31.882 8.32064 24.892 2.17852 24.8233 2.11647C24.1861 1.53789 23.3822 1.25 22.5783 1.25C21.7759 1.25 20.9736 1.53789 20.3363 2.11159C20.2317 2.20469 13.3137 8.32064 5.84622 8.32064C3.99844 8.32064 2.5 9.81986 2.5 11.6689V21.7937C2.5 30.9622 7.93288 38.6574 20.6663 47.5248C21.2413 47.9257 21.91 48.125 22.5783 48.125C23.2466 48.125 23.9147 47.9256 24.49 47.5248C24.9548 47.201 25.409 46.8791 25.8546 46.5581C25.128 45.7115 24.5067 44.7723 24.0098 43.7607C23.5454 44.0964 23.0693 44.4349 22.5783 44.777Z" fill="#3D56D6" stroke="white"/>
<path d="M30.9323 18.0112L22.0075 27.0742L17.0966 22.0894C16.4273 21.4084 15.0886 21.4084 14.4193 22.0894C13.9718 22.5427 13.75 22.9961 13.75 23.4494C13.75 23.9027 13.9718 24.3561 14.4193 24.8075L20.6688 30.9266C21.1144 31.38 21.5599 31.6076 22.0075 31.6076C22.2312 31.6076 22.455 31.6076 22.6768 31.38C22.9005 31.38 23.1243 31.1523 23.3461 31.1523L33.6134 20.7293C34.0609 20.276 34.2827 19.8227 34.2827 19.3713C34.2827 18.9179 34.059 18.4646 33.6134 18.0093C32.9441 17.3302 31.6055 17.3302 30.9342 18.0093L30.9323 18.0112Z" fill="#3D56D6" stroke="white"/>
<circle cx="38.75" cy="38.75" r="10" fill="#E0E5FF" stroke="#3D56D6" stroke-width="1.8" stroke-linecap="round" stroke-linejoin="round"/>
<path d="M42.8317 34.6692C41.6046 33.4423 39.6101 33.445 38.3857 34.6692C37.3763 35.6785 37.213 37.2073 37.8688 38.4016L34.0051 42.2619C33.665 42.602 33.665 43.1542 34.0051 43.4943C34.1765 43.6657 34.3969 43.75 34.62 43.75C34.8431 43.75 35.0662 43.6657 35.2349 43.4943L36.8267 41.9001L38.1136 43.1869C38.2851 43.3583 38.5082 43.4426 38.7286 43.4426C38.9517 43.4426 39.1748 43.3583 39.3435 43.1869C39.6836 42.8468 39.6836 42.2946 39.3435 41.9545L38.062 40.6677L39.0986 39.6313C39.5693 39.8897 40.0863 40.0339 40.6087 40.0339C41.4141 40.0339 42.2195 39.7265 42.8317 39.1144C44.0561 37.8902 44.0561 35.8934 42.8317 34.6692ZM41.6018 37.882C41.0549 38.4288 40.1652 38.4288 39.6183 37.882C39.0714 37.3352 39.0714 36.4456 39.6183 35.8988C39.8904 35.6268 40.2523 35.4907 40.6114 35.4907C40.9706 35.4907 41.3298 35.6268 41.6046 35.8988C42.146 36.4456 42.146 37.3352 41.6018 37.882Z" fill="#3D56D6"/>
</svg>
