<svg width="16" height="16" viewBox="0 0 16 16" fill="none" xmlns="http://www.w3.org/2000/svg">
<path d="M10.616 11.6695L11.9273 5.48218C12.0433 4.93673 11.7309 4.72327 11.3735 4.85709L3.66073 7.83018C3.13382 8.03527 3.14291 8.33018 3.57164 8.464L5.54473 9.08L10.1265 6.196C10.3407 6.05309 10.5375 6.13382 10.3767 6.27673L6.67019 9.62436L6.52728 11.6607C6.60457 11.661 6.6809 11.6435 6.75029 11.6094C6.81967 11.5754 6.88025 11.5257 6.92728 11.4644L7.89128 10.536L9.89128 12.0091C10.2575 12.2142 10.5164 12.1073 10.6145 11.6698L10.616 11.6695ZM16 8C16 9.58225 15.5308 11.129 14.6518 12.4446C13.7727 13.7602 12.5233 14.7855 11.0615 15.391C9.59966 15.9965 7.99113 16.155 6.43928 15.8463C4.88743 15.5376 3.46197 14.7757 2.34315 13.6569C1.22433 12.538 0.462403 11.1126 0.153721 9.56072C-0.15496 8.00887 0.00346625 6.40034 0.608967 4.93853C1.21447 3.47672 2.23985 2.22729 3.55544 1.34824C4.87103 0.469192 6.41775 0 8 0C10.1217 0 12.1566 0.842855 13.6569 2.34315C15.1571 3.84344 16 5.87827 16 8Z" fill="#84869E"/>
</svg>
