<svg width="10" height="10" viewBox="0 0 10 10" fill="none" xmlns="http://www.w3.org/2000/svg">
<path d="M5 0C6.32608 0 7.59785 0.526784 8.53553 1.46447C9.47322 2.40215 10 3.67392 10 5C10 6.32608 9.47322 7.59785 8.53553 8.53553C7.59785 9.47322 6.32608 10 5 10C3.67392 10 2.40215 9.47322 1.46447 8.53553C0.526784 7.59785 0 6.32608 0 5C0 3.67392 0.526784 2.40215 1.46447 1.46447C2.40215 0.526784 3.67392 0 5 0V0ZM5.02571 6.94571C4.91357 6.94571 4.80601 6.99027 4.72671 7.06957C4.64741 7.14887 4.60286 7.25642 4.60286 7.36857C4.60286 7.48072 4.64741 7.58828 4.72671 7.66758C4.80601 7.74688 4.91357 7.79143 5.02571 7.79143C5.13786 7.79143 5.24542 7.74688 5.32472 7.66758C5.40402 7.58828 5.44857 7.48072 5.44857 7.36857C5.44857 7.25642 5.40402 7.14887 5.32472 7.06957C5.24542 6.99027 5.13786 6.94571 5.02571 6.94571ZM5.02071 2.08143C4.79075 2.08118 4.56303 2.12651 4.35068 2.21478C4.13834 2.30305 3.94559 2.43252 3.78357 2.59571C3.62066 2.75813 3.49153 2.9512 3.40363 3.16378C3.31572 3.37636 3.27079 3.60425 3.27143 3.83429C3.27143 3.92759 3.30849 4.01706 3.37446 4.08304C3.44044 4.14901 3.52992 4.18607 3.62321 4.18607C3.71651 4.18607 3.80599 4.14901 3.87196 4.08304C3.93794 4.01706 3.975 3.92759 3.975 3.83429C3.975 3.25571 4.44571 2.785 5.025 2.78429C5.325 2.78429 5.61357 2.90714 5.81786 3.12214C5.99714 3.31071 6.08786 3.55 6.075 3.79714C6.065 4.00929 6.05357 4.20929 5.42429 4.83929C5.03071 5.23214 4.67286 5.62643 4.625 6.11357C4.60643 6.30643 4.74714 6.48 4.94071 6.49786C4.98674 6.50249 5.03323 6.498 5.07751 6.48462C5.12179 6.47125 5.163 6.44927 5.19877 6.41994C5.23454 6.39061 5.26416 6.3545 5.28595 6.3137C5.30773 6.27289 5.32125 6.22818 5.32571 6.18214C5.34786 5.95143 5.56929 5.68786 5.92143 5.33643C6.61429 4.64286 6.75357 4.28571 6.77786 3.83429C6.78898 3.61465 6.75476 3.39508 6.67734 3.18925C6.59993 2.98341 6.48096 2.79572 6.32786 2.63786C6.15903 2.46135 5.95613 2.32096 5.73144 2.22519C5.50675 2.12942 5.26496 2.08027 5.02071 2.08071V2.08143Z" fill="#999999"/>
</svg>
