<svg width="16" height="16" viewBox="0 0 16 16" fill="none" xmlns="http://www.w3.org/2000/svg">
<path d="M8.00006 15.4667C3.87673 15.4667 0.533386 12.1233 0.533386 8C0.533386 3.87667 3.87673 0.533325 8.00006 0.533325C12.1234 0.533325 15.4667 3.87667 15.4667 8C15.4667 12.1233 12.1234 15.4667 8.00006 15.4667ZM8.00006 14.4717C11.5734 14.4717 14.4717 11.575 14.4717 8C14.4717 4.425 11.5734 1.52833 8.00006 1.52833C4.42673 1.52833 1.52839 4.42667 1.52839 8C1.52839 11.5733 4.42673 14.4717 8.00006 14.4717Z" fill="#84869E"/>
<path d="M8.1934 4.35001C8.8734 4.35001 9.42507 4.53001 9.85007 4.91333C10.2751 5.28501 10.4867 5.79501 10.4867 6.43168C10.4867 6.95168 10.3484 7.38668 10.0834 7.72668C9.9884 7.84334 9.69007 8.12001 9.19174 8.55501C8.99007 8.72501 8.84174 8.91668 8.74507 9.10668C8.6284 9.31834 8.57507 9.55334 8.57507 9.80834V9.98834H7.4384V9.80834C7.4384 9.41501 7.50174 9.07501 7.65007 8.80001C7.7884 8.50334 8.19174 8.06668 8.85007 7.48334L9.03007 7.28168C9.22174 7.03668 9.32674 6.78334 9.32674 6.50668C9.32674 6.13501 9.22007 5.84834 9.0184 5.63668C8.80674 5.42501 8.4984 5.31833 8.11507 5.31833C7.63674 5.31833 7.28674 5.46668 7.07507 5.77501C6.8834 6.03001 6.7884 6.39168 6.7884 6.85834H5.6734C5.6734 6.08334 5.89674 5.47834 6.34174 5.03168C6.79174 4.57333 7.4084 4.35001 8.1934 4.35001ZM8.0034 10.5617C8.22674 10.5617 8.41674 10.625 8.56674 10.7733C8.71507 10.9117 8.79007 11.0917 8.79007 11.315C8.79007 11.5383 8.70507 11.7183 8.55674 11.8667C8.4084 12.005 8.21674 12.0783 8.00507 12.0783C7.7934 12.0783 7.60174 12.0033 7.4534 11.855C7.30507 11.7067 7.23007 11.525 7.23007 11.3133C7.23007 11.09 7.30507 10.91 7.4534 10.7717C7.5984 10.625 7.79007 10.5617 8.0034 10.5617Z" fill="#84869E"/>
</svg>
