<svg width="16" height="16" viewBox="0 0 16 16" fill="none" xmlns="http://www.w3.org/2000/svg">
<path d="M8.00023 0C3.56946 0 0.000228882 3.56923 0.000228882 8C0.000228882 12.4308 3.56946 16 8.00023 16C12.431 16 16.0002 12.4308 16.0002 8C16.0002 3.56923 12.431 0 8.00023 0ZM11.8772 5.72308C11.8156 5.78462 11.8156 5.84615 11.7541 5.84615C11.631 5.96923 11.5079 6.03077 11.3848 6.09231C11.3233 6.09231 11.3233 6.15385 11.3233 6.21538C11.3848 6.89231 11.2618 7.56923 11.0156 8.24615C10.5848 9.41538 9.66177 10.3385 8.55408 10.8923C7.631 11.4462 6.52331 11.6308 5.53869 11.3846C5.04638 11.3231 4.61561 11.1385 4.24638 10.8923L4.18484 10.8308C4.18484 10.7692 4.24638 10.7077 4.30792 10.7077C4.61561 10.7077 4.92331 10.6462 5.231 10.5231C5.53869 10.4 5.84638 10.2154 6.09254 10.0308L6.15408 9.96923C6.15408 9.90769 6.15408 9.84615 6.09254 9.84615C5.84638 9.78462 5.66177 9.66154 5.47715 9.53846C5.231 9.41538 5.04638 9.16923 4.92331 8.92308V8.86154C4.92331 8.8 4.98484 8.73846 5.04638 8.73846H5.231C5.29254 8.73846 5.29254 8.73846 5.29254 8.67692C5.35408 8.61538 5.29254 8.55385 5.231 8.49231C4.98484 8.36923 4.80023 8.18462 4.61561 8C4.36946 7.75385 4.24638 7.44615 4.24638 7.13846V7.07692C4.24638 7.01538 4.36946 7.01538 4.36946 7.01538C4.431 7.01538 4.49254 7.07692 4.55408 7.07692H4.67715C4.73869 7.07692 4.73869 7.07692 4.80023 7.01538C4.86177 6.95385 4.86177 6.89231 4.80023 6.83077C4.55408 6.58462 4.36946 6.27692 4.30792 5.90769C4.24638 5.6 4.30792 5.23077 4.431 4.92308V4.86154C4.30792 4.92308 4.36946 4.92308 4.431 4.98462C4.86177 5.41538 5.29254 5.78462 5.84638 6.09231C6.46177 6.4 7.13869 6.58462 7.81561 6.58462C7.87715 6.58462 7.93869 6.52308 7.93869 6.46154C7.93869 6.09231 8.06177 4.86154 9.16946 4.55385C9.72331 4.36923 10.4002 4.49231 10.831 4.98462C10.831 4.98462 10.8925 5.04615 10.9541 5.04615C11.0772 5.04615 11.2002 4.98462 11.3848 4.98462C11.5079 4.92308 11.631 4.92308 11.7541 4.86154H11.8772C11.9387 4.86154 11.9387 4.98462 11.9387 5.04615C11.8772 5.16923 11.7541 5.29231 11.631 5.41538L11.5695 5.47692C11.5079 5.47692 11.5079 5.53846 11.5079 5.6C11.5079 5.66154 11.5695 5.72308 11.631 5.72308C11.6925 5.72308 11.7541 5.72308 11.8772 5.66154H12.0002C11.9387 5.6 11.9387 5.72308 11.8772 5.72308Z" fill="#3D56D6"/>
</svg>
