<svg width="16" height="16" viewBox="0 0 16 16" fill="none" xmlns="http://www.w3.org/2000/svg">
<path d="M8.00024 0C3.56947 0 0.000244141 3.56923 0.000244141 8C0.000244141 12.4308 3.56947 16 8.00024 16C12.431 16 16.0002 12.4308 16.0002 8C16.0002 3.56923 12.431 0 8.00024 0ZM11.8772 5.72308C11.8156 5.78462 11.8156 5.84615 11.7541 5.84615C11.631 5.96923 11.5079 6.03077 11.3849 6.09231C11.3233 6.09231 11.3233 6.15385 11.3233 6.21538C11.3849 6.89231 11.2618 7.56923 11.0156 8.24615C10.5849 9.41538 9.66178 10.3385 8.55409 10.8923C7.63101 11.4462 6.52332 11.6308 5.53871 11.3846C5.0464 11.3231 4.61563 11.1385 4.2464 10.8923L4.18486 10.8308C4.18486 10.7692 4.2464 10.7077 4.30794 10.7077C4.61563 10.7077 4.92332 10.6462 5.23101 10.5231C5.53871 10.4 5.8464 10.2154 6.09255 10.0308L6.15409 9.96923C6.15409 9.90769 6.15409 9.84615 6.09255 9.84615C5.8464 9.78462 5.66178 9.66154 5.47717 9.53846C5.23101 9.41538 5.0464 9.16923 4.92332 8.92308V8.86154C4.92332 8.8 4.98486 8.73846 5.0464 8.73846H5.23101C5.29255 8.73846 5.29255 8.73846 5.29255 8.67692C5.35409 8.61538 5.29255 8.55385 5.23101 8.49231C4.98486 8.36923 4.80024 8.18462 4.61563 8C4.36947 7.75385 4.2464 7.44615 4.2464 7.13846V7.07692C4.2464 7.01538 4.36947 7.01538 4.36947 7.01538C4.43101 7.01538 4.49255 7.07692 4.55409 7.07692H4.67717C4.73871 7.07692 4.73871 7.07692 4.80024 7.01538C4.86178 6.95385 4.86178 6.89231 4.80024 6.83077C4.55409 6.58462 4.36947 6.27692 4.30794 5.90769C4.2464 5.6 4.30794 5.23077 4.43101 4.92308V4.86154C4.30794 4.92308 4.36947 4.92308 4.43101 4.98462C4.86178 5.41538 5.29255 5.78462 5.8464 6.09231C6.46178 6.4 7.13871 6.58462 7.81563 6.58462C7.87717 6.58462 7.93871 6.52308 7.93871 6.46154C7.93871 6.09231 8.06178 4.86154 9.16947 4.55385C9.72332 4.36923 10.4002 4.49231 10.831 4.98462C10.831 4.98462 10.8926 5.04615 10.9541 5.04615C11.0772 5.04615 11.2002 4.98462 11.3849 4.98462C11.5079 4.92308 11.631 4.92308 11.7541 4.86154H11.8772C11.9387 4.86154 11.9387 4.98462 11.9387 5.04615C11.8772 5.16923 11.7541 5.29231 11.631 5.41538L11.5695 5.47692C11.5079 5.47692 11.5079 5.53846 11.5079 5.6C11.5079 5.66154 11.5695 5.72308 11.631 5.72308C11.6926 5.72308 11.7541 5.72308 11.8772 5.66154H12.0002C11.9387 5.6 11.9387 5.72308 11.8772 5.72308Z" fill="#84869E"/>
</svg>
