<svg width="40" height="40" viewBox="0 0 40 40" fill="none" xmlns="http://www.w3.org/2000/svg">
<rect width="40" height="40" rx="8" fill="white"/>
<path d="M29.0624 27.9888C28.8784 27.7088 28.6032 27.616 28.328 27.616H21.1704L27.9608 20.7224C28.6032 20.1624 28.9704 19.2312 28.9704 18.3928C28.9704 17.5544 28.6032 16.716 27.9608 16.064L23.74 11.7784C23.4341 11.4686 23.0698 11.2226 22.6681 11.0547C22.2664 10.8867 21.8354 10.8003 21.4 10.8003C20.9646 10.8003 20.5336 10.8867 20.1319 11.0547C19.7302 11.2226 19.3659 11.4686 19.06 11.7784L11.992 18.952C10.8 20.256 10.8 22.3992 11.9928 23.704L15.9392 27.616H11.4424C11.0752 27.616 10.8 27.9888 10.8 28.3616C10.8 28.8272 11.0752 29.1072 11.4424 29.2H28.328C28.6032 29.2 28.8792 29.1072 29.0624 28.8272C29.2464 28.5472 29.2464 28.268 29.0624 27.9888ZM18.5088 27.4296C18.0496 27.4296 17.5912 27.2432 17.224 26.8712L13.0024 22.5856C12.6536 22.2409 12.4557 21.772 12.452 21.2816C12.452 20.8152 12.636 20.3496 13.0024 19.9768L20.1608 12.8032C20.528 12.4304 20.9864 12.244 21.4456 12.244C21.904 12.244 22.3632 12.4304 22.6384 12.8032L26.86 17.0888C27.2272 17.4616 27.4104 17.9272 27.4104 18.3928C27.4104 18.8584 27.2264 19.3248 26.86 19.6968L19.7936 26.8712C19.4264 27.2432 18.9672 27.4296 18.5088 27.4296ZM22.8216 18.1136L19.152 21.84L17.1328 19.7904C16.8576 19.5104 16.3072 19.5104 16.032 19.7904C15.848 19.9768 15.7568 20.1632 15.7568 20.3496C15.7568 20.536 15.848 20.7224 16.032 20.908L18.6016 23.424C18.7848 23.6104 18.968 23.704 19.152 23.704C19.244 23.704 19.336 23.704 19.4272 23.6104C19.5192 23.6104 19.6112 23.5168 19.7024 23.5168L23.924 19.2312C24.108 19.0448 24.1992 18.8584 24.1992 18.6728C24.1992 18.4864 24.1072 18.3 23.924 18.1128C23.6488 17.8336 23.0984 17.8336 22.8224 18.1128L22.8216 18.1136Z" fill="#0F134F"/>
</svg>
