<svg width="50" height="50" viewBox="0 0 50 50" fill="none" xmlns="http://www.w3.org/2000/svg">
<g clip-path="url(#clip0)">
<path d="M44.4159 44.3042C43.9684 43.6233 43.2991 43.3976 42.6298 43.3976H25.2218L41.7367 26.6317C43.2991 25.2697 44.1922 23.0049 44.1922 20.9658C44.1922 18.9268 43.2991 16.8877 41.7367 15.302L31.4713 4.87899C30.7275 4.12541 29.8413 3.52706 28.8644 3.11868C27.8874 2.71029 26.8391 2.5 25.7802 2.5C24.7213 2.5 23.673 2.71029 22.6961 3.11868C21.7191 3.52706 20.833 4.12541 20.0891 4.87899L2.89906 22.3259C1.81205e-07 25.4973 -1.81205e-07 30.7098 2.901 33.8832L12.499 43.3976H1.56238C0.669313 43.3976 0 44.3042 0 45.2109C0 46.3433 0.669313 47.0243 1.56238 47.25H42.6298C43.2991 47.25 43.9704 47.0243 44.4159 46.3433C44.8634 45.6623 44.8634 44.9833 44.4159 44.3042ZM18.7485 42.9442C17.6317 42.9442 16.5169 42.4909 15.6238 41.5861L5.35645 31.1631C4.50812 30.3248 4.02674 29.1843 4.01782 27.9917C4.01782 26.8574 4.46533 25.725 5.35645 24.8183L22.7664 7.3714C23.6594 6.46471 24.7743 6.01137 25.8911 6.01137C27.006 6.01137 28.1228 6.46471 28.7921 7.3714L39.0595 17.7944C39.9525 18.7011 40.3981 19.8335 40.3981 20.9658C40.3981 22.0982 39.9506 23.2326 39.0595 24.1373L21.8733 41.5861C20.9802 42.4909 19.8634 42.9442 18.7485 42.9442ZM29.2377 20.2868L20.3129 29.3498L15.402 24.3649C14.7327 23.684 13.394 23.684 12.7247 24.3649C12.2772 24.8183 12.0554 25.2716 12.0554 25.725C12.0554 26.1783 12.2772 26.6317 12.7247 27.0831L18.9742 33.2022C19.4198 33.6556 19.8654 33.8832 20.3129 33.8832C20.5366 33.8832 20.7604 33.8832 20.9822 33.6556C21.2059 33.6556 21.4297 33.4279 21.6515 33.4279L31.9188 23.0049C32.3663 22.5516 32.5881 22.0982 32.5881 21.6468C32.5881 21.1935 32.3644 20.7401 31.9188 20.2849C31.2495 19.6058 29.9109 19.6058 29.2396 20.2849L29.2377 20.2868Z" fill="#3D56D6" stroke="white" stroke-width="1.5"/>
<ellipse cx="38.9195" cy="37.6356" rx="3.91949" ry="3.88559" fill="#E0E5FF" stroke="#3D56D6" stroke-width="1.6" stroke-linecap="round" stroke-linejoin="round"/>
<ellipse cx="45.1605" cy="30.1375" rx="2.66051" ry="2.6375" fill="#E0E5FF" stroke="#3D56D6" stroke-width="1.4" stroke-linecap="round" stroke-linejoin="round"/>
</g>
<defs>
<clipPath id="clip0">
<rect width="50" height="50" fill="white"/>
</clipPath>
</defs>
</svg>
