<svg width="12" height="12" viewBox="0 0 12 12" fill="none" xmlns="http://www.w3.org/2000/svg">
<circle cx="6" cy="6" r="6" fill="#F5820D"/>
<path fill-rule="evenodd" clip-rule="evenodd" d="M5.25017 3.41259C5.2 2.96606 5.54941 2.5752 5.99875 2.5752C6.44898 2.5752 6.79866 2.96752 6.74709 3.41478L6.38303 6.57206H5.6051L5.25017 3.41259ZM5.99401 7.71429C6.25057 7.71429 6.4566 7.79421 6.61209 7.95405C6.77535 8.1059 6.85699 8.30969 6.85699 8.56543C6.85699 8.81319 6.77535 9.02098 6.61209 9.18881C6.43327 9.34865 6.22725 9.42857 5.99401 9.42857C5.76077 9.42857 5.56253 9.34466 5.39926 9.17682C5.22822 9.00899 5.1427 8.8052 5.1427 8.56543C5.1427 8.30969 5.22822 8.1059 5.39926 7.95405C5.55475 7.79421 5.753 7.71429 5.99401 7.71429Z" fill="white"/>
</svg>
