<svg width="20" height="20" viewBox="0 0 20 20" fill="none" xmlns="http://www.w3.org/2000/svg">
<path fill-rule="evenodd" clip-rule="evenodd" d="M12.9076 6.04141V3.12936H10.5135V6.03908L11.1972 5.70891C11.3568 5.63013 11.5325 5.5894 11.7106 5.5899C11.8884 5.59079 12.0638 5.63145 12.2239 5.70891L12.9076 6.04141ZM9.38417 3.12936V7.44144C9.38417 7.58028 9.51134 7.68178 9.65251 7.68178C9.69645 7.68199 9.73989 7.67242 9.77968 7.65378L11.6907 6.72743C11.6976 6.72391 11.7052 6.72192 11.7129 6.72159C11.7182 6.72159 11.7225 6.72305 11.7274 6.72471C11.73 6.72563 11.7329 6.7266 11.7362 6.72743L13.6461 7.65378C13.6859 7.67242 13.7293 7.68199 13.7733 7.68178C13.9133 7.68178 14.0416 7.58028 14.0416 7.44144V3.12936H14.9644C15.2234 3.12936 15.4357 3.34053 15.4357 3.6007V16.3993C15.4357 16.5244 15.3861 16.6444 15.2978 16.733C15.2094 16.8216 15.0895 16.8715 14.9644 16.8718H4.6007C4.47579 16.8715 4.35608 16.8217 4.26775 16.7334C4.17943 16.6451 4.12967 16.5254 4.12936 16.4005V3.6007C4.12936 3.34053 4.34053 3.12936 4.6007 3.12936H9.38417ZM9.65104 2H4.6007C4.39041 1.9997 4.18212 2.04089 3.98778 2.12122C3.79343 2.20156 3.61685 2.31945 3.46815 2.46815C3.31945 2.61685 3.20156 2.79343 3.12122 2.98778C3.04089 3.18212 2.9997 3.39041 3 3.6007V16.3993C3 17.2836 3.71635 18 4.6007 18H14.9644C15.8476 18 16.5639 17.2836 16.5639 16.4005V3.6007C16.5639 2.71635 15.8476 2 14.9644 2H13.7712C13.7707 2 13.7703 2 13.7698 2H9.65251C9.65202 2 9.65153 2 9.65104 2ZM6.09061 10.9718H13.4711V10.973C13.6208 10.973 13.7645 10.9135 13.8704 10.8076C13.9763 10.7017 14.0358 10.5581 14.0358 10.4083C14.0358 10.2586 13.9763 10.1149 13.8704 10.009C13.7645 9.90315 13.6208 9.84365 13.4711 9.84365H6.09061C5.78027 9.84365 5.52593 10.098 5.52593 10.4083C5.52655 10.5578 5.58627 10.7009 5.69207 10.8065C5.79787 10.9121 5.94114 10.9715 6.09061 10.9718ZM6.09061 13.9621H10.1892C10.3385 13.9615 10.4814 13.9019 10.587 13.7963C10.6925 13.6908 10.7521 13.5478 10.7527 13.3986C10.7527 13.0882 10.4995 12.8339 10.1892 12.8339H6.09061C5.78027 12.8339 5.52593 13.0882 5.52593 13.3986C5.52655 13.548 5.58627 13.6912 5.69207 13.7968C5.79787 13.9023 5.94114 13.9618 6.09061 13.9621Z" fill="#3D56D6"/>
</svg>
