<?xml version="1.0" encoding="UTF-8"?>
<svg width="72px" height="40px" viewBox="0 0 72 40" version="1.1" xmlns="http://www.w3.org/2000/svg" xmlns:xlink="http://www.w3.org/1999/xlink">
    <!-- Generator: Sketch 53.2 (72643) - https://sketchapp.com -->
    <title>HT/TRX LP</title>
    <desc>Created with Sketch.</desc>
    <g id="0921版本" stroke="none" stroke-width="1" fill="none" fill-rule="evenodd">
        <g id="首页0921" transform="translate(-1199.000000, -888.000000)">
            <g id="Group-3-Copy-16" transform="translate(1179.000000, 868.000000)">
                <g id="HT/TRX-LP" transform="translate(20.000000, 20.000000)">
                    <g id="HT-02" fill="#0855D9" fill-rule="nonzero">
                        <circle id="Oval" opacity="0.1" cx="19.9619718" cy="19.9619718" r="19.9619718"></circle>
                        <g id="Group" transform="translate(12.394366, 6.619718)">
                            <path d="M10.2605634,7.47042254 C10.2605634,4.03098592 8.58450704,1.07323944 7.31126761,0.109859155 C7.3056338,0.107042254 7.21408451,0.0549295775 7.22112676,0.192957746 C7.22112676,0.194366197 7.21971831,0.195774648 7.21971831,0.197183099 C7.11408451,6.83802817 3.72112676,8.63802817 1.85633803,11.0619718 C-2.44788732,16.6577465 1.55492958,22.7915493 5.63098592,23.9253521 C7.91126761,24.5591549 5.10422535,22.8028169 4.74225352,19.0915493 C4.30422535,14.6070423 10.2605634,11.1830986 10.2605634,7.47042254 Z" id="Path"></path>
                            <path d="M12.215493,9.73098592 C12.1887324,9.71267606 12.1521127,9.70140845 12.1267606,9.74366197 C12.056338,10.5802817 11.2028169,12.3676056 10.1197183,14.0098592 C6.44929577,19.5788732 8.54084507,22.2647887 9.71690141,23.7056338 C10.4,24.5422535 9.71690141,23.7056338 11.4239437,22.8507042 C11.5577465,22.7830986 14.7549296,20.9901408 15.1014085,16.9056338 C15.4380282,12.9492958 13.0619718,10.4549296 12.215493,9.73098592 Z" id="Path"></path>
                        </g>
                    </g>
                    <g id="Group-7" transform="translate(32.000000, 0.000000)" fill="#C53228">
                        <g id="TRX">
                            <circle id="Oval" opacity="0.1" cx="20" cy="20" r="20"></circle>
                            <path d="M8.8,8 L18.3950151,32 L31.7632653,15.808049 L27.03042,11.335194 L8.8,8 Z M12.2015627,9.90906635 L25.3421364,12.313496 L20.2414225,16.5383992 L12.2015627,9.90906635 Z M11.2903134,10.8020167 L19.6692427,17.7111731 L18.359152,28.4849194 L11.2903134,10.8020167 Z M26.7369945,12.8050779 L29.5256239,15.4407131 L21.8992768,16.8133609 L26.7369945,12.8050779 Z M20.8820682,18.2827046 L29.3278333,16.762042 L19.6404435,28.4962636 L20.8820682,18.2827046 Z" id="Fill-1"></path>
                        </g>
                    </g>
                </g>
            </g>
        </g>
    </g>
</svg>