<svg width="80" height="80" viewBox="0 0 80 80" fill="none" xmlns="http://www.w3.org/2000/svg">
<circle cx="41.4286" cy="41.4286" r="35.7143" fill="#F7F8FB"/>
<circle cx="41.4286" cy="41.4286" r="24.2857" fill="#0F134F"/>
<mask id="mask0" mask-type="alpha" maskUnits="userSpaceOnUse" x="17" y="17" width="49" height="49">
<circle cx="41.4286" cy="41.4286" r="24.2857" fill="white"/>
</mask>
<g mask="url(#mask0)">
<path d="M40.9157 11.3456V28.2673" stroke="white" stroke-width="1.09677"/>
<path d="M38.4088 11.3456V28.2673" stroke="white" stroke-width="1.09677"/>
<path d="M44.206 11.3456V28.2673" stroke="white" stroke-width="1.09677"/>
<path d="M30.3042 14.6419L35.7909 24.8756V13.2258" stroke="white" stroke-width="1.09677"/>
<path d="M52.2424 14.3286L46.7558 24.5622V12.9125" stroke="white" stroke-width="1.09677"/>
<path d="M41.785 73.7051V56.7834" stroke="white" stroke-width="1.09677"/>
<path d="M44.2919 73.7051V56.7834" stroke="white" stroke-width="1.09677"/>
<path d="M38.4947 73.7051V56.7834" stroke="white" stroke-width="1.09677"/>
<path d="M52.5559 70.6207L47.0692 60.3871V72.0368" stroke="white" stroke-width="1.09677"/>
<path d="M30.3042 70.7775L35.7909 60.5438V72.1935" stroke="white" stroke-width="1.09677"/>
<path d="M10.1704 42.9601H27.0921" stroke="white" stroke-width="1.09677"/>
<path d="M10.1704 45.467H27.0921" stroke="white" stroke-width="1.09677"/>
<path d="M10.1704 39.6698H27.0921" stroke="white" stroke-width="1.09677"/>
<path d="M13.075 53.6526L23.3087 48.1659H11.6589" stroke="white" stroke-width="1.09677"/>
<path d="M14.1718 32.0276L24.4055 37.5143H12.7557" stroke="white" stroke-width="1.09677"/>
<path d="M72.53 42.0907H55.6083" stroke="white" stroke-width="1.09677"/>
<path d="M72.53 39.5837H55.6083" stroke="white" stroke-width="1.09677"/>
<path d="M72.53 45.381H55.6083" stroke="white" stroke-width="1.09677"/>
<path d="M69.0539 31.4009L58.8202 36.8876H70.47" stroke="white" stroke-width="1.09677"/>
<path d="M69.6806 53.4958L59.447 48.0092H71.0967" stroke="white" stroke-width="1.09677"/>
<path d="M19.6103 64.8802L31.5757 52.9147" stroke="white" stroke-width="1.09677"/>
<path d="M21.3829 66.6529L33.3483 54.6874" stroke="white" stroke-width="1.09677"/>
<path d="M17.2836 62.5536L29.249 50.5881" stroke="white" stroke-width="1.09677"/>
<path d="M29.858 70.4063L33.2147 59.2904L24.977 67.528" stroke="white" stroke-width="1.09677"/>
<path d="M13.6004 54.3054L24.7164 50.9488L16.4788 59.1864" stroke="white" stroke-width="1.09677"/>
<path d="M63.0902 20.1706L51.1248 32.136" stroke="white" stroke-width="1.09677"/>
<path d="M61.3178 18.3979L49.3523 30.3633" stroke="white" stroke-width="1.09677"/>
<path d="M65.4169 22.4972L53.4515 34.4626" stroke="white" stroke-width="1.09677"/>
<path d="M53.2088 15.0106L49.8521 26.1265L58.0897 17.8889" stroke="white" stroke-width="1.09677"/>
<path d="M68.9962 30.4847L57.8803 33.8414L66.1179 25.6037" stroke="white" stroke-width="1.09677"/>
<path d="M63.7049 64.2654L51.7395 52.2999" stroke="white" stroke-width="1.09677"/>
<path d="M65.4777 62.4927L53.5123 50.5273" stroke="white" stroke-width="1.09677"/>
<path d="M61.3783 66.592L49.4129 54.6265" stroke="white" stroke-width="1.09677"/>
<path d="M69.3094 54.3054L58.1935 50.9488L66.4311 59.1864" stroke="white" stroke-width="1.09677"/>
<path d="M53.3651 70.2496L50.0085 59.1337L58.2461 67.3713" stroke="white" stroke-width="1.09677"/>
<path d="M18.9955 20.7853L30.961 32.7507" stroke="white" stroke-width="1.09677"/>
<path d="M17.2228 22.558L29.1882 34.5234" stroke="white" stroke-width="1.09677"/>
<path d="M21.322 18.4587L33.2874 30.4241" stroke="white" stroke-width="1.09677"/>
<path d="M14.3837 31.268L25.4996 34.6247L17.262 26.3871" stroke="white" stroke-width="1.09677"/>
<path d="M29.7013 15.4806L33.0579 26.5965L24.8203 18.3589" stroke="white" stroke-width="1.09677"/>
</g>
<circle cx="41.3503" cy="41.5069" r="16.6866" fill="#0F134F" stroke="white" stroke-width="0.940092"/>
<mask id="mask1" mask-type="alpha" maskUnits="userSpaceOnUse" x="24" y="24" width="35" height="35">
<circle cx="41.5069" cy="41.5069" r="16.6866" fill="white" stroke="white" stroke-width="0.940092"/>
</mask>
<g mask="url(#mask1)">
<path fill-rule="evenodd" clip-rule="evenodd" d="M42.2902 24.1935L40.0966 41.8203H42.2902L41.4284 58.0786L57.4148 55.2166L60.3155 32.8958L53.27 26.7005L42.2902 24.1935Z" fill="white"/>
</g>
<path d="M26.0027 39.3003C26.3801 42.374 28.3796 45.5719 31.4524 45.1946C41.8816 43.9141 40.4162 37.2122 40.2757 35.0417C41.0305 41.189 45.6994 43.4453 53.5212 42.4849C55.8492 42.1991 56.8028 37.6493 56.5451 35.5502C56.2229 32.9263 49.2758 32.5427 40.6159 33.606C31.956 34.6693 25.5309 35.4582 26.0027 39.3003Z" fill="#0F134F" stroke="#0F134F" stroke-width="1.7235" stroke-linecap="round" stroke-linejoin="round"/>
<path d="M41.6044 52.0541C45.2378 51.7577 47.9636 48.8243 47.6926 45.5023L34.5346 46.5759C34.8057 49.8979 37.9709 52.3506 41.6044 52.0541Z" fill="white" stroke="#0F134F" stroke-width="0.78341" stroke-linejoin="round"/>
<path d="M43.3087 48.4793H46.9124" stroke="#0F134F" stroke-width="0.626728" stroke-linecap="round" stroke-linejoin="round"/>
<path d="M45.2674 41.0369C42.4471 39.9714 41.3242 37.1459 41.1153 35.8664C41.1153 34.1429 43.0738 33.9078 47.8526 33.9078C52.6314 33.9078 55.53 34.2995 55.7651 35.553C56.0001 37.7465 55.2167 41.0369 54.1199 41.5853C53.0231 42.1336 48.7927 42.3687 45.2674 41.0369Z" fill="white" stroke="black" stroke-width="0.156682"/>
<path d="M36.9719 42.5062C39.235 41.0146 40.4102 38.1383 39.7052 35.7097C39.3036 34.3265 37.0987 34.6658 32.9678 35.318C29.2858 35.8994 26.4655 37.5116 26.7789 38.9217C26.9355 41.2322 28.7179 43.6723 29.7559 44.0922C30.7939 44.5121 34.1429 44.3707 36.9719 42.5062Z" fill="white" stroke="black" stroke-width="0.156682"/>
<path d="M56.5484 28.424L57.9237 32.1408L61.6405 33.5162L57.9237 34.8915L56.5484 38.6083L55.173 34.8915L51.4562 33.5162L55.173 32.1408L56.5484 28.424Z" fill="white"/>
<path fill-rule="evenodd" clip-rule="evenodd" d="M51.6746 4.61269C52.283 3.15675 53.9565 2.46969 55.4125 3.07811C69.8476 9.11036 80 23.3663 80 40C80 62.0914 62.0914 80.0001 40 80.0001C28.6566 80.0001 18.4121 75.2746 11.1361 67.6926C10.0435 66.5541 10.0807 64.7454 11.2193 63.6529C12.3578 62.5603 14.1664 62.5975 15.259 63.736C21.5022 70.2417 30.2764 74.2858 40 74.2858C58.9355 74.2858 74.2857 58.9355 74.2857 40C74.2857 25.7508 65.5925 13.5254 53.2092 8.35055C51.7533 7.74213 51.0662 6.06864 51.6746 4.61269Z" fill="url(#paint0_angular)"/>
<circle cx="41.4287" cy="4.28571" r="4.28571" fill="#3D56D6"/>
<defs>
<radialGradient id="paint0_angular" cx="0" cy="0" r="1" gradientUnits="userSpaceOnUse" gradientTransform="translate(50.4975 59.862) rotate(90) scale(86.4068 47.1457)">
<stop offset="0.200113" stop-color="#00C2FF"/>
<stop offset="0.591769" stop-color="#5E4BFF"/>
</radialGradient>
</defs>
</svg>
