<svg width="28" height="28" viewBox="0 0 28 28" fill="none" xmlns="http://www.w3.org/2000/svg">
<path fill-rule="evenodd" clip-rule="evenodd" d="M25.6384 16.9025C24.0357 23.3318 17.5242 27.2433 11.0952 25.641C4.66842 24.0379 0.755671 17.5265 2.35955 11.0983C3.96117 4.6687 10.4727 0.756391 16.8998 2.35911C23.3292 3.96184 27.2408 10.474 25.6384 16.9025Z" fill="#F7F8FB"/>
<circle opacity="0.7" cx="14" cy="14" r="10" fill="#0F134F"/>
<mask id="mask0" mask-type="alpha" maskUnits="userSpaceOnUse" x="4" y="4" width="20" height="20">
<circle cx="14" cy="14" r="10" fill="white"/>
</mask>
<g mask="url(#mask0)">
<path d="M13.7982 1.6129V8.58064" stroke="white" stroke-width="0.54"/>
<path d="M12.7659 1.6129V8.58064" stroke="white" stroke-width="0.54"/>
<path d="M15.153 1.6129V8.58064" stroke="white" stroke-width="0.54"/>
<path d="M9.41937 2.9702L11.6786 7.18405V2.3871" stroke="white" stroke-width="0.54"/>
<path d="M18.4528 2.84116L16.1936 7.05501V2.25806" stroke="white" stroke-width="0.54"/>
<path d="M14.1373 27.2903V20.3226" stroke="white" stroke-width="0.54"/>
<path d="M15.1696 27.2903V20.3226" stroke="white" stroke-width="0.54"/>
<path d="M12.7825 27.2903V20.3226" stroke="white" stroke-width="0.54"/>
<path d="M18.5818 26.0203L16.3226 21.8065V26.6034" stroke="white" stroke-width="0.54"/>
<path d="M9.41938 26.0848L11.6786 21.871V26.6679" stroke="white" stroke-width="0.54"/>
<path d="M1.12903 14.6212H8.09678" stroke="white" stroke-width="0.54"/>
<path d="M1.12903 15.6535H8.09678" stroke="white" stroke-width="0.54"/>
<path d="M1.12903 13.2664H8.09678" stroke="white" stroke-width="0.54"/>
<path d="M2.32503 19.0334L6.53889 16.7742H1.74194" stroke="white" stroke-width="0.54"/>
<path d="M2.77665 10.129L6.99051 12.3882H2.19356" stroke="white" stroke-width="0.54"/>
<path d="M26.8065 14.282H19.8387" stroke="white" stroke-width="0.54"/>
<path d="M26.8065 13.2498H19.8387" stroke="white" stroke-width="0.54"/>
<path d="M26.8065 15.6369H19.8387" stroke="white" stroke-width="0.54"/>
<path d="M25.3751 9.87097L21.1613 12.1302H25.9582" stroke="white" stroke-width="0.54"/>
<path d="M25.6332 18.9689L21.4194 16.7097H26.2163" stroke="white" stroke-width="0.54"/>
<path d="M5.00933 23.6499L9.93627 18.7229" stroke="white" stroke-width="0.54"/>
<path d="M5.73924 24.3798L10.6662 19.4529" stroke="white" stroke-width="0.54"/>
<path d="M4.0513 22.6919L8.97824 17.7649" stroke="white" stroke-width="0.54"/>
<path d="M9.23564 25.932L10.6178 21.3548L7.22582 24.7468" stroke="white" stroke-width="0.54"/>
<path d="M2.54136 19.3022L7.11851 17.9201L3.72655 21.312" stroke="white" stroke-width="0.54"/>
<path d="M22.9262 5.25335L17.9992 10.1803" stroke="white" stroke-width="0.54"/>
<path d="M22.1963 4.52343L17.2693 9.45037" stroke="white" stroke-width="0.54"/>
<path d="M23.8842 6.21137L18.9572 11.1383" stroke="white" stroke-width="0.54"/>
<path d="M18.8506 3.12199L17.4685 7.69914L20.8604 4.30718" stroke="white" stroke-width="0.54"/>
<path d="M25.3514 9.49369L20.7742 10.8758L24.1662 7.48387" stroke="white" stroke-width="0.54"/>
<path d="M23.166 23.41L18.2391 18.4831" stroke="white" stroke-width="0.54"/>
<path d="M23.8959 22.6801L18.969 17.7532" stroke="white" stroke-width="0.54"/>
<path d="M22.208 24.368L17.281 19.4411" stroke="white" stroke-width="0.54"/>
<path d="M25.4804 19.3022L20.9032 17.9201L24.2952 21.312" stroke="white" stroke-width="0.54"/>
<path d="M18.9151 25.8675L17.533 21.2903L20.9249 24.6823" stroke="white" stroke-width="0.54"/>
<path d="M4.76949 5.49319L9.69642 10.4201" stroke="white" stroke-width="0.54"/>
<path d="M4.03958 6.22311L8.96651 11.15" stroke="white" stroke-width="0.54"/>
<path d="M5.7275 4.53517L10.6544 9.46211" stroke="white" stroke-width="0.54"/>
<path d="M2.86393 9.81627L7.44108 11.1984L4.04912 7.80645" stroke="white" stroke-width="0.54"/>
<path d="M9.17109 3.31554L10.5532 7.89269L7.16128 4.50073" stroke="white" stroke-width="0.54"/>
</g>
<circle cx="13.9677" cy="14.4839" r="6.92742" fill="#0F134F" stroke="white" stroke-width="0.5"/>
<mask id="mask1" mask-type="alpha" maskUnits="userSpaceOnUse" x="6" y="7" width="16" height="15">
<circle cx="13.9677" cy="14.4839" r="6.92742" fill="white" stroke="white" stroke-width="0.5"/>
</mask>
<g mask="url(#mask1)">
<path fill-rule="evenodd" clip-rule="evenodd" d="M15.1436 7.7591L13.7887 15.9355H15.7329L14 21.5011L20.5826 20.3226L21.777 11.1317L18.8759 8.58065L15.1436 7.7591Z" fill="white"/>
</g>
<path fill-rule="evenodd" clip-rule="evenodd" d="M9.2019 12.7157C9.11982 12.4774 9.11982 12.0125 9.61512 11.9449C9.92669 11.9023 13.65 12.0457 14.0692 12.0621C14.531 12.0441 18.2045 11.903 18.5139 11.9452C19.0092 12.0128 19.0092 12.4778 18.9271 12.7161C18.8911 12.8208 18.8473 12.8996 18.7919 12.9995C18.7211 13.127 18.6312 13.2888 18.5139 13.5827C18.4474 13.7494 18.3888 13.9834 18.3273 14.2292C18.1954 14.7563 18.0498 15.3377 17.7829 15.4262C17.4889 15.5236 16.303 15.4748 15.5652 15.4444C15.3204 15.4343 15.125 15.4262 15.0279 15.4262C14.8552 15.4262 14.759 14.9955 14.6519 14.5156C14.5227 13.9372 14.3776 13.2874 14.0635 13.2343C13.7507 13.2899 13.606 13.9381 13.4771 14.5152C13.37 14.9951 13.2738 15.4258 13.1012 15.4258C13.004 15.4258 12.8086 15.4339 12.5638 15.444C11.8261 15.4744 10.6401 15.5233 10.3462 15.4258C10.0792 15.3374 9.93367 14.7559 9.80174 14.2288C9.74023 13.983 9.68167 13.7491 9.61512 13.5823C9.4978 13.2884 9.40794 13.1266 9.33717 12.9991C9.2817 12.8992 9.23796 12.8204 9.2019 12.7157Z" fill="white"/>
<path d="M9.61512 11.9449L9.58131 11.6972L9.61512 11.9449ZM9.2019 12.7157L9.43827 12.6343L9.2019 12.7157ZM14.0692 12.0621L14.0594 12.3119L14.0692 12.3122L14.0789 12.3119L14.0692 12.0621ZM18.5139 11.9452L18.5477 11.6975L18.5139 11.9452ZM18.9271 12.7161L18.6908 12.6347V12.6347L18.9271 12.7161ZM18.7919 12.9995L18.5733 12.8781L18.5733 12.8781L18.7919 12.9995ZM18.5139 13.5827L18.7461 13.6754V13.6754L18.5139 13.5827ZM18.3273 14.2292L18.0848 14.1685V14.1685L18.3273 14.2292ZM17.7829 15.4262L17.7042 15.1889H17.7042L17.7829 15.4262ZM15.5652 15.4444L15.555 15.6941L15.5652 15.4444ZM14.6519 14.5156L14.4079 14.5701V14.5701L14.6519 14.5156ZM14.0635 13.2343L14.1051 12.9878L14.0624 12.9806L14.0197 12.9882L14.0635 13.2343ZM13.4771 14.5152L13.7211 14.5697V14.5697L13.4771 14.5152ZM12.5638 15.444L12.5535 15.1942L12.5638 15.444ZM10.3462 15.4258L10.4248 15.1885H10.4248L10.3462 15.4258ZM9.80174 14.2288L10.0443 14.1681L9.80174 14.2288ZM9.61512 13.5823L9.84731 13.4897L9.61512 13.5823ZM9.33717 12.9991L9.1186 13.1205H9.1186L9.33717 12.9991ZM9.58131 11.6972C9.41838 11.7194 9.27985 11.777 9.17027 11.868C9.06089 11.9589 8.99316 12.0726 8.9549 12.187C8.88119 12.4074 8.91195 12.6416 8.96552 12.7971L9.43827 12.6343C9.40977 12.5516 9.39949 12.4341 9.42909 12.3456C9.44248 12.3055 9.46249 12.2753 9.48985 12.2526C9.517 12.23 9.56421 12.2041 9.64893 12.1926L9.58131 11.6972ZM14.0789 11.8122C13.8691 11.8041 12.8328 11.7641 11.8097 11.7315C11.2983 11.7152 10.7894 11.7007 10.3884 11.693C10.188 11.6891 10.0135 11.6869 9.87855 11.687C9.7519 11.6871 9.64063 11.6891 9.58131 11.6972L9.64893 12.1926C9.64879 12.1926 9.65037 12.1924 9.6542 12.192C9.65788 12.1917 9.66281 12.1913 9.66915 12.191C9.68192 12.1902 9.69848 12.1895 9.71908 12.1889C9.76031 12.1877 9.81392 12.1871 9.87899 12.187C10.009 12.1869 10.1797 12.189 10.3787 12.1929C10.7766 12.2006 11.2831 12.215 11.7938 12.2313C12.8151 12.2638 13.85 12.3037 14.0594 12.3119L14.0789 11.8122ZM14.0789 12.3119C14.3097 12.3029 15.3428 12.2632 16.3567 12.2309C16.8637 12.2148 17.3651 12.2006 17.7586 12.1931C17.9555 12.1893 18.1243 12.1872 18.2528 12.1874C18.3171 12.1874 18.3701 12.1881 18.4108 12.1893C18.4312 12.1899 18.4475 12.1906 18.4601 12.1913C18.4664 12.1917 18.4713 12.1921 18.4749 12.1924C18.4787 12.1927 18.4802 12.1929 18.4801 12.1929L18.5477 11.6975C18.4887 11.6895 18.3785 11.6875 18.2533 11.6874C18.1199 11.6872 17.9473 11.6894 17.7491 11.6932C17.3524 11.7008 16.8485 11.7151 16.3408 11.7312C15.3251 11.7635 14.2906 11.8033 14.0594 11.8122L14.0789 12.3119ZM18.4801 12.1929C18.5648 12.2045 18.612 12.2304 18.6392 12.2529C18.6665 12.2757 18.6865 12.3059 18.6999 12.3459C18.7295 12.4344 18.7193 12.5519 18.6908 12.6347L19.1635 12.7975C19.2171 12.642 19.2478 12.4078 19.1741 12.1874C19.1359 12.0729 19.0681 11.9593 18.9588 11.8684C18.8492 11.7773 18.7106 11.7198 18.5477 11.6975L18.4801 12.1929ZM18.6908 12.6347C18.6628 12.7158 18.6296 12.7767 18.5733 12.8781L19.0104 13.1208C19.0651 13.0224 19.1193 12.9257 19.1635 12.7975L18.6908 12.6347ZM18.5733 12.8781C18.5001 13.0099 18.4046 13.1821 18.2817 13.49L18.7461 13.6754C18.8578 13.3955 18.942 13.244 19.0104 13.1208L18.5733 12.8781ZM18.2817 13.49C18.2075 13.676 18.1447 13.9291 18.0848 14.1685L18.5698 14.2899C18.6329 14.0377 18.6872 13.8228 18.7461 13.6754L18.2817 13.49ZM18.0848 14.1685C18.0177 14.4364 17.9521 14.697 17.8726 14.9018C17.8331 15.0037 17.7945 15.08 17.758 15.1315C17.7202 15.1849 17.6999 15.1903 17.7042 15.1889L17.8615 15.6635C17.9993 15.6178 18.0973 15.5175 18.166 15.4205C18.2361 15.3216 18.2921 15.2029 18.3388 15.0826C18.4318 14.8428 18.5049 14.5491 18.5698 14.2899L18.0848 14.1685ZM17.7042 15.1889C17.6666 15.2014 17.5689 15.216 17.4029 15.2248C17.2463 15.233 17.0532 15.2351 16.8427 15.2332C16.422 15.2294 15.9452 15.2098 15.5755 15.1946L15.555 15.6941C15.923 15.7093 16.408 15.7293 16.8382 15.7332C17.0532 15.7351 17.2578 15.7331 17.4292 15.7241C17.5914 15.7155 17.7521 15.6998 17.8615 15.6635L17.7042 15.1889ZM15.5755 15.1946C15.3342 15.1846 15.1316 15.1762 15.0279 15.1762V15.6762C15.1184 15.6762 15.3067 15.6839 15.555 15.6941L15.5755 15.1946ZM15.0279 15.1762C15.1014 15.1762 15.1283 15.2245 15.1132 15.204C15.0999 15.1856 15.0779 15.144 15.0511 15.0679C14.9982 14.9174 14.9507 14.7065 14.8959 14.4611L14.4079 14.5701C14.4602 14.8046 14.5144 15.049 14.5795 15.2339C14.6117 15.3254 14.6529 15.4214 14.7095 15.4989C14.7644 15.5741 14.868 15.6762 15.0279 15.6762V15.1762ZM14.8959 14.4611C14.8325 14.1772 14.7601 13.8508 14.6608 13.5892C14.611 13.4582 14.549 13.3281 14.4676 13.2228C14.3861 13.1172 14.2682 13.0154 14.1051 12.9878L14.0218 13.4808C14.0159 13.4798 14.0339 13.4791 14.0719 13.5284C14.1102 13.578 14.1514 13.6564 14.1933 13.7668C14.2773 13.9879 14.3421 14.2757 14.4079 14.5701L14.8959 14.4611ZM13.7211 14.5697C13.7867 14.276 13.8514 13.9888 13.9351 13.7678C13.9769 13.6576 14.0181 13.5789 14.0564 13.529C14.0946 13.4792 14.1129 13.4794 14.1073 13.4804L14.0197 12.9882C13.8577 13.017 13.7407 13.1191 13.6597 13.2246C13.5789 13.3299 13.5172 13.4597 13.4676 13.5906C13.3686 13.8519 13.2964 14.1774 13.2332 14.4608L13.7211 14.5697ZM13.1012 15.6758C13.261 15.6758 13.3646 15.5737 13.4196 15.4985C13.4761 15.4211 13.5173 15.325 13.5495 15.2335C13.6146 15.0486 13.6688 14.8042 13.7211 14.5697L13.2332 14.4608C13.1784 14.7062 13.1309 14.917 13.0779 15.0675C13.0511 15.1437 13.0292 15.1853 13.0158 15.2036C13.0008 15.2242 13.0276 15.1758 13.1012 15.1758V15.6758ZM12.5741 15.6938C12.8223 15.6835 13.0107 15.6758 13.1012 15.6758V15.1758C12.9974 15.1758 12.7948 15.1843 12.5535 15.1942L12.5741 15.6938ZM10.2675 15.6632C10.3769 15.6994 10.5377 15.7152 10.6998 15.7237C10.8712 15.7327 11.0759 15.7348 11.2908 15.7328C11.721 15.729 12.206 15.7089 12.5741 15.6938L12.5535 15.1942C12.1838 15.2094 11.707 15.2291 11.2863 15.2329C11.0758 15.2348 10.8827 15.2327 10.7261 15.2244C10.5601 15.2157 10.4624 15.201 10.4248 15.1885L10.2675 15.6632ZM9.55922 14.2895C9.62409 14.5487 9.69718 14.8424 9.79023 15.0822C9.83691 15.2026 9.89297 15.3212 9.963 15.4201C10.0317 15.5171 10.1297 15.6175 10.2675 15.6632L10.4248 15.1885C10.4291 15.19 10.4088 15.1845 10.371 15.1311C10.3346 15.0796 10.2959 15.0034 10.2564 14.9014C10.1769 14.6966 10.1113 14.4361 10.0443 14.1681L9.55922 14.2895ZM9.38294 13.675C9.44179 13.8225 9.4961 14.0373 9.55922 14.2895L10.0443 14.1681C9.98435 13.9287 9.92154 13.6756 9.84731 13.4897L9.38294 13.675ZM9.1186 13.1205C9.187 13.2437 9.27121 13.3951 9.38294 13.675L9.84731 13.4897C9.7244 13.1818 9.62889 13.0095 9.55574 12.8778L9.1186 13.1205ZM8.96552 12.7971C9.00969 12.9254 9.06397 13.0221 9.1186 13.1205L9.55574 12.8778C9.49944 12.7764 9.46622 12.7155 9.43827 12.6343L8.96552 12.7971Z" fill="#0F134F"/>
<path fill-rule="evenodd" clip-rule="evenodd" d="M9.95994 13.0147C9.84482 12.6469 10.1301 12.2765 10.5151 12.2939L12.8308 12.3986C13.176 12.4143 13.4233 12.7379 13.3477 13.0751L13.0017 14.6171C12.9449 14.8707 12.7197 15.051 12.4598 15.051H11.0054C10.7626 15.051 10.5479 14.8932 10.4754 14.6615L9.95994 13.0147Z" fill="#0F134F"/>
<mask id="mask2" mask-type="alpha" maskUnits="userSpaceOnUse" x="9" y="12" width="5" height="4">
<path fill-rule="evenodd" clip-rule="evenodd" d="M9.95994 13.0147C9.84482 12.6469 10.1301 12.2765 10.5151 12.2939L12.8308 12.3986C13.176 12.4143 13.4233 12.7379 13.3477 13.0751L13.0017 14.6171C12.9449 14.8707 12.7197 15.051 12.4598 15.051H11.0054C10.7626 15.051 10.5479 14.8932 10.4754 14.6615L9.95994 13.0147Z" fill="white"/>
</mask>
<g mask="url(#mask2)">
</g>
<path fill-rule="evenodd" clip-rule="evenodd" d="M18.2782 13.0597C18.3938 12.6918 18.1086 12.321 17.7233 12.3383L15.4092 12.4426C15.0637 12.4582 14.8163 12.7822 14.8923 13.1195L15.2372 14.6511C15.2943 14.9045 15.5193 15.0845 15.7791 15.0845H17.2343C17.4769 15.0845 17.6915 14.9271 17.7642 14.6956L18.2782 13.0597Z" fill="#0F134F"/>
<mask id="mask3" mask-type="alpha" maskUnits="userSpaceOnUse" x="14" y="12" width="5" height="4">
<path fill-rule="evenodd" clip-rule="evenodd" d="M18.2782 13.0597C18.3938 12.6918 18.1086 12.321 17.7233 12.3383L15.4092 12.4426C15.0637 12.4582 14.8163 12.7822 14.8923 13.1195L15.2372 14.6511C15.2943 14.9045 15.5193 15.0845 15.7791 15.0845H17.2343C17.4769 15.0845 17.6915 14.9271 17.7642 14.6956L18.2782 13.0597Z" fill="white"/>
</mask>
<g mask="url(#mask3)">
</g>
<path d="M11.4839 17.2258C11.4839 17.2258 12.2463 18.0645 14.1581 18.0645C16.0699 18.0645 16.5161 17.2258 16.5161 17.2258" stroke="white" stroke-width="0.5"/>
<path d="M14.9764 18.0181C15.509 17.9511 16.0223 17.687 16.5161 17.2258" stroke="#0F134F" stroke-width="0.5"/>
<path d="M19.0088 2C23.702 3.96124 27 8.59548 27 14C27 21.1797 21.1797 27 14 27C10.3133 27 6.985 25.4653 4.61914 23" stroke="url(#paint0_angular)" stroke-width="2" stroke-linecap="round" stroke-linejoin="round"/>
<circle cx="14.5" cy="1.5" r="1.5" fill="#3D56D6"/>
<defs>
<radialGradient id="paint0_angular" cx="0" cy="0" r="1" gradientUnits="userSpaceOnUse" gradientTransform="translate(17.6741 20.9517) rotate(90) scale(30.2424 16.501)">
<stop offset="0.200113" stop-color="#00C2FF"/>
<stop offset="0.591769" stop-color="#5E4BFF"/>
</radialGradient>
</defs>
</svg>
