<svg width="28" height="28" viewBox="0 0 28 28" fill="none" xmlns="http://www.w3.org/2000/svg">
<path fill-rule="evenodd" clip-rule="evenodd" d="M25.6384 16.9025C24.0357 23.3318 17.5242 27.2433 11.0952 25.641C4.66842 24.0379 0.755671 17.5265 2.35955 11.0983C3.96117 4.6687 10.4727 0.756391 16.8998 2.35911C23.3292 3.96184 27.2408 10.474 25.6384 16.9025Z" fill="#F7F8FB"/>
<path fill-rule="evenodd" clip-rule="evenodd" d="M16.6883 12.2668C16.3171 13.7541 14.0255 12.9984 13.2826 12.8132L13.9381 10.1845C14.681 10.3697 17.075 10.7155 16.6883 12.2668ZM16.2814 16.5084C15.8745 18.143 13.1216 17.2599 12.2287 17.0379L12.9521 14.1396C13.8446 14.3623 16.7066 14.8037 16.2814 16.5084ZM19.2895 12.2905C19.5284 10.6938 18.3127 9.83544 16.6499 9.26283L17.1895 7.09986L15.8729 6.77174L15.3479 8.87771C15.0018 8.79146 14.6463 8.71009 14.2934 8.62946L14.8218 6.50962L13.5063 6.1815L12.9667 8.34372C12.6802 8.27847 12.3989 8.21397 12.1259 8.14609L12.1274 8.13934L10.3117 7.68598L9.96141 9.0922C9.96141 9.0922 10.9383 9.31608 10.9173 9.32995C11.4509 9.46307 11.5473 9.81594 11.5312 10.0957L10.0537 16.021C9.98841 16.183 9.82266 16.4256 9.45029 16.3337C9.46304 16.3528 8.49329 16.0948 8.49329 16.0948L7.83929 17.6023L9.55304 18.0298C9.87141 18.1097 10.1838 18.1929 10.4917 18.2717L9.94641 20.4594L11.2615 20.7875L11.8012 18.6227C12.1604 18.7202 12.5088 18.8102 12.8504 18.8953L12.3127 21.0493L13.6293 21.3774L14.1742 19.1942C16.4189 19.619 18.1075 19.4477 18.8182 17.4174C19.3908 15.7828 18.7897 14.8394 17.6084 14.224C18.4687 14.0252 19.1167 13.4594 19.2895 12.2905Z" fill="#0F134F"/>
<path d="M19.0088 2C23.702 3.96124 27 8.59548 27 14C27 21.1797 21.1797 27 14 27C10.3133 27 6.985 25.4653 4.61914 23" stroke="url(#paint0_angular)" stroke-width="2" stroke-linecap="round" stroke-linejoin="round"/>
<circle cx="14.5" cy="1.5" r="1.5" fill="#3D56D6"/>
<defs>
<radialGradient id="paint0_angular" cx="0" cy="0" r="1" gradientUnits="userSpaceOnUse" gradientTransform="translate(17.6741 20.9517) rotate(90) scale(30.2424 16.501)">
<stop offset="0.200113" stop-color="#00C2FF"/>
<stop offset="0.591769" stop-color="#5E4BFF"/>
</radialGradient>
</defs>
</svg>
