<svg width="28" height="28" viewBox="0 0 28 28" fill="none" xmlns="http://www.w3.org/2000/svg">
<path d="M2 14C2 17.1826 3.26428 20.2348 5.51472 22.4853C7.76516 24.7357 10.8174 26 14 26C17.1826 26 20.2348 24.7357 22.4853 22.4853C24.7357 20.2348 26 17.1826 26 14C26 10.8174 24.7357 7.76516 22.4853 5.51472C20.2348 3.26428 17.1826 2 14 2C10.8174 2 7.76516 3.26428 5.51472 5.51472C3.26428 7.76516 2 10.8174 2 14H2Z" fill="#F7F8FB"/>
<path d="M19.0088 2C23.702 3.96124 27 8.59548 27 14C27 21.1797 21.1797 27 14 27C10.3133 27 6.985 25.4653 4.61914 23" stroke="url(#paint0_angular)" stroke-width="2" stroke-linecap="round" stroke-linejoin="round"/>
<circle cx="14.5" cy="1.5" r="1.5" fill="#3D56D6"/>
<path d="M19.628 8.048H8.26401V10.796H12.584V14.828H15.32V10.796H19.628V8.048Z" fill="#0F134F"/>
<path d="M21.224 14.204C21.224 13.304 17.984 12.584 13.976 12.584C9.968 12.584 6.728 13.316 6.728 14.204C6.728 14.996 9.248 15.656 12.584 15.8V21.584H15.32V15.8C18.68 15.656 21.224 14.996 21.224 14.204ZM13.976 15.26C10.412 15.26 7.52 14.696 7.52 14C7.52 13.304 10.412 12.74 13.976 12.74C17.54 12.74 20.432 13.304 20.432 14C20.432 14.696 17.54 15.26 13.976 15.26Z" fill="#0F134F"/>
<defs>
<radialGradient id="paint0_angular" cx="0" cy="0" r="1" gradientUnits="userSpaceOnUse" gradientTransform="translate(17.6741 20.9517) rotate(90) scale(30.2424 16.501)">
<stop offset="0.200113" stop-color="#00C2FF"/>
<stop offset="0.591769" stop-color="#5E4BFF"/>
</radialGradient>
</defs>
</svg>
