<svg width="28" height="28" viewBox="0 0 28 28" fill="none" xmlns="http://www.w3.org/2000/svg">
<path fill-rule="evenodd" clip-rule="evenodd" d="M25.6384 16.9025C24.0357 23.3318 17.5242 27.2433 11.0952 25.641C4.66842 24.0379 0.755671 17.5265 2.35955 11.0983C3.96117 4.6687 10.4727 0.756391 16.8998 2.35911C23.3292 3.96184 27.2408 10.474 25.6384 16.9025Z" fill="#F7F8FB"/>
<path d="M10.1937 8.59176C10.853 8.59176 11.3875 8.05731 11.3875 7.39802C11.3875 6.73873 10.853 6.20427 10.1937 6.20427C9.53446 6.20427 9 6.73873 9 7.39802C9 8.05731 9.53446 8.59176 10.1937 8.59176Z" fill="#0F134F"/>
<path d="M19.3437 8.01885C19.3354 8.01468 18.6125 7.62094 18.1125 7.3376C18.7104 7.00427 19.3354 6.66677 19.3437 6.6626C19.5146 6.57094 19.5791 6.35635 19.4854 6.18552C19.3937 6.01469 19.1791 5.95011 19.0083 6.04177C19 6.04594 18.1521 6.50427 17.4812 6.88135C17.3042 6.98135 17.2396 7.18344 17.2396 7.33969C17.2375 7.52927 17.3271 7.69385 17.4771 7.78344C17.9292 8.0501 18.9646 8.6126 19.0083 8.6376C19.0625 8.66677 19.1187 8.68135 19.1771 8.68135C19.3021 8.68135 19.4229 8.61468 19.4875 8.49802C19.5771 8.3251 19.5146 8.11052 19.3437 8.01885Z" fill="#0F134F"/>
<path d="M18.6271 10.3605C18.025 10.223 17.4187 10.5668 17.2708 11.1293L16.6021 13.6876L15.6062 11.0272C15.4292 10.5563 14.9292 10.2793 14.4208 10.3334C13.9646 10.3501 13.5479 10.623 13.3979 11.0522L12.4333 13.8188L11.5771 11.0793C11.4042 10.5251 10.7812 10.2063 10.1854 10.3668C9.58958 10.5293 9.24791 11.1084 9.42083 11.6626L11.2854 17.6355C11.3792 17.9688 11.6458 18.2522 12.0229 18.3667C12.1375 18.4022 12.2542 18.4188 12.3708 18.4188C12.7042 18.4188 13.0187 18.2772 13.2312 18.0397L13.2333 18.0376C13.2562 18.0126 13.2771 17.9855 13.2979 17.9584C13.3 17.9563 13.3 17.9542 13.3021 17.9522C13.3333 17.9084 13.3625 17.8605 13.3875 17.8105C13.4 17.7855 13.4104 17.7626 13.4208 17.7376C13.4271 17.723 13.4333 17.7126 13.4396 17.698L14.5417 14.5376L15.725 17.6959C15.8417 18.0292 16.1333 18.3022 16.5271 18.3917C16.6167 18.4126 16.7062 18.4209 16.7937 18.4209C17.0729 18.4209 17.3354 18.3209 17.5375 18.1542C17.5437 18.148 17.55 18.1438 17.5583 18.1376C17.6 18.1001 17.6396 18.0605 17.675 18.0188C17.6833 18.0105 17.6916 18.0001 17.6979 17.9918C17.7166 17.9688 17.7354 17.9438 17.7521 17.9188C17.7729 17.8876 17.7896 17.8563 17.8062 17.8251C17.8166 17.8042 17.825 17.7834 17.8354 17.7626C17.8521 17.723 17.8687 17.6813 17.8791 17.6397C17.8812 17.6355 17.8833 17.6313 17.8833 17.6272L19.4521 11.6251C19.5979 11.0647 19.2291 10.498 18.6271 10.3605Z" fill="#0F134F"/>
<path d="M18.4541 19.698C13.7354 22.4105 10.6166 19.8626 10.4854 19.7522C10.2646 19.5647 9.93331 19.5917 9.74373 19.8126C9.55414 20.0334 9.58123 20.3667 9.80206 20.5542C9.90414 20.6397 11.5416 22.0001 14.2041 22.0001C15.5541 22.0001 17.1666 21.6501 18.977 20.6105C19.2291 20.4647 19.3166 20.1438 19.1708 19.8917C19.027 19.6397 18.7062 19.5522 18.4541 19.698Z" fill="#0F134F"/>
<path d="M19.0088 2C23.702 3.96124 27 8.59548 27 14C27 21.1797 21.1797 27 14 27C10.3133 27 6.985 25.4653 4.61914 23" stroke="url(#paint0_angular)" stroke-width="2" stroke-linecap="round" stroke-linejoin="round"/>
<circle cx="14.5" cy="1.5" r="1.5" fill="#3D56D6"/>
<defs>
<radialGradient id="paint0_angular" cx="0" cy="0" r="1" gradientUnits="userSpaceOnUse" gradientTransform="translate(17.6741 20.9517) rotate(90) scale(30.2424 16.501)">
<stop offset="0.200113" stop-color="#00C2FF"/>
<stop offset="0.591769" stop-color="#5E4BFF"/>
</radialGradient>
</defs>
</svg>
