<svg width="28" height="28" viewBox="0 0 28 28" fill="none" xmlns="http://www.w3.org/2000/svg">
<circle cx="14" cy="14" r="12" fill="#F7F8FB"/>
<path fill-rule="evenodd" clip-rule="evenodd" d="M14.8429 13.011L19.725 12.1154L14.125 19.0257L14.8429 13.011ZM14.2125 12.7375L13.4601 19.0257L9.4 8.70522L14.2125 12.7375ZM14.5293 11.8462L9.925 8.077L17.45 9.44385L14.5293 11.8462ZM18.2131 9.782L19.8125 11.316L15.4375 12.1153L18.2131 9.782ZM18.4201 8.94547L8 7L13.4842 21L21.125 11.5547L18.4201 8.94547Z" fill="#0F134F"/>
<path d="M14.8429 13.011L14.8248 12.9126L14.7523 12.9259L14.7436 12.9991L14.8429 13.011ZM19.725 12.1154L19.8027 12.1784L19.973 11.9683L19.707 12.0171L19.725 12.1154ZM14.125 19.0257L14.0257 19.0139L13.9847 19.3577L14.2027 19.0887L14.125 19.0257ZM14.2125 12.7375L14.3118 12.7494L14.3182 12.6957L14.2767 12.6609L14.2125 12.7375ZM13.4601 19.0257L13.3671 19.0623L13.5594 19.0376L13.4601 19.0257ZM9.4 8.70522L9.46422 8.62857L9.30694 8.74183L9.4 8.70522ZM14.5293 11.8462L14.4659 11.9236L14.5294 11.9756L14.5928 11.9235L14.5293 11.8462ZM9.925 8.077L9.94287 7.97861L9.56256 7.90953L9.86166 8.15438L9.925 8.077ZM17.45 9.44385L17.5135 9.52108L17.6802 9.38402L17.4679 9.34546L17.45 9.44385ZM18.2131 9.782L18.2823 9.70983L18.2175 9.64766L18.1487 9.70545L18.2131 9.782ZM19.8125 11.316L19.8305 11.4144L20.0229 11.3793L19.8817 11.2439L19.8125 11.316ZM15.4375 12.1153L15.3732 12.0388L15.0845 12.2815L15.4555 12.2137L15.4375 12.1153ZM18.4201 8.94547L18.4896 8.8735L18.468 8.85267L18.4385 8.84717L18.4201 8.94547ZM8 7L8.01835 6.9017L7.84113 6.86861L7.90689 7.03647L8 7ZM13.4842 21L13.3911 21.0365L13.4538 21.1966L13.5619 21.0629L13.4842 21ZM21.125 11.5547L21.2027 11.6176L21.2604 11.5463L21.1944 11.4827L21.125 11.5547ZM14.8609 13.1093L19.743 12.2138L19.707 12.0171L14.8248 12.9126L14.8609 13.1093ZM19.6473 12.0525L14.0473 18.9627L14.2027 19.0887L19.8027 12.1784L19.6473 12.0525ZM14.2243 19.0376L14.9422 13.0228L14.7436 12.9991L14.0257 19.0139L14.2243 19.0376ZM14.1132 12.7257L13.3608 19.0139L13.5594 19.0376L14.3118 12.7494L14.1132 12.7257ZM13.5532 18.9891L9.49306 8.66862L9.30694 8.74183L13.3671 19.0623L13.5532 18.9891ZM9.33578 8.78188L14.1483 12.8142L14.2767 12.6609L9.46422 8.62857L9.33578 8.78188ZM14.5926 11.7689L9.98834 7.99962L9.86166 8.15438L14.4659 11.9236L14.5926 11.7689ZM9.90713 8.17539L17.4321 9.54224L17.4679 9.34546L9.94287 7.97861L9.90713 8.17539ZM17.3865 9.36662L14.4658 11.769L14.5928 11.9235L17.5135 9.52108L17.3865 9.36662ZM18.1439 9.85417L19.7433 11.3882L19.8817 11.2439L18.2823 9.70983L18.1439 9.85417ZM19.7945 11.2177L15.4195 12.017L15.4555 12.2137L19.8305 11.4144L19.7945 11.2177ZM15.5018 12.1919L18.2774 9.85854L18.1487 9.70545L15.3732 12.0388L15.5018 12.1919ZM18.4385 8.84717L8.01835 6.9017L7.98165 7.0983L18.4018 9.04377L18.4385 8.84717ZM7.90689 7.03647L13.3911 21.0365L13.5773 20.9635L8.09311 6.96353L7.90689 7.03647ZM13.5619 21.0629L21.2027 11.6176L21.0473 11.4918L13.4064 20.9371L13.5619 21.0629ZM21.1944 11.4827L18.4896 8.8735L18.3507 9.01744L21.0556 11.6266L21.1944 11.4827Z" fill="#0F134F"/>
<path d="M19.0088 2C23.702 3.96124 27 8.59548 27 14C27 21.1797 21.1797 27 14 27C10.3133 27 6.985 25.4653 4.61914 23" stroke="url(#paint0_angular)" stroke-width="2" stroke-linecap="round" stroke-linejoin="round"/>
<circle cx="14.5" cy="1.5" r="1.5" fill="#3D56D6"/>
<defs>
<radialGradient id="paint0_angular" cx="0" cy="0" r="1" gradientUnits="userSpaceOnUse" gradientTransform="translate(17.6741 20.9517) rotate(90) scale(30.2424 16.501)">
<stop offset="0.200113" stop-color="#00C2FF"/>
<stop offset="0.591769" stop-color="#5E4BFF"/>
</radialGradient>
</defs>
</svg>
