<svg width="80" height="80" viewBox="0 0 80 80" fill="none" xmlns="http://www.w3.org/2000/svg">
<circle cx="41.7143" cy="41.7143" r="35.7143" fill="#F7F8FB"/>
<path fill-rule="evenodd" clip-rule="evenodd" d="M22.6083 32.4854C18.5912 43.6129 24.1318 56.1852 34.9358 60.2312C35.3514 60.5204 35.7669 61.0982 35.7669 61.5318V63.5551C35.7669 63.844 35.7669 63.9887 35.6283 64.1329C35.49 64.7111 34.9358 65 34.3817 64.7111C26.625 62.1099 20.6689 55.8959 18.1756 47.8035C14.0202 34.0752 21.223 19.4796 34.3817 15.1443C34.5203 15 34.7972 15 34.9358 15C35.49 15.1443 35.7669 15.5778 35.7669 16.156V18.179C35.7669 18.9018 35.49 19.3353 34.9358 19.6242C29.2569 21.7918 24.686 26.416 22.6083 32.4854ZM48.3717 15.7224C48.51 15.1443 49.0642 14.8554 49.6183 15.1443C57.2363 17.7454 63.3311 23.9595 65.8244 32.1965C69.9798 45.9248 62.777 60.5204 49.6183 64.8557C49.4797 65 49.2028 65 49.0642 65C48.51 64.8557 48.2331 64.4222 48.2331 63.844V61.821C48.2331 61.0982 48.51 60.6647 49.0642 60.3758C54.7431 58.2082 59.314 53.584 61.3917 47.5146C65.4088 36.3871 59.8682 23.8148 49.0642 19.7688C48.6486 19.4796 48.2331 18.9018 48.2331 18.3236V16.3006C48.2331 16.0113 48.2331 15.8671 48.3717 15.7224ZM42.0645 37.6509C47.7907 38.3627 50.6538 40.0712 50.6538 45.0544C50.6538 48.8987 47.9272 51.8887 43.837 52.6008V56.0179C43.7006 56.7297 43.2916 57.1569 42.7461 57.1569H40.701C40.0194 57.0144 39.6104 56.5872 39.6104 56.0179V52.6008C35.1113 51.8887 32.9297 49.3258 32.3846 45.7666V45.6241C32.3846 45.0544 32.7936 44.6273 33.3387 44.6273H35.6567C36.0657 44.6273 36.4747 44.9123 36.6109 45.4816C37.0199 47.6173 38.2469 49.1837 41.7919 49.1837C44.3822 49.1837 46.2911 47.6176 46.2911 45.3394C46.2911 43.0612 45.0641 42.2069 41.2465 41.4952C35.5203 40.783 32.7936 38.9323 32.7936 34.2338C32.7936 30.6742 35.3838 27.8267 39.474 27.257V23.9824C39.6104 23.2703 40.0194 22.8431 40.5649 22.8431H42.61C43.2916 22.9856 43.7006 23.4128 43.7006 23.9824V27.3995C46.8362 27.6842 49.2903 30.1045 49.8358 33.237V33.3795C49.8358 33.9488 49.4268 34.3759 48.8813 34.3759H46.7001C46.2911 34.3759 45.8821 34.0913 45.7456 33.6641C45.0641 31.5284 43.7006 30.6742 41.2465 30.6742C38.5198 30.6742 37.1563 31.9552 37.1563 33.9488C37.1563 35.9423 37.9744 37.0813 42.0645 37.6509Z" fill="#0F134F"/>
<path fill-rule="evenodd" clip-rule="evenodd" d="M51.6746 4.61269C52.283 3.15675 53.9565 2.46969 55.4125 3.07811C69.8476 9.11036 80 23.3663 80 40C80 62.0914 62.0914 80.0001 40 80.0001C28.6566 80.0001 18.4121 75.2746 11.1361 67.6926C10.0435 66.5541 10.0807 64.7454 11.2193 63.6529C12.3578 62.5603 14.1664 62.5975 15.259 63.736C21.5022 70.2417 30.2764 74.2858 40 74.2858C58.9355 74.2858 74.2857 58.9355 74.2857 40C74.2857 25.7508 65.5925 13.5254 53.2092 8.35055C51.7533 7.74213 51.0662 6.06864 51.6746 4.61269Z" fill="url(#paint0_angular)"/>
<circle cx="41.4287" cy="4.28571" r="4.28571" fill="#3D56D6"/>
<defs>
<radialGradient id="paint0_angular" cx="0" cy="0" r="1" gradientUnits="userSpaceOnUse" gradientTransform="translate(50.4975 59.862) rotate(90) scale(86.4068 47.1457)">
<stop offset="0.200113" stop-color="#00C2FF"/>
<stop offset="0.591769" stop-color="#5E4BFF"/>
</radialGradient>
</defs>
</svg>
