<svg width="28" height="28" viewBox="0 0 28 28" fill="none" xmlns="http://www.w3.org/2000/svg">
<path fill-rule="evenodd" clip-rule="evenodd" d="M25.6384 16.9025C24.0357 23.3318 17.5242 27.2433 11.0952 25.641C4.66842 24.0379 0.755671 17.5265 2.35955 11.0983C3.96117 4.6687 10.4727 0.756391 16.8998 2.35911C23.3292 3.96184 27.2408 10.474 25.6384 16.9025Z" fill="#F7F8FB"/>
<path d="M23.7969 11.9868C23.6653 11.3438 23.469 10.7114 23.2134 10.107C22.9626 9.514 22.6523 8.9423 22.291 8.4076C21.9336 7.8785 21.5231 7.3811 21.0711 6.929C20.6191 6.477 20.1216 6.0665 19.5925 5.7091C19.0578 5.3479 18.486 5.0375 17.8931 4.7867C17.2887 4.5311 16.6563 4.3347 16.0133 4.2032C15.3545 4.0683 14.6772 4 14 4C13.3228 4 12.6455 4.0683 11.9868 4.2031C11.3438 4.3347 10.7113 4.531 10.107 4.7866C9.514 5.0374 8.9423 5.3477 8.4076 5.709C7.8785 6.0664 7.3811 6.4769 6.929 6.9289C6.477 7.3809 6.0665 7.8784 5.7091 8.4075C5.3479 8.9422 5.0375 9.514 4.7867 10.1069C4.5311 10.7113 4.3347 11.3437 4.2032 11.9867C4.0683 12.6455 4 13.3228 4 14C4 14.6772 4.0683 15.3545 4.2031 16.0132C4.3347 16.6562 4.531 17.2887 4.7866 17.893C5.0374 18.486 5.3477 19.0577 5.709 19.5924C6.0664 20.1215 6.4769 20.6189 6.9289 21.071C7.3809 21.523 7.8784 21.9335 8.4075 22.2909C8.9422 22.6521 9.514 22.9624 10.1069 23.2133C10.7113 23.4689 11.3437 23.6653 11.9867 23.7968C12.6455 23.9317 13.3228 24 14 24C14.6772 24 15.3545 23.9317 16.0132 23.7969C16.6562 23.6653 17.2886 23.469 17.893 23.2134C18.486 22.9626 19.0577 22.6523 19.5924 22.291C20.1215 21.9336 20.619 21.5231 21.071 21.0711C21.523 20.6191 21.9335 20.1216 22.2909 19.5925C22.6521 19.0578 22.9624 18.486 23.2133 17.8931C23.4689 17.2887 23.6653 16.6563 23.7968 16.0133C23.9317 15.3545 24 14.6772 24 14C24 13.3228 23.9317 12.6455 23.7969 11.9868ZM14 22.75C9.1675 22.75 5.25 18.8325 5.25 14C5.25 9.1675 9.1675 5.25 14 5.25C18.8325 5.25 22.75 9.1675 22.75 14C22.75 18.8325 18.8325 22.75 14 22.75Z" fill="#0F134F"/>
<path d="M14.1553 21.9983C14.1834 21.9978 14.2115 21.9971 14.2395 21.9963C14.2528 21.9959 14.266 21.9955 14.2792 21.995C14.3082 21.994 14.3371 21.9928 14.366 21.9915C14.3767 21.991 14.3875 21.9906 14.3982 21.9901C14.4379 21.9881 14.4776 21.986 14.5172 21.9834C14.5196 21.9832 14.522 21.9831 14.5244 21.9829C14.5614 21.9805 14.5984 21.9778 14.6353 21.9749C14.646 21.9741 14.6567 21.9731 14.6673 21.9723C14.6968 21.9699 14.7263 21.9673 14.7558 21.9645C14.7668 21.9635 14.7778 21.9624 14.7887 21.9614C14.8214 21.9582 14.8541 21.9548 14.8867 21.9512C14.893 21.9505 14.8994 21.9499 14.9057 21.9491C14.9463 21.9445 14.9867 21.9397 15.0271 21.9345C15.0282 21.9344 15.0293 21.9342 15.0304 21.9341C15.0684 21.9292 15.1064 21.924 15.1442 21.9186C15.1522 21.9174 15.1603 21.9162 15.1683 21.9151C15.2006 21.9104 15.2329 21.9054 15.2651 21.9003C15.2728 21.8991 15.2804 21.8979 15.2881 21.8966C15.3265 21.8904 15.3649 21.8839 15.4031 21.8772C15.4032 21.8772 15.4033 21.8772 15.4034 21.8771C15.4838 21.8629 15.5637 21.8474 15.6433 21.8308C15.6491 21.8296 15.6549 21.8284 15.6607 21.8271C15.6953 21.8198 15.7298 21.8123 15.7642 21.8045C15.769 21.8034 15.7738 21.8024 15.7785 21.8013C15.8582 21.7832 15.9374 21.764 16.0162 21.7435C15.0332 21.7759 14.233 21.6381 13.7249 21.5295C12.594 21.2877 11.5143 20.8449 10.6037 20.0805C9.08423 18.805 8.30633 16.9802 8.32583 15.1667C8.34033 13.8092 8.80163 12.4581 9.73323 11.3483C10.8997 9.9587 12.5665 9.2298 14.2715 9.1959C14.35 9.1943 14.4286 9.1944 14.5073 9.1957V7.8356C14.4198 7.8344 14.3322 7.8346 14.2445 7.8363C13.7256 7.8466 13.2072 7.9102 12.7037 8.0255C12.1948 8.142 11.6982 8.3118 11.2276 8.5303C10.7472 8.7534 10.2906 9.0287 9.87053 9.3487C9.43913 9.6773 9.04253 10.0559 8.69153 10.474C8.36403 10.8642 8.07683 11.2882 7.83783 11.7344C7.60483 12.1696 7.41513 12.6306 7.27403 13.1048C7.13573 13.5694 7.04273 14.0511 6.99763 14.5365C6.98363 14.6873 6.97423 14.8389 6.96933 14.9909C6.96743 15.049 6.96633 15.1072 6.96573 15.1654C6.96593 15.1948 6.96633 15.2242 6.96693 15.2537C6.97723 15.7726 7.04083 16.291 7.15613 16.7945C7.27263 17.3034 7.44333 17.7996 7.66093 18.2706C7.92033 18.832 8.38463 19.6632 9.06583 20.2976C9.06643 20.2981 9.06703 20.2987 9.06763 20.2992C10.4268 21.3646 12.1392 21.9999 13.9999 21.9999C14.0397 21.9999 14.0793 21.9995 14.1189 21.9989C14.1311 21.9988 14.1432 21.9985 14.1553 21.9983Z" fill="#0F134F"/>
<path d="M16.392 20.6771C15.9153 20.6687 15.3395 20.5969 14.882 20.5137C12.7675 20.1294 10.9504 18.8435 10.2812 16.8903C9.46706 14.5145 10.7172 11.9535 13.0734 11.1701C13.5339 11.017 14.0024 10.9432 14.4645 10.9411C15.0743 10.9384 15.6726 11.061 16.2259 11.2916L16.7987 10.0718C16.6274 9.99888 16.4526 9.93398 16.2746 9.87718C15.6848 9.68918 15.0738 9.59528 14.4586 9.59798C13.8397 9.60068 13.227 9.70148 12.6373 9.89748C11.8837 10.1481 11.2032 10.5403 10.6149 11.0632C10.3328 11.3139 10.0742 11.594 9.84606 11.8956C9.62086 12.1935 9.42336 12.515 9.25926 12.8512C9.09546 13.1867 8.96346 13.5398 8.86686 13.9006C8.76946 14.2646 8.70716 14.6397 8.68186 15.0156C8.62926 15.7964 8.73256 16.5716 8.98896 17.3199C9.24526 18.0679 9.65856 18.7543 10.2174 19.3599C10.7198 19.9044 11.3062 20.318 12.0188 20.6923C12.7606 21.082 13.6709 21.2916 14.6223 21.4231C15.2356 21.5079 16.0553 21.5257 16.5415 21.5236C16.963 21.3676 17.1405 21.3019 17.3677 21.2046C17.5661 21.1135 17.76 21.0147 17.9492 20.9086C18.1435 20.7935 18.1775 20.7755 18.5024 20.5632C18.5312 20.5426 18.5598 20.5218 18.5883 20.5008C17.4829 20.6986 17.1927 20.6913 16.392 20.6771Z" fill="#0F134F"/>
<path d="M18.9199 19.1493C18.6029 19.171 18.1541 19.1963 17.6391 19.1963C16.7276 19.1963 15.6092 19.1169 14.6507 18.7974C13.1771 18.3062 11.7757 17.0382 11.7757 15.4849C11.7757 13.9316 13.0349 12.6724 14.5882 12.6724C15.6437 12.6724 16.5633 13.254 17.0443 14.114L18.2651 13.5114C18.0727 13.1529 17.8294 12.8254 17.5386 12.5345C17.1558 12.1517 16.7098 11.8511 16.2127 11.6409C15.6974 11.423 15.1508 11.3124 14.5882 11.3124C14.0255 11.3124 13.4789 11.4229 12.9637 11.6409C12.4667 11.8511 12.0206 12.1518 11.6378 12.5345C11.255 12.9173 10.9544 13.3633 10.7442 13.8604C10.5263 14.3757 10.4157 14.9223 10.4157 15.4849C10.4157 16.0513 10.537 16.6096 10.7764 17.1443C10.9874 17.6156 11.2869 18.0609 11.6665 18.4675C12.3384 19.1872 13.2455 19.7625 14.2206 20.0876C15.1536 20.3986 16.5353 20.5059 17.8675 20.4138C18.2382 20.3882 18.5187 20.3482 18.9903 20.253C19.4446 19.89 19.8585 19.4785 20.2241 19.0263C19.9111 19.0603 19.3228 19.1218 18.9199 19.1493Z" fill="#0F134F"/>
<path d="M19.0088 2C23.702 3.96124 27 8.59548 27 14C27 21.1797 21.1797 27 14 27C10.3133 27 6.985 25.4653 4.61914 23" stroke="url(#paint0_angular)" stroke-width="2" stroke-linecap="round" stroke-linejoin="round"/>
<circle cx="14.5" cy="1.5" r="1.5" fill="#3D56D6"/>
<defs>
<radialGradient id="paint0_angular" cx="0" cy="0" r="1" gradientUnits="userSpaceOnUse" gradientTransform="translate(17.6741 20.9517) rotate(90) scale(30.2424 16.501)">
<stop offset="0.200113" stop-color="#00C2FF"/>
<stop offset="0.591769" stop-color="#5E4BFF"/>
</radialGradient>
</defs>
</svg>
