<svg width="28" height="28" viewBox="0 0 28 28" fill="none" xmlns="http://www.w3.org/2000/svg">
<path fill-rule="evenodd" clip-rule="evenodd" d="M25.6384 16.9025C24.0357 23.3318 17.5242 27.2433 11.0952 25.641C4.66842 24.0379 0.755671 17.5265 2.35955 11.0983C3.96117 4.6687 10.4727 0.756391 16.8998 2.35911C23.3292 3.96184 27.2408 10.474 25.6384 16.9025Z" fill="#F7F8FB"/>
<path d="M14.0828 6.98158C15.5163 6.98158 16.8986 7.51914 17.8969 8.51747C18.9208 9.5158 19.484 10.8213 19.484 12.2292V20.8302V20.907H19.4072H8.75837H8.68157V20.8302V12.2292C8.68157 10.8213 9.24473 9.5158 10.2687 8.51747C11.267 7.51914 12.6237 6.98158 14.0828 6.98158ZM14.0828 6.7C12.5725 6.7 11.139 7.26316 10.0639 8.31268C8.98875 9.36221 8.39999 10.7445 8.39999 12.2292V20.8302V21.1885H8.75837H19.4072H19.7656V20.8302V12.2292C19.7656 10.7445 19.1768 9.36221 18.1017 8.33828C17.0266 7.26316 15.5931 6.7 14.0828 6.7Z" fill="#0F134F"/>
<path d="M17.4269 9.03325C17.3501 8.95646 17.2477 8.85406 17.1709 8.77727C16.3262 8.03492 15.251 7.65095 14.0991 7.65095C12.8448 7.65095 11.6417 8.13732 10.7714 9.03325C9.87543 9.92919 9.38907 11.1067 9.38907 12.361V20.1428V20.194H9.44026H18.758H18.8092V20.1428V16.9943V15.4328V12.489V12.3866C18.8092 11.1067 18.2972 9.92919 17.4269 9.03325ZM15.9678 19.7077C15.5326 19.8613 15.0463 19.9381 14.5599 19.9381H11.4369H11.1553V19.6565V18.3766C11.0785 18.2998 11.0018 18.1974 10.9506 18.1206C10.3618 17.3526 10.0546 16.4055 10.0546 15.4328V12.489C10.0546 11.3371 10.4898 10.262 11.2577 9.41722C11.3601 9.41722 11.4881 9.41722 11.6161 9.44282C12.4096 9.51962 13.4848 9.80119 14.4063 10.4411C15.2254 11.0043 16.2238 12.0282 16.2238 13.6921V19.3237V19.6309C16.147 19.6565 16.0702 19.6821 15.9678 19.7077Z" fill="#0F134F"/>
<path d="M14.4319 10.4412C13.5104 9.82681 12.4353 9.51963 11.6417 9.44284C11.5138 9.44284 11.3858 9.41724 11.2834 9.41724C10.5154 10.262 10.0803 11.3371 10.0803 12.489V15.4328C10.0803 16.4055 10.3874 17.3527 10.9762 18.1206C11.053 18.1974 11.1042 18.2998 11.181 18.3766V19.6565V19.9381H11.4626H14.5855C15.0719 19.9381 15.5327 19.8613 15.9934 19.7077C16.0958 19.6821 16.1726 19.6565 16.275 19.6053V19.2981V13.6665C16.2494 12.0027 15.2511 11.0043 14.4319 10.4412ZM11.437 19.6565V18.6582C11.8977 19.0933 12.4353 19.4517 13.024 19.6565H11.437ZM15.9678 19.4261C15.5327 19.5797 15.0463 19.6565 14.5599 19.6565C13.4336 19.6565 12.3841 19.2213 11.565 18.4022C11.5138 18.351 11.4626 18.2998 11.4114 18.2486C11.309 18.1462 11.2066 18.0182 11.1298 17.8902C10.5922 17.1735 10.3106 16.3031 10.3106 15.4072V12.489C10.3106 11.4651 10.6946 10.4668 11.3602 9.69882C13.152 9.77562 15.9422 11.0043 15.9422 13.6665V19.4261H15.9678Z" fill="#0F134F"/>
<path d="M13.0068 16.2327C12.93 16.2327 12.8532 16.1559 12.8532 16.0791V13.4681C12.8532 12.777 13.4163 12.2138 14.1075 12.2138C14.7986 12.2138 15.3618 12.777 15.3618 13.4681C15.3618 13.5449 15.285 13.6217 15.2082 13.6217C15.1314 13.6217 15.0546 13.5449 15.0546 13.4681C15.0546 12.9561 14.6195 12.521 14.1075 12.521C13.5955 12.521 13.1604 12.9561 13.1604 13.4681V16.0791C13.1604 16.1559 13.0836 16.2327 13.0068 16.2327Z" fill="#0F134F"/>
<path d="M14.5683 14.2105C14.4915 14.2105 14.4147 14.1337 14.4147 14.0569C14.4147 13.8777 14.2867 13.7497 14.1075 13.7497C13.9283 13.7497 13.8003 13.8777 13.8003 14.0569C13.8003 14.1337 13.7235 14.2105 13.6468 14.2105C13.57 14.2105 13.4932 14.1337 13.4932 14.0569C13.4932 13.6985 13.7747 13.4169 14.1331 13.4169C14.4915 13.4169 14.7731 13.6985 14.7731 14.0569C14.7219 14.1337 14.6451 14.2105 14.5683 14.2105Z" fill="#0F134F"/>
<path d="M13.0068 16.2327C12.5461 16.2327 12.1621 15.8488 12.1621 15.388C12.1621 15.3112 12.2389 15.2344 12.3157 15.2344C12.3925 15.2344 12.4693 15.3112 12.4693 15.388C12.4693 15.6696 12.6997 15.9 12.9812 15.9C13.2628 15.9 13.4932 15.6696 13.4932 15.388C13.4932 15.3112 13.57 15.2344 13.6468 15.2344C13.7236 15.2344 13.8004 15.3112 13.8004 15.388C13.826 15.8488 13.4676 16.2327 13.0068 16.2327Z" fill="#0F134F"/>
<path d="M12.1109 14.4664C12.0597 14.4664 12.0341 14.4408 12.0085 14.4152L11.3174 13.7241V14.3129C11.3174 14.3896 11.2406 14.4664 11.1638 14.4664C11.087 14.4664 10.9846 14.3896 10.9846 14.2873V13.3401C10.9846 13.2633 11.0358 13.2121 11.087 13.1865C11.1638 13.1609 11.215 13.1609 11.2662 13.2121L11.9573 13.9033V13.4937C11.9573 13.4169 12.0341 13.3401 12.1109 13.3401C12.1877 13.3401 12.2645 13.4169 12.2645 13.4937V14.2873C12.2645 14.364 12.2133 14.4152 12.1621 14.4408C12.1621 14.4664 12.1365 14.4664 12.1109 14.4664Z" fill="#0F134F"/>
<path d="M12.9812 13.6473C12.9044 13.6473 12.8276 13.5705 12.8276 13.4937C12.8276 13.4681 12.8276 12.8282 12.3925 12.8282C12.3157 12.8282 12.2389 12.7514 12.2389 12.6746C12.2389 12.5978 12.3157 12.521 12.3925 12.521C12.9812 12.521 13.1348 13.1609 13.1348 13.4937C13.1348 13.5705 13.058 13.6473 12.9812 13.6473Z" fill="#0F134F"/>
<path fill-rule="evenodd" clip-rule="evenodd" d="M18.0861 1.61443C18.2991 1.10485 18.8848 0.864377 19.3944 1.07732C24.4467 3.18861 28 8.17818 28 14C28 21.732 21.732 28 14 28C10.0298 28 6.44424 26.3461 3.89763 23.6924C3.51523 23.2939 3.52826 22.6609 3.92674 22.2785C4.32522 21.8961 4.95825 21.9091 5.34066 22.3076C7.52576 24.5846 10.5967 26 14 26C20.6274 26 26 20.6274 26 14C26 9.01278 22.9574 4.73387 18.6232 2.92268C18.1136 2.70973 17.8732 2.12401 18.0861 1.61443Z" fill="url(#paint0_angular)"/>
<circle cx="14.5" cy="1.5" r="1.5" fill="#3D56D6"/>
<defs>
<radialGradient id="paint0_angular" cx="0" cy="0" r="1" gradientUnits="userSpaceOnUse" gradientTransform="translate(17.6741 20.9517) rotate(90) scale(30.2424 16.501)">
<stop offset="0.200113" stop-color="#00C2FF"/>
<stop offset="0.591769" stop-color="#5E4BFF"/>
</radialGradient>
</defs>
</svg>
