<svg width="28" height="28" viewBox="0 0 28 28" fill="none" xmlns="http://www.w3.org/2000/svg">
<path fill-rule="evenodd" clip-rule="evenodd" d="M25.6384 16.9025C24.0357 23.3318 17.5242 27.2433 11.0952 25.641C4.66842 24.0379 0.755671 17.5265 2.35955 11.0983C3.96117 4.6687 10.4727 0.756391 16.8998 2.35911C23.3292 3.96184 27.2408 10.474 25.6384 16.9025Z" fill="#F7F8FB"/>
<path d="M13.6947 18.2934C14.5802 18.2934 15.298 19.0112 15.298 19.8967C15.298 20.7828 14.5802 21.5 13.6947 21.5C12.8091 21.5 12.0913 20.7828 12.0913 19.8967C12.0913 19.0112 12.8091 18.2934 13.6947 18.2934ZM20.34 14.9526V17.1551H7V14.9526H20.34ZM8.92115 7C8.92115 9.62437 11.0496 11.7518 13.6751 11.7518C16.2744 11.7518 18.3865 9.66671 18.4285 7.07858L18.4291 7H20.3371C20.3371 10.6775 17.3545 13.6587 13.6751 13.6587C10.0326 13.6587 7.07287 10.7368 7.01404 7.11011L7.01315 7H8.92115ZM13.6947 7.00032C14.5802 7.00032 15.298 7.71808 15.298 8.6036C15.298 9.48913 14.5802 10.2069 13.6947 10.2069C12.8091 10.2069 12.0913 9.48913 12.0913 8.6036C12.0913 7.71808 12.8091 7.00032 13.6947 7.00032Z" fill="#0F134F"/>
<path d="M19.0088 2C23.702 3.96124 27 8.59548 27 14C27 21.1797 21.1797 27 14 27C10.3133 27 6.985 25.4653 4.61914 23" stroke="url(#paint0_angular)" stroke-width="2" stroke-linecap="round" stroke-linejoin="round"/>
<circle cx="14.5" cy="1.5" r="1.5" fill="#3D56D6"/>
<defs>
<radialGradient id="paint0_angular" cx="0" cy="0" r="1" gradientUnits="userSpaceOnUse" gradientTransform="translate(17.6741 20.9517) rotate(90) scale(30.2424 16.501)">
<stop offset="0.200113" stop-color="#00C2FF"/>
<stop offset="0.591769" stop-color="#5E4BFF"/>
</radialGradient>
</defs>
</svg>
