<svg width="54" height="54" viewBox="0 0 54 54" fill="none" xmlns="http://www.w3.org/2000/svg">
<circle opacity="0.1" cx="27" cy="27" r="27" fill="#070001"/>
<path d="M27 11.402C30.0648 11.402 33.0202 12.5513 35.1547 14.6858C37.3439 16.8203 38.5479 19.6115 38.5479 22.6216V41.0108V41.175H38.3838H15.6162H15.452V41.0108V22.6216C15.452 19.6115 16.6561 16.8203 18.8452 14.6858C20.9797 12.5513 23.8804 11.402 27 11.402ZM27 10.8C23.7709 10.8 20.7061 12.004 18.4074 14.248C16.1088 16.4919 14.85 19.4473 14.85 22.6216V41.0108V41.777H15.6162H38.3838H39.15V41.0108V22.6216C39.15 19.4473 37.8912 16.4919 35.5925 14.3027C33.2939 12.004 30.229 10.8 27 10.8Z" fill="#070001"/>
<path d="M34.1497 15.7885C33.9855 15.6243 33.7666 15.4054 33.6024 15.2412C31.7964 13.6541 29.4977 12.8331 27.0349 12.8331C24.3531 12.8331 21.7808 13.873 19.92 15.7885C18.0045 17.7041 16.9646 20.2216 16.9646 22.9034V39.5412V39.6507H17.0741H36.9957H37.1051V39.5412V32.8095V29.471V23.177V22.9581C37.1051 20.2216 36.0105 17.7041 34.1497 15.7885ZM31.0301 38.6108C30.0997 38.9392 29.0599 39.1034 28.02 39.1034H21.343H20.741V38.5014V35.7649C20.5768 35.6007 20.4126 35.3818 20.3031 35.2176C19.0443 33.5757 18.3876 31.5507 18.3876 29.471V23.177C18.3876 20.7142 19.318 18.4156 20.9599 16.6095C21.1788 16.6095 21.4524 16.6095 21.7261 16.6642C23.4227 16.8284 25.7214 17.4304 27.6916 18.7987C29.443 20.0027 31.5774 22.1919 31.5774 25.7493V37.7899V38.4466C31.4132 38.5014 31.2491 38.5561 31.0301 38.6108Z" fill="#070001"/>
<path d="M27.7464 18.7987C25.7762 17.4852 23.4775 16.8284 21.7809 16.6642C21.5072 16.6642 21.2336 16.6095 21.0147 16.6095C19.3728 18.4156 18.4424 20.7142 18.4424 23.1771V29.471C18.4424 31.5507 19.0991 33.5757 20.3579 35.2176C20.5221 35.3818 20.6316 35.6007 20.7958 35.7649V38.5014V39.1034H21.3978H28.0748C29.1147 39.1034 30.0998 38.9392 31.085 38.6108C31.3039 38.5561 31.4681 38.5014 31.687 38.3919V37.7352V25.6946C31.6322 22.1372 29.4978 20.0027 27.7464 18.7987ZM21.3431 38.5014V36.3669C22.3282 37.2973 23.4775 38.0636 24.7363 38.5014H21.3431ZM31.0302 38.0088C30.0998 38.3372 29.06 38.5014 28.0201 38.5014C25.612 38.5014 23.3681 37.571 21.6167 35.8196C21.5072 35.7102 21.3978 35.6007 21.2883 35.4913C21.0694 35.2723 20.8505 34.9987 20.6863 34.725C19.537 33.1926 18.935 31.3318 18.935 29.4163V23.1771C18.935 20.9879 19.7559 18.8534 21.1789 17.2115C25.01 17.3757 30.9755 20.0027 30.9755 25.6946V38.0088H31.0302Z" fill="#070001"/>
<path d="M24.6993 31.1813C24.5352 31.1813 24.371 31.0171 24.371 30.8529V25.2704C24.371 23.7927 25.575 22.5887 27.0527 22.5887C28.5304 22.5887 29.7345 23.7927 29.7345 25.2704C29.7345 25.4346 29.5703 25.5988 29.4061 25.5988C29.2419 25.5988 29.0777 25.4346 29.0777 25.2704C29.0777 24.1758 28.1473 23.2454 27.0527 23.2454C25.9581 23.2454 25.0277 24.1758 25.0277 25.2704V30.8529C25.0277 31.0171 24.8635 31.1813 24.6993 31.1813Z" fill="#070001"/>
<path d="M28.0379 26.8576C27.8737 26.8576 27.7095 26.6934 27.7095 26.5292C27.7095 26.1461 27.4359 25.8724 27.0528 25.8724C26.6697 25.8724 26.396 26.1461 26.396 26.5292C26.396 26.6934 26.2318 26.8576 26.0676 26.8576C25.9034 26.8576 25.7393 26.6934 25.7393 26.5292C25.7393 25.763 26.3413 25.1609 27.1075 25.1609C27.8737 25.1609 28.4757 25.763 28.4757 26.5292C28.3663 26.6934 28.2021 26.8576 28.0379 26.8576Z" fill="#070001"/>
<path d="M24.6995 31.1813C23.7144 31.1813 22.8934 30.3603 22.8934 29.3752C22.8934 29.211 23.0576 29.0468 23.2218 29.0468C23.386 29.0468 23.5502 29.211 23.5502 29.3752C23.5502 29.9772 24.0428 30.4698 24.6448 30.4698C25.2468 30.4698 25.7394 29.9772 25.7394 29.3752C25.7394 29.211 25.9036 29.0468 26.0678 29.0468C26.2319 29.0468 26.3961 29.211 26.3961 29.3752C26.4509 30.3603 25.6846 31.1813 24.6995 31.1813Z" fill="#070001"/>
<path d="M22.784 27.4049C22.6745 27.4049 22.6198 27.3502 22.565 27.2954L21.0873 25.8177V27.0765C21.0873 27.2407 20.9232 27.4049 20.759 27.4049C20.5948 27.4049 20.3759 27.2407 20.3759 27.0218V24.9968C20.3759 24.8326 20.4853 24.7231 20.5948 24.6684C20.759 24.6137 20.8684 24.6137 20.9779 24.7231L22.4556 26.2008V25.3252C22.4556 25.161 22.6198 24.9968 22.784 24.9968C22.9482 24.9968 23.1123 25.161 23.1123 25.3252V27.0218C23.1123 27.186 23.0029 27.2954 22.8934 27.3502C22.8934 27.4049 22.8387 27.4049 22.784 27.4049Z" fill="#070001"/>
<path d="M24.6448 25.6536C24.4806 25.6536 24.3164 25.4894 24.3164 25.3252C24.3164 25.2705 24.3164 23.9022 23.386 23.9022C23.2218 23.9022 23.0576 23.7381 23.0576 23.5739C23.0576 23.4097 23.2218 23.2455 23.386 23.2455C24.6448 23.2455 24.9732 24.6137 24.9732 25.3252C24.9732 25.4894 24.809 25.6536 24.6448 25.6536Z" fill="#070001"/>
</svg>
